<svg id="Layer_1" data-name="Layer 1" xmlns="http://www.w3.org/2000/svg" viewBox="0 0 422.75 422.72"><title>ahead-of-time</title><path d="M349.09,234.33l24-28.33,3.5,1.19,1.39,37-3.18-1.08-.27-11.56-14.9-5.08-7.37,8.95Zm12.49-10.15,12.81,4.37-.55-19.36Z" transform="translate(-95.17 -195.12)"/><path d="M379.08,244.83l16.54-30.35,2.86,1.56-7.1,13,18,9.79,7.1-13,2.86,1.56-16.53,30.34-2.87-1.56L408,241.29l-18-9.78L382,246.39Z" transform="translate(-95.17 -195.12)"/><path d="M406.39,260.37l21.22-27.27,18.14,14.11-1.71,2.2L428.47,237.3l-7.66,9.85,14.06,10.93-1.71,2.2L419.1,249.34l-8.43,10.84,15.95,12.41-1.71,2.2Z" transform="translate(-95.17 -195.12)"/><path d="M425.36,274.92l34.55-13.62,2.52,2.71-16.26,33.25-2.29-2.46,5.22-10.31L438.37,273l-10.72,4.41Zm15.8-3,9.23,9.9,8.66-17.32Z" transform="translate(-95.17 -195.12)"/><path d="M446.85,298.37l28.88-19,6.49,9.86c.53.81,1,1.61,1.49,2.41a20.29,20.29,0,0,1,1.23,2.47,14.06,14.06,0,0,1,.77,2.62,12,12,0,0,1,.19,2.83,10.4,10.4,0,0,1-1,4,17.7,17.7,0,0,1-2.2,3.55,23.14,23.14,0,0,1-2.87,3,30.43,30.43,0,0,1-3,2.29,30,30,0,0,1-3,1.74,23.84,23.84,0,0,1-3.29,1.33,17.77,17.77,0,0,1-3.43.73,12.31,12.31,0,0,1-3.48-.1,10.4,10.4,0,0,1-3.24-1,12.92,12.92,0,0,1-2.7-1.79,17.73,17.73,0,0,1-2.3-2.36,31.48,31.48,0,0,1-2-2.76Zm4.12,1.19,4.3,6.54a31.41,31.41,0,0,0,2.5,3.33,12,12,0,0,0,3.28,2.58,7.74,7.74,0,0,0,3.52,1.08,13,13,0,0,0,3.67-.32,17.84,17.84,0,0,0,3.57-1.25,28.29,28.29,0,0,0,3.23-1.81,32.17,32.17,0,0,0,3.06-2.3,15.49,15.49,0,0,0,2.59-2.79,12.18,12.18,0,0,0,1.68-3.29,8.93,8.93,0,0,0,.39-3.82,10.07,10.07,0,0,0-1.12-3.63,38.12,38.12,0,0,0-2.14-3.7l-4.3-6.54Z" transform="translate(-95.17 -195.12)"/><path d="M489.86,341.31a23.72,23.72,0,0,1,7.14-.81,17,17,0,0,1,6.37,1.47,14.43,14.43,0,0,1,5.05,3.83,15.58,15.58,0,0,1,3.15,6.27,16.61,16.61,0,0,1,.43,7.2,14.24,14.24,0,0,1-2.46,5.92,17.1,17.1,0,0,1-4.83,4.45,24,24,0,0,1-6.63,2.81,23.44,23.44,0,0,1-7.06.8,17.14,17.14,0,0,1-6.35-1.48,14.29,14.29,0,0,1-5.07-3.88A17.71,17.71,0,0,1,476,354.34a14.34,14.34,0,0,1,2.49-5.87,16.77,16.77,0,0,1,4.8-4.39A24,24,0,0,1,489.86,341.31Zm-10.74,19.51a12.43,12.43,0,0,0,2.71,5.27,11.5,11.5,0,0,0,4.29,3,14.42,14.42,0,0,0,5.32,1,22.9,22.9,0,0,0,5.81-.76,21.57,21.57,0,0,0,6-2.51,14.19,14.19,0,0,0,4.06-3.72,11.22,11.22,0,0,0,1.93-4.73,13.37,13.37,0,0,0-.35-5.47,12.14,12.14,0,0,0-2.72-5.22,11.67,11.67,0,0,0-4.33-3,14.83,14.83,0,0,0-5.35-1,22.4,22.4,0,0,0-5.8.77,22.7,22.7,0,0,0-5.48,2.21,14.29,14.29,0,0,0-4.14,3.48,11.33,11.33,0,0,0-2.24,4.7A12.77,12.77,0,0,0,479.12,360.82Z" transform="translate(-95.17 -195.12)"/><path d="M481.42,379.8l34.4-3.26,2.11,22.17-2.77.26-1.8-18.92-12.42,1.18,1.63,17.2-2.77.26-1.64-17.2-16.43,1.56Z" transform="translate(-95.17 -195.12)"/><path d="M478.76,448.66l28.37,23.95-1.18,3.5-37,1.46,1.08-3.18,11.55-.3,5.05-14.91-9-7.34Zm10.17,12.46-4.34,12.82,19.35-.59Z" transform="translate(-95.17 -195.12)"/><path d="M468.32,478.67l30.38,16.47L497.14,498l-13-7.07-9.75,18,13,7.07-1.56,2.87-30.38-16.48,1.56-2.87,14.89,8.08,9.75-18-14.9-8.08Z" transform="translate(-95.17 -195.12)"/><path d="M452.85,506l27.32,21.16-14.08,18.18-2.2-1.7L476,528l-9.87-7.64-10.9,14.08-2.2-1.71,10.9-14.08-10.85-8.4-12.37,16-2.21-1.7Z" transform="translate(-95.17 -195.12)"/><path d="M438.32,525,452,559.54l-2.7,2.52L416,545.87l2.45-2.29,10.32,5.2L440.3,538l-4.43-10.71Zm3.07,15.79-9.88,9.25,17.34,8.62Z" transform="translate(-95.17 -195.12)"/><path d="M414.92,546.55l19,28.85-9.86,6.5q-1.2.79-2.4,1.5a19.59,19.59,0,0,1-2.47,1.23,13.87,13.87,0,0,1-2.62.78,12.47,12.47,0,0,1-2.83.2,10.44,10.44,0,0,1-4-1,17.22,17.22,0,0,1-3.55-2.19,21.89,21.89,0,0,1-3-2.87,27.72,27.72,0,0,1-2.3-3,29,29,0,0,1-1.75-3,23.39,23.39,0,0,1-1.34-3.29,17.52,17.52,0,0,1-.73-3.42,12.69,12.69,0,0,1,.09-3.48,10.54,10.54,0,0,1,1-3.25,13.86,13.86,0,0,1,1.78-2.7,18.37,18.37,0,0,1,2.36-2.3c.88-.71,1.79-1.39,2.75-2Zm-1.19,4.13L407.2,555a30.26,30.26,0,0,0-3.32,2.5,12,12,0,0,0-2.58,3.29,7.88,7.88,0,0,0-1.07,3.52,13,13,0,0,0,.33,3.67,17.28,17.28,0,0,0,1.26,3.57,28.29,28.29,0,0,0,1.81,3.23,31,31,0,0,0,2.31,3.05,16.12,16.12,0,0,0,2.79,2.58,12.24,12.24,0,0,0,3.3,1.68,9.09,9.09,0,0,0,3.82.38,10,10,0,0,0,3.62-1.13,37.06,37.06,0,0,0,3.7-2.15l6.53-4.31Z" transform="translate(-95.17 -195.12)"/><path d="M372.07,589.65a23.65,23.65,0,0,1,.83,7.13,16.9,16.9,0,0,1-1.46,6.38,14.49,14.49,0,0,1-3.81,5.06,15.59,15.59,0,0,1-6.27,3.16,16.63,16.63,0,0,1-7.2.45,14.36,14.36,0,0,1-5.92-2.45,16.86,16.86,0,0,1-4.46-4.83,23.88,23.88,0,0,1-2.83-6.62,23.42,23.42,0,0,1-.81-7.06,17.22,17.22,0,0,1,1.46-6.35,14.5,14.5,0,0,1,3.87-5.08,17.78,17.78,0,0,1,13.54-3.6,14.33,14.33,0,0,1,5.88,2.49,16.63,16.63,0,0,1,4.4,4.79A23.82,23.82,0,0,1,372.07,589.65ZM352.54,579a12.29,12.29,0,0,0-5.26,2.72,11.44,11.44,0,0,0-3,4.29,14.27,14.27,0,0,0-1,5.33,22.4,22.4,0,0,0,.77,5.8,21.74,21.74,0,0,0,2.52,6,14,14,0,0,0,3.73,4,11.07,11.07,0,0,0,4.74,1.92,13.15,13.15,0,0,0,5.46-.36,12,12,0,0,0,5.21-2.73,11.7,11.7,0,0,0,3-4.34,14.62,14.62,0,0,0,1-5.35,22,22,0,0,0-.77-5.8A23.06,23.06,0,0,0,366.7,585a14.61,14.61,0,0,0-3.49-4.14,11.39,11.39,0,0,0-4.71-2.22A12.65,12.65,0,0,0,352.54,579Z" transform="translate(-95.17 -195.12)"/><path d="M333.54,581.29l3.34,34.4-22.17,2.15-.27-2.77,18.92-1.84-1.21-12.42L315,602.48l-.27-2.77,17.2-1.67-1.59-16.43Z" transform="translate(-95.17 -195.12)"/><path d="M264.7,578.77,240.81,607.2l-3.5-1.18-1.54-37,3.18,1.07.32,11.55,14.92,5,7.33-9ZM252.26,589l-12.83-4.32.63,19.36Z" transform="translate(-95.17 -195.12)"/><path d="M234.68,568.4l-16.41,30.42-2.87-1.55,7-13-18-9.71-7,13L194.53,586l16.41-30.42,2.87,1.55-8,14.92,18,9.71,8.05-14.92Z" transform="translate(-95.17 -195.12)"/><path d="M207.31,553l-21.1,27.37-18.21-14,1.7-2.21,15.63,12,7.62-9.88-14.11-10.88,1.7-2.2,14.11,10.87L203,553.19l-16-12.34,1.7-2.21Z" transform="translate(-95.17 -195.12)"/><path d="M188.25,538.49l-34.49,13.76-2.53-2.69,16.12-33.32,2.3,2.45L164.47,529l10.78,11.47L186,536Zm-15.79,3.1-9.26-9.86-8.59,17.35Z" transform="translate(-95.17 -195.12)"/><path d="M166.69,515.16l-28.8,19.1-6.53-9.84c-.53-.8-1-1.59-1.51-2.39a20.29,20.29,0,0,1-1.23-2.47,13.17,13.17,0,0,1-.78-2.62,11.91,11.91,0,0,1-.21-2.83,10.56,10.56,0,0,1,1-4,18.5,18.5,0,0,1,2.19-3.56,22.5,22.5,0,0,1,2.86-3,27.85,27.85,0,0,1,6-4.06,23.89,23.89,0,0,1,3.29-1.34,18.33,18.33,0,0,1,3.42-.75,12.69,12.69,0,0,1,3.48.09,10.81,10.81,0,0,1,3.25,1,13.57,13.57,0,0,1,2.7,1.78,17.71,17.71,0,0,1,2.31,2.35c.72.88,1.39,1.79,2,2.75ZM162.56,514l-4.32-6.52a31.48,31.48,0,0,0-2.52-3.31,11.83,11.83,0,0,0-3.29-2.57,7.63,7.63,0,0,0-3.52-1.06,12.6,12.6,0,0,0-3.67.33,17.31,17.31,0,0,0-3.57,1.27,28.17,28.17,0,0,0-3.22,1.82,31,31,0,0,0-3,2.31,15.4,15.4,0,0,0-2.57,2.8,12.24,12.24,0,0,0-1.68,3.3,9.26,9.26,0,0,0-.37,3.82,10,10,0,0,0,1.14,3.62,35.3,35.3,0,0,0,2.16,3.7L138.4,530Z" transform="translate(-95.17 -195.12)"/><path d="M123.48,472.39a23.64,23.64,0,0,1-7.13.84,17,17,0,0,1-6.37-1.44,14.44,14.44,0,0,1-5.07-3.81,15.56,15.56,0,0,1-3.17-6.26,16.64,16.64,0,0,1-.47-7.2,14.34,14.34,0,0,1,2.44-5.92,17,17,0,0,1,4.81-4.48,24.2,24.2,0,0,1,6.62-2.84,23.12,23.12,0,0,1,7.06-.82,17,17,0,0,1,6.35,1.45,14.32,14.32,0,0,1,5.08,3.85,17.8,17.8,0,0,1,3.64,13.54,14.43,14.43,0,0,1-2.48,5.88,16.62,16.62,0,0,1-4.78,4.41A23.85,23.85,0,0,1,123.48,472.39Zm10.66-19.56a12.36,12.36,0,0,0-2.73-5.26,11.56,11.56,0,0,0-4.3-3,14.41,14.41,0,0,0-5.32-1,22.43,22.43,0,0,0-5.81.78,22,22,0,0,0-6,2.53,14.06,14.06,0,0,0-4,3.75,10.94,10.94,0,0,0-1.91,4.73,13.22,13.22,0,0,0,.37,5.47,12,12,0,0,0,2.74,5.2,11.52,11.52,0,0,0,4.35,3,14.57,14.57,0,0,0,5.35.95,23.05,23.05,0,0,0,11.26-3,14.3,14.3,0,0,0,4.13-3.49,11.43,11.43,0,0,0,2.22-4.72A12.67,12.67,0,0,0,134.14,452.83Z" transform="translate(-95.17 -195.12)"/><path d="M131.76,433.84l-34.39,3.41-2.2-22.16,2.77-.27,1.88,18.91,12.42-1.23-1.71-17.2,2.77-.27,1.71,17.2,16.43-1.63Z" transform="translate(-95.17 -195.12)"/><path d="M134.14,365l-28.47-23.83,1.17-3.5,37-1.62-1.06,3.19-11.55.34-5,14.93,9,7.31Zm-10.22-12.42,4.29-12.84-19.36.68Z" transform="translate(-95.17 -195.12)"/><path d="M144.44,334.94,114,318.6l1.55-2.88,13.07,7,9.67-18-13.07-7,1.54-2.87,30.45,16.34-1.54,2.88-14.93-8-9.67,18,14.93,8Z" transform="translate(-95.17 -195.12)"/><path d="M159.81,307.54,132.4,286.49l14-18.23,2.21,1.69-12,15.65,9.9,7.6,10.84-14.12,2.21,1.69L148.7,294.9l10.89,8.36,12.31-16,2.21,1.7Z" transform="translate(-95.17 -195.12)"/><path d="M174.26,288.45,160.43,254l2.69-2.54,33.35,16.05L194,269.81l-10.35-5.16-11.45,10.8,4.48,10.69Zm-3.14-15.78,9.85-9.29-17.37-8.56Z" transform="translate(-95.17 -195.12)"/><path d="M197.55,266.84l-19.17-28.76,9.83-6.55c.8-.53,1.6-1,2.4-1.51a18.28,18.28,0,0,1,2.46-1.24,13.8,13.8,0,0,1,2.61-.79,12,12,0,0,1,2.83-.21,10.46,10.46,0,0,1,4.05,1,17.29,17.29,0,0,1,3.56,2.19,21.33,21.33,0,0,1,3,2.85,29.18,29.18,0,0,1,2.31,3,32,32,0,0,1,1.76,3,22.64,22.64,0,0,1,1.35,3.28,18.61,18.61,0,0,1,.75,3.43,12.68,12.68,0,0,1-.07,3.48,10.81,10.81,0,0,1-1,3.25,14,14,0,0,1-1.77,2.7,17.78,17.78,0,0,1-2.35,2.32,33.08,33.08,0,0,1-2.75,2Zm1.17-4.13,6.51-4.34a29.88,29.88,0,0,0,3.31-2.52,12,12,0,0,0,2.56-3.29,7.81,7.81,0,0,0,1.05-3.53,13,13,0,0,0-.33-3.67,17.65,17.65,0,0,0-1.28-3.56,26,26,0,0,0-1.83-3.22,31.08,31.08,0,0,0-2.32-3.05,15.85,15.85,0,0,0-2.81-2.57,12.47,12.47,0,0,0-3.3-1.66,9.09,9.09,0,0,0-3.82-.37,10.25,10.25,0,0,0-3.62,1.15,38.27,38.27,0,0,0-3.69,2.17l-6.51,4.33Z" transform="translate(-95.17 -195.12)"/><path d="M240.22,223.55a23.71,23.71,0,0,1-.86-7.13,17.07,17.07,0,0,1,1.43-6.38,14.54,14.54,0,0,1,3.8-5.08,15.59,15.59,0,0,1,6.25-3.18,16.66,16.66,0,0,1,7.2-.48,14.41,14.41,0,0,1,5.93,2.42,17.07,17.07,0,0,1,4.48,4.8,24.24,24.24,0,0,1,2.86,6.62,23.4,23.4,0,0,1,.84,7.05,17,17,0,0,1-1.44,6.36,14.44,14.44,0,0,1-3.84,5.09,17.78,17.78,0,0,1-13.53,3.66,14.38,14.38,0,0,1-5.89-2.46,16.74,16.74,0,0,1-4.42-4.77A23.8,23.8,0,0,1,240.22,223.55Zm19.58,10.61a12.16,12.16,0,0,0,5.25-2.74,11.42,11.42,0,0,0,3-4.3,14.47,14.47,0,0,0,.95-5.33,22.83,22.83,0,0,0-.8-5.8,21.69,21.69,0,0,0-2.55-6,14,14,0,0,0-3.75-4,10.91,10.91,0,0,0-4.74-1.9,13.17,13.17,0,0,0-5.46.38,12,12,0,0,0-5.2,2.75,11.65,11.65,0,0,0-3,4.35,14.7,14.7,0,0,0-.94,5.36,22.45,22.45,0,0,0,.8,5.8,22.17,22.17,0,0,0,2.25,5.45,14.32,14.32,0,0,0,3.5,4.13,11.28,11.28,0,0,0,4.72,2.2A12.56,12.56,0,0,0,259.8,234.16Z" transform="translate(-95.17 -195.12)"/><path d="M278.79,231.75l-3.48-34.39,22.16-2.24.28,2.77-18.92,1.91,1.26,12.42,17.19-1.74.28,2.77L280.37,215,282,231.42Z" transform="translate(-95.17 -195.12)"/></svg>