<svg id="Layer_1" data-name="Layer 1" xmlns="http://www.w3.org/2000/svg" viewBox="0 0 422.76 419.5"><title>behind-time</title><path d="M331.34,231.16l7.15-33.81,12.21,2.57a18.73,18.73,0,0,1,4.94,1.69,9.39,9.39,0,0,1,3.08,2.46,6.65,6.65,0,0,1,1.38,3.12,9.47,9.47,0,0,1-.12,3.58,9.21,9.21,0,0,1-1.11,3,7.2,7.2,0,0,1-1.68,1.91,6.06,6.06,0,0,1-2,1,7.16,7.16,0,0,1-2.14.25l0,.1a7.82,7.82,0,0,1,4.65,3.88,9.23,9.23,0,0,1,.52,6,11.12,11.12,0,0,1-1.76,4.29,7.78,7.78,0,0,1-2.9,2.48,9.27,9.27,0,0,1-3.84.88,19.78,19.78,0,0,1-4.55-.44Zm3.77-2,8.13,1.72a39.83,39.83,0,0,0,4.63.73,8.77,8.77,0,0,0,3.42-.28,4.78,4.78,0,0,0,2.34-1.67A8.53,8.53,0,0,0,355,226.2a7.18,7.18,0,0,0,0-3.55,5,5,0,0,0-1.59-2.43,9.72,9.72,0,0,0-2.95-1.62,30.32,30.32,0,0,0-4-1.13l-8.5-1.79ZM338.53,213l8.07,1.7a17.67,17.67,0,0,0,4.27.46,7.25,7.25,0,0,0,3-.67,4.63,4.63,0,0,0,1.9-1.71,7.93,7.93,0,0,0,1-2.65,6.39,6.39,0,0,0,0-2.81,4.13,4.13,0,0,0-1.26-2.13,8.75,8.75,0,0,0-2.73-1.61,28.71,28.71,0,0,0-4.37-1.24l-7.38-1.56Z" transform="translate(-95.16 -196.76)"/><path d="M359.18,237.48l12.27-32.3,21.49,8.16L392,216l-18.45-7-4.43,11.67,16.65,6.32-1,2.6-16.65-6.32L363.22,236l18.89,7.18-1,2.6Z" transform="translate(-95.16 -196.76)"/><path d="M382.87,246.58l17.25-29.94,2.83,1.63-7.4,12.85,17.71,10.21,7.41-12.86,2.83,1.63-17.25,30-2.83-1.63,8.46-14.68-17.72-10.21-8.46,14.68Z" transform="translate(-95.16 -196.76)"/><path d="M410.36,263.57,431,235.82l2.62,1.94L413,265.51Z" transform="translate(-95.16 -196.76)"/><path d="M440.61,248.75l-.07-.07-20.63,22-2.38-2.24,23.66-25.19,2.69,2.53-6.11,35.68.07.06,20.67-22,2.38,2.23-23.66,25.2-2.76-2.6Z" transform="translate(-95.16 -196.76)"/><path d="M440.14,290.18l27.7-20.67L474.9,279c.57.77,1.12,1.54,1.64,2.31a19.56,19.56,0,0,1,1.36,2.39,13.16,13.16,0,0,1,.93,2.57,12.3,12.3,0,0,1,.37,2.82,10.56,10.56,0,0,1-.75,4.09,17.86,17.86,0,0,1-2,3.67,22.52,22.52,0,0,1-2.68,3.15,31.29,31.29,0,0,1-2.86,2.46,29.72,29.72,0,0,1-2.94,1.92,23.54,23.54,0,0,1-3.21,1.53,18.12,18.12,0,0,1-3.37.93,12.67,12.67,0,0,1-3.48.11,10.52,10.52,0,0,1-3.3-.81,13.7,13.7,0,0,1-2.8-1.62,17.55,17.55,0,0,1-2.44-2.22c-.76-.84-1.48-1.71-2.17-2.64Zm4.18.95L449,297.4a30,30,0,0,0,2.7,3.17,11.85,11.85,0,0,0,3.42,2.39,7.83,7.83,0,0,0,3.58.86,12.82,12.82,0,0,0,3.64-.53,16.81,16.81,0,0,0,3.49-1.47,26.5,26.5,0,0,0,3.12-2,30.33,30.33,0,0,0,2.92-2.47,15.64,15.64,0,0,0,2.42-2.94,12.48,12.48,0,0,0,1.48-3.39,9.06,9.06,0,0,0,.17-3.83,10.37,10.37,0,0,0-1.34-3.56,37.18,37.18,0,0,0-2.36-3.56l-4.68-6.28Z" transform="translate(-95.16 -196.76)"/><path d="M470.68,340.05l32.85-10.74,3.88,11.87a19,19,0,0,1,1,5.12,9.42,9.42,0,0,1-.6,3.9,6.61,6.61,0,0,1-2,2.75,9.58,9.58,0,0,1-3.16,1.69,9.19,9.19,0,0,1-3.14.52,6.85,6.85,0,0,1-2.49-.5,5.69,5.69,0,0,1-1.86-1.23,7.15,7.15,0,0,1-1.3-1.72l-.09,0a7.77,7.77,0,0,1-1,6,9.27,9.27,0,0,1-4.93,3.46,11.32,11.32,0,0,1-4.6.62,7.7,7.7,0,0,1-3.59-1.28,9.23,9.23,0,0,1-2.69-2.88,19.65,19.65,0,0,1-1.89-4.16Zm3.66,2.24,2.58,7.89a41.36,41.36,0,0,0,1.68,4.37,8.59,8.59,0,0,0,2,2.82,4.62,4.62,0,0,0,2.61,1.19,8.61,8.61,0,0,0,3.65-.5,7.28,7.28,0,0,0,3.08-1.77,5,5,0,0,0,1.3-2.6,9.56,9.56,0,0,0-.06-3.36,29.66,29.66,0,0,0-1.05-4.05l-2.7-8.26Zm15.7-5.13L492.6,345a18,18,0,0,0,1.74,3.92,7.12,7.12,0,0,0,2.07,2.25,4.69,4.69,0,0,0,2.43.8,8.17,8.17,0,0,0,2.82-.44,6.43,6.43,0,0,0,2.45-1.36,4.23,4.23,0,0,0,1.22-2.16,8.55,8.55,0,0,0,0-3.17,27.24,27.24,0,0,0-1.11-4.41l-2.34-7.16Z" transform="translate(-95.16 -196.76)"/><path d="M479.13,367.32l34.11-5.54,3.68,22.7-2.74.45L511,365.45l-12.32,2L501.55,385l-2.75.45L496,367.9l-13.55,2.2L485.64,390l-2.75.45Z" transform="translate(-95.16 -196.76)"/><path d="M482.92,392.3l34.56-.56,0,3.26-14.83.24.33,20.45,14.83-.24.06,3.26-34.56.56-.05-3.26,16.94-.28-.33-20.45-16.94.28Z" transform="translate(-95.16 -196.76)"/><path d="M482.22,424.7l34.35,3.84-.37,3.25L481.86,428Z" transform="translate(-95.16 -196.76)"/><path d="M510.25,443.41l0-.1L480.9,436.5l.74-3.17,33.67,7.8-.84,3.6-33.92,12.63,0,.1,29.41,6.82-.74,3.18-33.66-7.81.85-3.69Z" transform="translate(-95.16 -196.76)"/><path d="M474.16,463.82l31.75,13.65-4.66,10.85c-.38.88-.78,1.73-1.19,2.57a18.74,18.74,0,0,1-1.39,2.38,13.44,13.44,0,0,1-1.76,2.09,12.61,12.61,0,0,1-2.25,1.72,10.49,10.49,0,0,1-3.92,1.4,17.73,17.73,0,0,1-4.18.11,22,22,0,0,1-4.06-.76,29.57,29.57,0,0,1-3.57-1.24A30.6,30.6,0,0,1,475.8,495a22,22,0,0,1-2.92-2,18.1,18.1,0,0,1-2.5-2.45,12.75,12.75,0,0,1-1.84-3,11,11,0,0,1-1-3.26,14,14,0,0,1,0-3.24,17.71,17.71,0,0,1,.71-3.22,33.53,33.53,0,0,1,1.19-3.2Zm1.27,4.09-3.09,7.19a31,31,0,0,0-1.4,3.92,12.19,12.19,0,0,0-.35,4.16,7.89,7.89,0,0,0,1,3.53,13,13,0,0,0,2.29,2.89,17.56,17.56,0,0,0,3,2.29,28.66,28.66,0,0,0,3.29,1.7,33.25,33.25,0,0,0,3.6,1.29,16,16,0,0,0,3.76.62,12.25,12.25,0,0,0,3.67-.41,9.22,9.22,0,0,0,3.41-1.77,10.44,10.44,0,0,0,2.41-2.94,38,38,0,0,0,1.91-3.83l3.09-7.18Z" transform="translate(-95.16 -196.76)"/><path d="M446.24,515.19,472,538.25l-8.32,9.3a18.84,18.84,0,0,1-3.92,3.44,9.56,9.56,0,0,1-3.68,1.45,6.93,6.93,0,0,1-3.39-.36,9.85,9.85,0,0,1-3-1.89,9,9,0,0,1-2-2.46,7,7,0,0,1-.82-2.4,5.93,5.93,0,0,1,.14-2.23,7,7,0,0,1,.84-2l-.07-.06a7.85,7.85,0,0,1-5.68,2.1,9.23,9.23,0,0,1-5.46-2.54,11.05,11.05,0,0,1-2.84-3.67,7.71,7.71,0,0,1-.7-3.75,9.32,9.32,0,0,1,1.15-3.77,19.15,19.15,0,0,1,2.65-3.71Zm-.11,4.29-5.54,6.19a39.89,39.89,0,0,0-2.94,3.65,8.63,8.63,0,0,0-1.46,3.1,4.69,4.69,0,0,0,.28,2.86,8.47,8.47,0,0,0,2.26,2.9,7.19,7.19,0,0,0,3.08,1.78,5,5,0,0,0,2.89-.17,9.63,9.63,0,0,0,2.88-1.74,28.2,28.2,0,0,0,3-2.94l5.8-6.47Zm12.3,11-5.5,6.15a17.74,17.74,0,0,0-2.53,3.47,7.1,7.1,0,0,0-.91,2.92,4.65,4.65,0,0,0,.53,2.5,7.85,7.85,0,0,0,1.79,2.22,6.59,6.59,0,0,0,2.4,1.45,4.28,4.28,0,0,0,2.48,0,8.52,8.52,0,0,0,2.76-1.56,29.26,29.26,0,0,0,3.26-3.17l5-5.62Z" transform="translate(-95.16 -196.76)"/><path d="M426.87,536.17l21.93,26.71L431,577.47l-1.76-2.15,15.24-12.52-7.92-9.64-13.76,11.3-1.77-2.15L434.83,551l-8.72-10.61L410.5,553.22l-1.77-2.15Z" transform="translate(-95.16 -196.76)"/><path d="M407.18,552.23l17.44,29.83-2.81,1.65-7.49-12.81-17.65,10.32L404.15,594l-2.81,1.65-17.45-29.84,2.82-1.65,8.55,14.63,17.66-10.32-8.56-14.63Z" transform="translate(-95.16 -196.76)"/><path d="M378.81,567.66l13.86,31.66-3,1.3L375.82,569Z" transform="translate(-95.16 -196.76)"/><path d="M376.64,601.28l.09,0-8.79-28.84,3.12-.95,10.08,33.06-3.54,1.08-27.9-23.06-.09,0,8.8,28.88-3.12.95-10.08-33.06,3.63-1.1Z" transform="translate(-95.16 -196.76)"/><path d="M340.92,580.24,345,614.56,333.27,616c-.95.12-1.89.2-2.82.27a21.17,21.17,0,0,1-2.76,0,13.67,13.67,0,0,1-2.69-.48,13,13,0,0,1-2.62-1.09,10.43,10.43,0,0,1-3.17-2.7,17.84,17.84,0,0,1-2.19-3.56,22.8,22.8,0,0,1-1.38-3.89,29.43,29.43,0,0,1-.7-3.71,27.13,27.13,0,0,1-.2-3.51,23.25,23.25,0,0,1,.28-3.54,18,18,0,0,1,.88-3.39,12.61,12.61,0,0,1,1.64-3.07,10.74,10.74,0,0,1,2.34-2.45,13.54,13.54,0,0,1,2.81-1.61,17.72,17.72,0,0,1,3.14-1c1.1-.24,2.22-.43,3.37-.57ZM338,583.39l-7.77.92a31.35,31.35,0,0,0-4.09.76,12,12,0,0,0-3.78,1.77,7.89,7.89,0,0,0-2.54,2.67,13,13,0,0,0-1.35,3.43,17.82,17.82,0,0,0-.48,3.75,27.63,27.63,0,0,0,.18,3.7,30.13,30.13,0,0,0,.69,3.76,15.28,15.28,0,0,0,1.34,3.57,12.08,12.08,0,0,0,2.19,3,9.13,9.13,0,0,0,3.24,2.06,10.1,10.1,0,0,0,3.75.62,38.55,38.55,0,0,0,4.27-.27l7.77-.92Z" transform="translate(-95.16 -196.76)"/><path d="M282.46,581.86l-7,33.85-12.22-2.53a18.72,18.72,0,0,1-4.95-1.66,9.48,9.48,0,0,1-3.1-2.46,6.8,6.8,0,0,1-1.39-3.1,9.86,9.86,0,0,1,.1-3.58,9.27,9.27,0,0,1,1.11-3,6.85,6.85,0,0,1,1.67-1.91,5.64,5.64,0,0,1,2-1,7.11,7.11,0,0,1,2.14-.27l0-.09a7.84,7.84,0,0,1-4.67-3.86,9.25,9.25,0,0,1-.55-6,11.09,11.09,0,0,1,1.74-4.29,7.8,7.8,0,0,1,2.9-2.49,9.35,9.35,0,0,1,3.83-.9,19.23,19.23,0,0,1,4.55.42Zm-7.11,18.24-8.08-1.67A17.61,17.61,0,0,0,263,598a7.24,7.24,0,0,0-3,.69,4.6,4.6,0,0,0-1.89,1.71,7.77,7.77,0,0,0-1,2.66,6.52,6.52,0,0,0,0,2.81,4.18,4.18,0,0,0,1.27,2.12,8.5,8.5,0,0,0,2.74,1.6,27.64,27.64,0,0,0,4.38,1.22l7.38,1.53Zm3.35-16.17-8.13-1.68a40.06,40.06,0,0,0-4.64-.72,8.74,8.74,0,0,0-3.42.3,4.71,4.71,0,0,0-2.33,1.68,8.68,8.68,0,0,0-1.37,3.41,7.19,7.19,0,0,0,0,3.56,4.92,4.92,0,0,0,1.6,2.41,9.84,9.84,0,0,0,2.95,1.62,31.12,31.12,0,0,0,4,1.1l8.51,1.76Z" transform="translate(-95.16 -196.76)"/><path d="M254.59,575.65,242.45,608l-21.53-8.08,1-2.61,18.47,6.93,4.38-11.68-16.67-6.26,1-2.6L245.73,590l4.82-12.85L231.63,570l1-2.61Z" transform="translate(-95.16 -196.76)"/><path d="M230.86,566.65l-17.12,30-2.84-1.62,7.35-12.88L200.49,572l-7.35,12.88-2.83-1.62,17.12-30,2.84,1.61-8.4,14.72,17.76,10.13L228,565Z" transform="translate(-95.16 -196.76)"/><path d="M203.3,549.78l-20.48,27.84-2.63-1.94,20.48-27.84Z" transform="translate(-95.16 -196.76)"/><path d="M173.11,564.72l.07.07,20.54-22.06,2.39,2.23-23.55,25.29-2.71-2.52,6-35.71-.07-.06-20.58,22.09-2.39-2.22,23.55-25.29,2.78,2.58Z" transform="translate(-95.16 -196.76)"/><path d="M173.41,523.29,145.8,544.07l-7.1-9.43q-.87-1.15-1.65-2.31a18.4,18.4,0,0,1-1.37-2.39,12.87,12.87,0,0,1-.94-2.56,12.22,12.22,0,0,1-.38-2.82,10.55,10.55,0,0,1,.73-4.09,17.86,17.86,0,0,1,2-3.68,21.37,21.37,0,0,1,2.67-3.15,30.17,30.17,0,0,1,2.86-2.48,29.16,29.16,0,0,1,2.93-1.94,24.54,24.54,0,0,1,3.19-1.53,17.74,17.74,0,0,1,3.38-.95,12.67,12.67,0,0,1,3.48-.12,10.64,10.64,0,0,1,3.3.79,13.21,13.21,0,0,1,2.8,1.61,18.19,18.19,0,0,1,2.45,2.21c.76.83,1.49,1.71,2.18,2.63Zm-4.18-.93-4.71-6.25a29.92,29.92,0,0,0-2.71-3.16,12,12,0,0,0-3.43-2.37,7.76,7.76,0,0,0-3.58-.85,13,13,0,0,0-3.65.55,17.53,17.53,0,0,0-3.48,1.47,25.63,25.63,0,0,0-3.11,2,31.86,31.86,0,0,0-2.91,2.48,15.51,15.51,0,0,0-2.4,3,12.08,12.08,0,0,0-1.47,3.4,9.07,9.07,0,0,0-.15,3.83A10.08,10.08,0,0,0,139,530a37.39,37.39,0,0,0,2.38,3.56l4.7,6.25Z" transform="translate(-95.16 -196.76)"/><path d="M142.66,473.55l-32.8,10.87-3.93-11.85a19.06,19.06,0,0,1-1-5.12,9.63,9.63,0,0,1,.58-3.9,6.77,6.77,0,0,1,2-2.76,9.89,9.89,0,0,1,3.16-1.71,9.42,9.42,0,0,1,3.13-.53,7,7,0,0,1,2.49.49,5.74,5.74,0,0,1,1.87,1.23,7.46,7.46,0,0,1,1.31,1.72l.09,0a7.84,7.84,0,0,1,1-6,9.21,9.21,0,0,1,4.92-3.47,11.14,11.14,0,0,1,4.59-.64,7.76,7.76,0,0,1,3.6,1.26,9.33,9.33,0,0,1,2.7,2.87,19.59,19.59,0,0,1,1.91,4.15Zm-19.34,3-2.6-7.84a17.73,17.73,0,0,0-1.75-3.92,7.33,7.33,0,0,0-2.08-2.24,4.8,4.8,0,0,0-2.44-.79,8.14,8.14,0,0,0-2.81.45,6.58,6.58,0,0,0-2.45,1.37,4.23,4.23,0,0,0-1.2,2.17,8.55,8.55,0,0,0,0,3.17,28.3,28.3,0,0,0,1.13,4.4l2.37,7.15ZM139,471.33l-2.61-7.89a38.8,38.8,0,0,0-1.7-4.36,8.81,8.81,0,0,0-2-2.82,4.81,4.81,0,0,0-2.62-1.18,8.47,8.47,0,0,0-3.64.53,7.12,7.12,0,0,0-3.08,1.78,4.9,4.9,0,0,0-1.29,2.6,9.6,9.6,0,0,0,.08,3.36,29.8,29.8,0,0,0,1.06,4l2.73,8.24Z" transform="translate(-95.16 -196.76)"/><path d="M134.1,446.31,100,452l-3.77-22.68,2.74-.46,3.24,19.46,12.31-2.05-2.92-17.57,2.74-.45,2.93,17.56,13.54-2.25-3.32-19.94,2.75-.45Z" transform="translate(-95.16 -196.76)"/><path d="M130.15,421.34l-34.55.56-.06-3.27,14.83-.24L110,398l-14.83.24,0-3.26,34.55-.56.06,3.26-16.94.27.33,20.45,16.94-.28Z" transform="translate(-95.16 -196.76)"/><path d="M130.78,389l-34.36-3.7.35-3.25,34.36,3.7Z" transform="translate(-95.16 -196.76)"/><path d="M102.68,370.34l0,.1,29.39,6.69-.73,3.18-33.7-7.67.83-3.6,33.87-12.77,0-.1-29.44-6.7.72-3.18,33.7,7.67-.84,3.7Z" transform="translate(-95.16 -196.76)"/><path d="M138.67,349.81l-31.81-13.52,4.62-10.87c.37-.88.77-1.74,1.17-2.58a20,20,0,0,1,1.38-2.38,13.54,13.54,0,0,1,1.75-2.1,12.66,12.66,0,0,1,2.25-1.73,10.46,10.46,0,0,1,3.92-1.42,17.65,17.65,0,0,1,4.17-.12,22.1,22.1,0,0,1,4.07.73,27.65,27.65,0,0,1,6.71,2.8,24.8,24.8,0,0,1,2.93,2,18.18,18.18,0,0,1,2.51,2.45,13.07,13.07,0,0,1,1.85,2.95,10.62,10.62,0,0,1,1,3.26,14,14,0,0,1,0,3.23,17.78,17.78,0,0,1-.7,3.23,33.34,33.34,0,0,1-1.17,3.2Zm-1.29-4.1,3.06-7.2a29.31,29.31,0,0,0,1.38-3.92,12,12,0,0,0,.34-4.16,7.78,7.78,0,0,0-1.06-3.53,13,13,0,0,0-2.3-2.88,17.16,17.16,0,0,0-3-2.27,25.79,25.79,0,0,0-3.3-1.69,31.19,31.19,0,0,0-3.6-1.27,15.45,15.45,0,0,0-3.76-.61,12.55,12.55,0,0,0-3.67.42,9.24,9.24,0,0,0-3.4,1.79,10.17,10.17,0,0,0-2.4,2.95,36.8,36.8,0,0,0-1.89,3.83l-3.06,7.2Z" transform="translate(-95.16 -196.76)"/><path d="M166.37,298.33l-25.85-22.94,8.29-9.34a19,19,0,0,1,3.9-3.46,9.49,9.49,0,0,1,3.67-1.46,6.81,6.81,0,0,1,3.39.34,9.56,9.56,0,0,1,3,1.88,9.41,9.41,0,0,1,2,2.44,7.13,7.13,0,0,1,.82,2.4,6,6,0,0,1-.12,2.24,7.63,7.63,0,0,1-.84,2l.07.06a7.81,7.81,0,0,1,5.68-2.12,9.22,9.22,0,0,1,5.47,2.51,11.07,11.07,0,0,1,2.85,3.66,7.79,7.79,0,0,1,.72,3.74,9.5,9.5,0,0,1-1.14,3.78,19.75,19.75,0,0,1-2.63,3.73ZM154.1,283.08l5.48-6.18a17.39,17.39,0,0,0,2.52-3.48,7.09,7.09,0,0,0,.89-2.92,4.64,4.64,0,0,0-.54-2.5,7.81,7.81,0,0,0-1.79-2.21,6.62,6.62,0,0,0-2.42-1.44,4.21,4.21,0,0,0-2.48,0A8.5,8.5,0,0,0,153,266a28,28,0,0,0-3.25,3.19l-5,5.63Zm12.35,11,5.51-6.21a39.28,39.28,0,0,0,2.93-3.66,8.71,8.71,0,0,0,1.45-3.11,4.69,4.69,0,0,0-.29-2.86,8.54,8.54,0,0,0-2.28-2.89,7.37,7.37,0,0,0-3.08-1.77,5,5,0,0,0-2.9.19,9.76,9.76,0,0,0-2.87,1.75,30.41,30.41,0,0,0-3,2.95l-5.76,6.5Z" transform="translate(-95.16 -196.76)"/><path d="M185.67,277.24l-22-26.61L181.33,236l1.78,2.15-15.2,12.58,8,9.61,13.72-11.36,1.78,2.15-13.72,11.35L186.41,273,202,260.13l1.78,2.14Z" transform="translate(-95.16 -196.76)"/><path d="M205.26,261.13l-17.57-29.76,2.81-1.66L198,242.48l17.61-10.39-7.55-12.77,2.81-1.66,17.58,29.76-2.81,1.66-8.62-14.59-17.61,10.39,8.62,14.59Z" transform="translate(-95.16 -196.76)"/><path d="M233.59,245.57l-14-31.6,3-1.32,14,31.59Z" transform="translate(-95.16 -196.76)"/><path d="M235.61,211.94l-.09,0,8.91,28.8-3.12,1-10.22-33,3.53-1.09,28,22.93.09,0-8.93-28.85,3.12-1,10.22,33-3.62,1.12Z" transform="translate(-95.16 -196.76)"/><path d="M271.41,232.82l-4.22-34.3,11.72-1.44q1.43-.18,2.82-.27a18.16,18.16,0,0,1,2.76,0,13.64,13.64,0,0,1,2.69.46,12.72,12.72,0,0,1,2.62,1.08A10.59,10.59,0,0,1,293,201a18.1,18.1,0,0,1,2.2,3.55,23.19,23.19,0,0,1,1.4,3.89,29.7,29.7,0,0,1,.72,3.71,28.73,28.73,0,0,1,.21,3.5,24.38,24.38,0,0,1-.26,3.54,17.86,17.86,0,0,1-.87,3.4,12.82,12.82,0,0,1-1.63,3.08,10.75,10.75,0,0,1-2.33,2.46,13.25,13.25,0,0,1-2.8,1.62,17.74,17.74,0,0,1-3.14,1,33.66,33.66,0,0,1-3.36.58Zm2.9-3.16,7.77-.95a31.15,31.15,0,0,0,4.08-.77,11.71,11.71,0,0,0,3.77-1.8,7.71,7.71,0,0,0,2.53-2.68A12.88,12.88,0,0,0,293.8,220a17.18,17.18,0,0,0,.46-3.75,27.59,27.59,0,0,0-.19-3.7,30.25,30.25,0,0,0-.71-3.76,15.68,15.68,0,0,0-1.35-3.56,12.35,12.35,0,0,0-2.21-3,9.23,9.23,0,0,0-3.24-2,10.39,10.39,0,0,0-3.75-.6,38.42,38.42,0,0,0-4.27.28l-7.77,1Z" transform="translate(-95.16 -196.76)"/></svg>