<svg id="Layer_1" data-name="Layer 1" xmlns="http://www.w3.org/2000/svg" viewBox="0 0 422.21 421"><title>biding-time</title><path d="M344.42,233.5l9.68-33.18,12,3.49a19,19,0,0,1,4.8,2.05,9.46,9.46,0,0,1,2.89,2.7,6.76,6.76,0,0,1,1.14,3.2,9.59,9.59,0,0,1-.39,3.56,9.12,9.12,0,0,1-1.34,2.89,7.19,7.19,0,0,1-1.81,1.77,5.74,5.74,0,0,1-2.08.84,7.08,7.08,0,0,1-2.15.1l0,.09a7.81,7.81,0,0,1,4.35,4.22,9.28,9.28,0,0,1,.07,6,11.16,11.16,0,0,1-2.08,4.14,7.77,7.77,0,0,1-3.08,2.26,9.47,9.47,0,0,1-3.9.58,18.83,18.83,0,0,1-4.5-.78Zm3.92-1.76,8,2.32a38.36,38.36,0,0,0,4.56,1.08,8.71,8.71,0,0,0,3.43,0,4.75,4.75,0,0,0,2.46-1.48,8.75,8.75,0,0,0,1.64-3.3,7.34,7.34,0,0,0,.28-3.54,5.06,5.06,0,0,0-1.41-2.54,9.73,9.73,0,0,0-2.81-1.85,31.2,31.2,0,0,0-3.94-1.42l-8.34-2.43ZM353,215.89l7.93,2.31a18.26,18.26,0,0,0,4.22.78,7.4,7.4,0,0,0,3-.44,4.69,4.69,0,0,0,2-1.56,8.18,8.18,0,0,0,1.22-2.57,6.69,6.69,0,0,0,.27-2.8,4.19,4.19,0,0,0-1.11-2.22,8.59,8.59,0,0,0-2.59-1.81,28.52,28.52,0,0,0-4.27-1.56l-7.24-2.11Z" transform="translate(-95.44 -196.01)"/><path d="M372.5,242.58l13.21-31.94,3,1.25-13.21,31.93Z" transform="translate(-95.44 -196.01)"/><path d="M380.67,245.56l16.83-30.19,10.32,5.75c.83.47,1.65.95,2.43,1.44a20.24,20.24,0,0,1,2.23,1.63,13.55,13.55,0,0,1,1.9,2,12.72,12.72,0,0,1,1.48,2.42,10.58,10.58,0,0,1,1,4.05,17.58,17.58,0,0,1-.32,4.16,22.36,22.36,0,0,1-1.16,4,30.51,30.51,0,0,1-1.61,3.42,29.36,29.36,0,0,1-1.89,3,22.13,22.13,0,0,1-2.3,2.7,18.38,18.38,0,0,1-2.7,2.23,12.87,12.87,0,0,1-3.14,1.53,10.77,10.77,0,0,1-3.33.61,13.35,13.35,0,0,1-3.22-.34,17.73,17.73,0,0,1-3.14-1c-1-.45-2.05-.95-3.05-1.51Zm4.21-.85,6.83,3.81a31.11,31.11,0,0,0,3.76,1.8,12.21,12.21,0,0,0,4.1.77,7.9,7.9,0,0,0,3.62-.67,13.22,13.22,0,0,0,3.11-2,17.86,17.86,0,0,0,2.58-2.76,28.3,28.3,0,0,0,2-3.1,30.49,30.49,0,0,0,1.65-3.45,15.37,15.37,0,0,0,1-3.68,12.33,12.33,0,0,0,0-3.69,9.2,9.2,0,0,0-1.42-3.57,10.33,10.33,0,0,0-2.67-2.7,39.52,39.52,0,0,0-3.62-2.29L399,219.39Z" transform="translate(-95.44 -196.01)"/><path d="M408.28,262.08l20.2-28,2.64,1.91L410.93,264Z" transform="translate(-95.44 -196.01)"/><path d="M438.33,246.83l-.08-.07L417.94,269l-2.41-2.2,23.29-25.53,2.73,2.49L436,279.55l.07.07,20.35-22.31,2.41,2.2L435.49,285l-2.8-2.55Z" transform="translate(-95.44 -196.01)"/><path d="M459.37,290.76l2.21-1.69,8.93,11.79-14.23,10.78-1.68-2.22,4.7-3.56a17.08,17.08,0,0,1-3.5,0,11.71,11.71,0,0,1-3.36-.86,13.19,13.19,0,0,1-3.23-2,19.58,19.58,0,0,1-3.14-3.34,15.83,15.83,0,0,1-2.73-5.52,12.92,12.92,0,0,1-.16-5.9,16.07,16.07,0,0,1,2.67-6,26.07,26.07,0,0,1,5.75-5.76,24.9,24.9,0,0,1,6.22-3.51,15.87,15.87,0,0,1,6.34-1.1,13.79,13.79,0,0,1,6,1.68,16.57,16.57,0,0,1,5.39,4.8,18.76,18.76,0,0,1,2.55,4.48,13.35,13.35,0,0,1,1,4.64,12,12,0,0,1-.79,4.6,14.27,14.27,0,0,1-2.71,4.41l-2-2.68a10.1,10.1,0,0,0,1.87-3.26,10,10,0,0,0,.56-3.52,11.49,11.49,0,0,0-.68-3.52,12.54,12.54,0,0,0-1.8-3.28,13.12,13.12,0,0,0-4.49-3.94,10.67,10.67,0,0,0-5.13-1.17,14.86,14.86,0,0,0-5.58,1.3,28.07,28.07,0,0,0-5.78,3.45,17.69,17.69,0,0,0-3.86,4,13.7,13.7,0,0,0-2.15,4.71,11.56,11.56,0,0,0,2.17,9.94,13.54,13.54,0,0,0,2,2.11,10.83,10.83,0,0,0,9.12,2.55,12.66,12.66,0,0,0,3.4-1.16,25.25,25.25,0,0,0,3.2-2Z" transform="translate(-95.44 -196.01)"/><path d="M475.2,352.54l33.57-8.22,3,12.12a18.92,18.92,0,0,1,.63,5.18,9.58,9.58,0,0,1-.88,3.85,6.82,6.82,0,0,1-2.21,2.6,9.77,9.77,0,0,1-3.28,1.44,9.24,9.24,0,0,1-3.17.28,6.9,6.9,0,0,1-2.44-.69,5.61,5.61,0,0,1-1.77-1.37,7.24,7.24,0,0,1-1.16-1.81l-.09,0a7.81,7.81,0,0,1-1.48,5.87,9.25,9.25,0,0,1-5.18,3.08,11.15,11.15,0,0,1-4.63.26,7.7,7.7,0,0,1-3.49-1.54,9.41,9.41,0,0,1-2.46-3.08,19.79,19.79,0,0,1-1.57-4.28Zm3.48,2.51,2,8.06A40.66,40.66,0,0,0,482,367.6a8.61,8.61,0,0,0,1.74,3,4.71,4.71,0,0,0,2.51,1.39,8.6,8.6,0,0,0,3.68-.24,7.3,7.3,0,0,0,3.2-1.52,4.92,4.92,0,0,0,1.49-2.49,9.61,9.61,0,0,0,.2-3.36,31.71,31.71,0,0,0-.74-4.12L492,351.78Zm16-3.93,2,8a17.44,17.44,0,0,0,1.44,4.05,7.2,7.2,0,0,0,1.89,2.4,4.77,4.77,0,0,0,2.37,1,8,8,0,0,0,2.83-.23,6.53,6.53,0,0,0,2.56-1.17,4.18,4.18,0,0,0,1.37-2.06,8.57,8.57,0,0,0,.27-3.16,27.48,27.48,0,0,0-.78-4.48l-1.79-7.32Z" transform="translate(-95.44 -196.01)"/><path d="M481.38,381.38l34.26-4.54.43,3.23-34.26,4.55Z" transform="translate(-95.44 -196.01)"/><path d="M482.89,389.94l34.55-.59.2,11.8c0,1,0,1.91,0,2.84a19.29,19.29,0,0,1-.29,2.74,13.78,13.78,0,0,1-.75,2.63,11.66,11.66,0,0,1-1.35,2.49,10.45,10.45,0,0,1-3,2.89,17.6,17.6,0,0,1-3.76,1.81,21.92,21.92,0,0,1-4,1,28,28,0,0,1-7.27.18,23.85,23.85,0,0,1-3.49-.64,17.76,17.76,0,0,1-3.29-1.22,12.4,12.4,0,0,1-2.89-1.94,10.42,10.42,0,0,1-2.2-2.58,14,14,0,0,1-1.33-2.95,18.89,18.89,0,0,1-.68-3.23c-.13-1.12-.2-2.25-.22-3.4Zm2.84,3.21.13,7.83a31.29,31.29,0,0,0,.33,4.14,12,12,0,0,0,1.39,3.94,7.93,7.93,0,0,0,2.4,2.79,13,13,0,0,0,3.27,1.7,18,18,0,0,0,3.69.85,27.77,27.77,0,0,0,3.7.2,31.2,31.2,0,0,0,3.81-.31,15.45,15.45,0,0,0,3.68-1,12.41,12.41,0,0,0,3.18-1.88,9.1,9.1,0,0,0,2.38-3,10.34,10.34,0,0,0,1-3.66,38,38,0,0,0,.17-4.28l-.14-7.82Z" transform="translate(-95.44 -196.01)"/><path d="M482.46,422.16l34.4,3.35-.32,3.25-34.39-3.35Z" transform="translate(-95.44 -196.01)"/><path d="M510.75,440.47l0-.09L481.31,434l.69-3.19,33.78,7.32-.78,3.61-33.74,13.12,0,.09,29.51,6.4-.69,3.19-33.78-7.32.8-3.71Z" transform="translate(-95.44 -196.01)"/><path d="M483.29,480.74l2.56,1.08-5.74,13.62-16.45-6.93,1.08-2.57,5.44,2.29a16.42,16.42,0,0,1-1.78-3,11.42,11.42,0,0,1-.93-3.34,13.27,13.27,0,0,1,.11-3.8,19.69,19.69,0,0,1,1.33-4.39,15.66,15.66,0,0,1,3.41-5.13,13,13,0,0,1,5-3.09,16,16,0,0,1,6.5-.67,26,26,0,0,1,7.87,2.09,25,25,0,0,1,6.16,3.64,15.81,15.81,0,0,1,4.11,4.93,13.89,13.89,0,0,1,1.58,6.08,16.76,16.76,0,0,1-1.46,7.07,18.82,18.82,0,0,1-2.61,4.45,13.54,13.54,0,0,1-3.54,3.15,12.09,12.09,0,0,1-4.38,1.61,14.42,14.42,0,0,1-5.17-.14l1.31-3.1a10.05,10.05,0,0,0,3.75,0,9.82,9.82,0,0,0,3.33-1.28,11.11,11.11,0,0,0,2.7-2.35,12.46,12.46,0,0,0,1.95-3.19,13.26,13.26,0,0,0,1.17-5.86,10.84,10.84,0,0,0-1.56-5,14.8,14.8,0,0,0-3.92-4.18,28.31,28.31,0,0,0-5.88-3.28,17.38,17.38,0,0,0-5.37-1.35,13.76,13.76,0,0,0-5.15.48,11.57,11.57,0,0,0-7.52,6.86,13.76,13.76,0,0,0-.83,2.77,11.16,11.16,0,0,0-.17,3.06,10.87,10.87,0,0,0,.72,3.11,10.68,10.68,0,0,0,1.81,3,12.38,12.38,0,0,0,2.7,2.36,25.22,25.22,0,0,0,3.31,1.78Z" transform="translate(-95.44 -196.01)"/><path d="M437.69,525.35l24,24.9-9,8.66a19,19,0,0,1-4.17,3.14,9.5,9.5,0,0,1-3.77,1.17,6.8,6.8,0,0,1-3.35-.61,9.78,9.78,0,0,1-2.9-2.11,9.27,9.27,0,0,1-1.83-2.6,6.93,6.93,0,0,1-.63-2.46,5.59,5.59,0,0,1,.29-2.21,7.28,7.28,0,0,1,1-1.92l-.07-.07a7.79,7.79,0,0,1-5.82,1.67,9.28,9.28,0,0,1-5.25-2.94,11.16,11.16,0,0,1-2.56-3.86,7.84,7.84,0,0,1-.42-3.8,9.47,9.47,0,0,1,1.43-3.67,19.42,19.42,0,0,1,2.92-3.51Zm-.42,4.27-6,5.76a38.1,38.1,0,0,0-3.21,3.41,8.64,8.64,0,0,0-1.69,3,4.62,4.62,0,0,0,.07,2.87,8.48,8.48,0,0,0,2,3.06,7.27,7.27,0,0,0,2.93,2,4.94,4.94,0,0,0,2.9,0,9.66,9.66,0,0,0,3-1.52,30.23,30.23,0,0,0,3.2-2.71l6.26-6Zm11.45,11.9-6,5.72a18.36,18.36,0,0,0-2.78,3.27,7.33,7.33,0,0,0-1.13,2.85,4.77,4.77,0,0,0,.35,2.54,7.86,7.86,0,0,0,1.61,2.34,6.58,6.58,0,0,0,2.3,1.62,4.13,4.13,0,0,0,2.47.15,8.6,8.6,0,0,0,2.86-1.35,27.88,27.88,0,0,0,3.49-2.92l5.43-5.23Z" transform="translate(-95.44 -196.01)"/><path d="M415.84,545.2,437,572.52l-2.58,2-21.16-27.33Z" transform="translate(-95.44 -196.01)"/><path d="M409.19,550.81l17.86,29.59-10.11,6.1c-.82.5-1.64,1-2.46,1.4A19.32,19.32,0,0,1,412,589a13.37,13.37,0,0,1-2.65.67,12.16,12.16,0,0,1-2.84.09,10.53,10.53,0,0,1-4-1.15A17.25,17.25,0,0,1,399,586.3a21.75,21.75,0,0,1-2.86-3,28.64,28.64,0,0,1-2.18-3.09,29.4,29.4,0,0,1-1.62-3.11,22.57,22.57,0,0,1-1.2-3.34,17.08,17.08,0,0,1-.6-3.45,12.28,12.28,0,0,1,.23-3.47,10.46,10.46,0,0,1,1.12-3.2A13.72,13.72,0,0,1,393.8,561a17.29,17.29,0,0,1,2.45-2.21c.9-.68,1.85-1.31,2.83-1.91Zm-1.36,4.07-6.69,4a31,31,0,0,0-3.42,2.37,12.15,12.15,0,0,0-2.71,3.17A7.85,7.85,0,0,0,393.8,568a12.63,12.63,0,0,0,.18,3.68,17.33,17.33,0,0,0,1.11,3.62,30,30,0,0,0,1.69,3.3,31.1,31.1,0,0,0,2.18,3.14,15.56,15.56,0,0,0,2.69,2.69,12.17,12.17,0,0,0,3.22,1.81,9.12,9.12,0,0,0,3.8.54,10.11,10.11,0,0,0,3.67-1,38,38,0,0,0,3.78-2l6.7-4Z" transform="translate(-95.44 -196.01)"/><path d="M381.13,566.6l14.32,31.45-3,1.35L378.16,568Z" transform="translate(-95.44 -196.01)"/><path d="M379.44,600.25l.09,0-9.21-28.7,3.11-1L384,603.43l-3.52,1.13-28.24-22.65-.09,0,9.22,28.75-3.11,1L347.7,578.78l3.61-1.16Z" transform="translate(-95.44 -196.01)"/><path d="M330.84,596.61l.35,2.77-14.67,1.84-2.24-17.71,2.76-.35.74,5.86a17.13,17.13,0,0,1,1.72-3,11.61,11.61,0,0,1,2.42-2.48,12.9,12.9,0,0,1,3.36-1.8,19.35,19.35,0,0,1,4.46-1.05,15.73,15.73,0,0,1,6.15.39,13,13,0,0,1,5.19,2.8,16.22,16.22,0,0,1,3.84,5.3A26,26,0,0,1,347,597a25,25,0,0,1-.06,7.14,15.8,15.8,0,0,1-2.22,6,13.86,13.86,0,0,1-4.47,4.41,16.7,16.7,0,0,1-6.85,2.27,18.53,18.53,0,0,1-5.16,0,13.51,13.51,0,0,1-4.49-1.49,12.36,12.36,0,0,1-3.6-3,14.63,14.63,0,0,1-2.46-4.55l3.34-.42a10,10,0,0,0,1.88,3.24,9.91,9.91,0,0,0,2.78,2.24,11.19,11.19,0,0,0,3.38,1.17,12.32,12.32,0,0,0,3.74.08,13.08,13.08,0,0,0,5.66-1.92,10.77,10.77,0,0,0,3.58-3.86,15,15,0,0,0,1.65-5.48,27.85,27.85,0,0,0-.1-6.74,17.38,17.38,0,0,0-1.52-5.32,13.8,13.8,0,0,0-3-4.22,11.48,11.48,0,0,0-4.29-2.6,11.77,11.77,0,0,0-5.41-.48,13.71,13.71,0,0,0-2.82.67,11.43,11.43,0,0,0-2.72,1.38,11.17,11.17,0,0,0-2.34,2.18,10.54,10.54,0,0,0-1.69,3.07,12.23,12.23,0,0,0-.7,3.52,25.25,25.25,0,0,0,.11,3.76Z" transform="translate(-95.44 -196.01)"/><path d="M269.38,579.58l-9.53,33.22-12-3.44a19.21,19.21,0,0,1-4.81-2,9.46,9.46,0,0,1-2.9-2.68,6.79,6.79,0,0,1-1.16-3.21,9.83,9.83,0,0,1,.38-3.56,9.12,9.12,0,0,1,1.33-2.89,6.92,6.92,0,0,1,1.81-1.78,5.85,5.85,0,0,1,2.06-.85,7.49,7.49,0,0,1,2.16-.11l0-.09a7.8,7.8,0,0,1-4.36-4.2,9.27,9.27,0,0,1-.1-6,11.21,11.21,0,0,1,2.07-4.15,7.77,7.77,0,0,1,3.07-2.26,9.26,9.26,0,0,1,3.89-.61,19.13,19.13,0,0,1,4.5.77Zm-8.46,17.65L253,595a17.76,17.76,0,0,0-4.22-.76,7.34,7.34,0,0,0-3,.45,4.69,4.69,0,0,0-2,1.57,8,8,0,0,0-1.21,2.57,6.52,6.52,0,0,0-.26,2.8,4.19,4.19,0,0,0,1.11,2.22,8.68,8.68,0,0,0,2.61,1.79,27.53,27.53,0,0,0,4.27,1.55l7.25,2.08Zm4.55-15.88-8-2.29a42.18,42.18,0,0,0-4.56-1.06,8.73,8.73,0,0,0-3.44,0,4.74,4.74,0,0,0-2.45,1.5,8.68,8.68,0,0,0-1.62,3.3,7.36,7.36,0,0,0-.27,3.55,5.09,5.09,0,0,0,1.42,2.53,10,10,0,0,0,2.82,1.83,30.5,30.5,0,0,0,4,1.4l8.35,2.4Z" transform="translate(-95.44 -196.01)"/><path d="M241.26,570.62l-13.08,32-3-1.24,13.08-32Z" transform="translate(-95.44 -196.01)"/><path d="M233.07,567.67l-16.71,30.26L206,592.22c-.84-.47-1.65-.94-2.44-1.43a19,19,0,0,1-2.23-1.62,13.62,13.62,0,0,1-1.91-2A12.08,12.08,0,0,1,198,584.8a10.56,10.56,0,0,1-1-4,18.11,18.11,0,0,1,.3-4.16,23,23,0,0,1,1.15-4A32.47,32.47,0,0,1,200,569.2a30,30,0,0,1,1.88-3,23,23,0,0,1,2.3-2.71,18,18,0,0,1,2.69-2.25,12.57,12.57,0,0,1,3.12-1.53,10.58,10.58,0,0,1,3.34-.63,13.91,13.91,0,0,1,3.22.32,18.43,18.43,0,0,1,3.13,1c1,.45,2.06.95,3.07,1.5Zm-4.21.86L222,564.75a32.43,32.43,0,0,0-3.76-1.78,12.26,12.26,0,0,0-4.1-.76,7.77,7.77,0,0,0-3.62.7,13,13,0,0,0-3.1,2,17.48,17.48,0,0,0-2.57,2.78,25.27,25.27,0,0,0-2,3.11,30.4,30.4,0,0,0-1.63,3.45,15.46,15.46,0,0,0-1,3.68,12.4,12.4,0,0,0,0,3.7,9.24,9.24,0,0,0,1.43,3.56,10.22,10.22,0,0,0,2.69,2.68,36.21,36.21,0,0,0,3.62,2.28l6.85,3.78Z" transform="translate(-95.44 -196.01)"/><path d="M205.38,551.26l-20.07,28.13-2.66-1.9,20.08-28.13Z" transform="translate(-95.44 -196.01)"/><path d="M175.4,566.63l.07.07,20.23-22.35,2.42,2.19-23.19,25.62-2.74-2.48,5.45-35.78-.07-.07-20.26,22.39L154.89,554l23.19-25.63,2.81,2.55Z" transform="translate(-95.44 -196.01)"/><path d="M154.19,522.81,152,524.5l-9-11.75,14.19-10.84,1.69,2.21-4.7,3.59a16.42,16.42,0,0,1,3.5,0,11.82,11.82,0,0,1,3.37.84,13.18,13.18,0,0,1,3.24,2,19.53,19.53,0,0,1,3.15,3.33,15.74,15.74,0,0,1,2.76,5.5,13.06,13.06,0,0,1,.18,5.9,15.89,15.89,0,0,1-2.65,6A25.76,25.76,0,0,1,162,537a25,25,0,0,1-6.21,3.54,15.82,15.82,0,0,1-6.33,1.12,13.83,13.83,0,0,1-6.06-1.65,16.65,16.65,0,0,1-5.41-4.78,19.15,19.15,0,0,1-2.57-4.47,13.56,13.56,0,0,1-1-4.63,12.45,12.45,0,0,1,.77-4.61,14.43,14.43,0,0,1,2.7-4.41l2,2.67a10.15,10.15,0,0,0-1.86,3.26,9.77,9.77,0,0,0-.54,3.52,11.51,11.51,0,0,0,.69,3.52,12.52,12.52,0,0,0,1.81,3.27,13.23,13.23,0,0,0,4.51,3.93,10.68,10.68,0,0,0,5.14,1.14,14.71,14.71,0,0,0,5.57-1.32,28.21,28.21,0,0,0,5.77-3.48,17.68,17.68,0,0,0,3.84-4,13.84,13.84,0,0,0,2.13-4.71,11.48,11.48,0,0,0,.09-5,11.77,11.77,0,0,0-2.3-4.91,13.56,13.56,0,0,0-2-2.1,10.93,10.93,0,0,0-2.57-1.67,11.23,11.23,0,0,0-3.06-.92,10.63,10.63,0,0,0-3.5.08,12.49,12.49,0,0,0-3.39,1.17,26.56,26.56,0,0,0-3.2,2Z" transform="translate(-95.44 -196.01)"/><path d="M138.1,461.1l-33.53,8.36-3-12.11a18.54,18.54,0,0,1-.65-5.18,9.46,9.46,0,0,1,.87-3.85,6.78,6.78,0,0,1,2.19-2.6,9.8,9.8,0,0,1,3.28-1.46,9.24,9.24,0,0,1,3.16-.3,7.1,7.1,0,0,1,2.45.68,5.73,5.73,0,0,1,1.77,1.36,7.18,7.18,0,0,1,1.17,1.81l.09,0a7.85,7.85,0,0,1,1.46-5.88,9.29,9.29,0,0,1,5.16-3.09,11.2,11.2,0,0,1,4.63-.29,7.73,7.73,0,0,1,3.5,1.53,9.29,9.29,0,0,1,2.47,3.07,19.61,19.61,0,0,1,1.59,4.28Zm-19.51,1.5-2-8a18,18,0,0,0-1.45-4,7.21,7.21,0,0,0-1.91-2.39,4.67,4.67,0,0,0-2.37-1,7.83,7.83,0,0,0-2.83.24,6.29,6.29,0,0,0-2.55,1.18,4.16,4.16,0,0,0-1.37,2.07,8.79,8.79,0,0,0-.25,3.15,27.6,27.6,0,0,0,.8,4.48l1.82,7.31Zm16-4-2-8.06a40.27,40.27,0,0,0-1.36-4.48,8.63,8.63,0,0,0-1.76-3,4.69,4.69,0,0,0-2.51-1.37,8.46,8.46,0,0,0-3.68.25,7.2,7.2,0,0,0-3.2,1.54,5,5,0,0,0-1.48,2.49,9.64,9.64,0,0,0-.18,3.36,31.68,31.68,0,0,0,.76,4.12l2.1,8.43Z" transform="translate(-95.44 -196.01)"/><path d="M131.79,432.26,97.55,437l-.44-3.24L131.35,429Z" transform="translate(-95.44 -196.01)"/><path d="M130.25,423.71l-34.55.73-.25-11.8c0-1,0-1.91,0-2.84a19.13,19.13,0,0,1,.28-2.74,13.35,13.35,0,0,1,.74-2.63,11.89,11.89,0,0,1,1.34-2.5,10.42,10.42,0,0,1,3-2.9,17.91,17.91,0,0,1,3.76-1.83,22.62,22.62,0,0,1,4-1,29.6,29.6,0,0,1,3.76-.34,27.76,27.76,0,0,1,3.51.14,23.81,23.81,0,0,1,3.49.62,17.73,17.73,0,0,1,3.29,1.21,12.42,12.42,0,0,1,2.9,1.93,10.42,10.42,0,0,1,2.21,2.57,13.44,13.44,0,0,1,1.34,2.94,17.17,17.17,0,0,1,.69,3.23,31.81,31.81,0,0,1,.24,3.4Zm-2.85-3.21-.17-7.82a29.59,29.59,0,0,0-.35-4.14,12,12,0,0,0-1.4-3.93,8,8,0,0,0-2.41-2.79,13.2,13.2,0,0,0-3.28-1.68,17.35,17.35,0,0,0-3.69-.83,27.81,27.81,0,0,0-3.7-.19,33.37,33.37,0,0,0-3.81.32,16,16,0,0,0-3.68,1,12.86,12.86,0,0,0-3.17,1.89,9.09,9.09,0,0,0-2.36,3,10,10,0,0,0-1,3.67,38,38,0,0,0-.15,4.28l.16,7.82Z" transform="translate(-95.44 -196.01)"/><path d="M130.55,391.49l-34.42-3.21.31-3.25,34.41,3.21Z" transform="translate(-95.44 -196.01)"/><path d="M102.18,373.28l0,.09,29.49,6.27-.68,3.19-33.81-7.18.77-3.62,33.68-13.26,0-.09-29.53-6.27.68-3.2,33.8,7.19-.78,3.7Z" transform="translate(-95.44 -196.01)"/><path d="M129.48,332.91l-2.57-1.07,5.68-13.65,16.49,6.87L148,327.63l-5.45-2.27a15.86,15.86,0,0,1,1.79,3,11.47,11.47,0,0,1,1,3.34,13.27,13.27,0,0,1-.11,3.8,19.28,19.28,0,0,1-1.31,4.4,15.45,15.45,0,0,1-3.39,5.14,12.92,12.92,0,0,1-5,3.11,16,16,0,0,1-6.5.7,26.33,26.33,0,0,1-7.88-2.06,25.35,25.35,0,0,1-6.17-3.61,16,16,0,0,1-4.14-4.92,14,14,0,0,1-1.6-6.08,16.59,16.59,0,0,1,1.44-7.07,18.81,18.81,0,0,1,2.58-4.46,13.7,13.7,0,0,1,3.53-3.16,12.47,12.47,0,0,1,4.37-1.64,14.4,14.4,0,0,1,5.17.13l-1.29,3.1a10,10,0,0,0-3.75,0,9.91,9.91,0,0,0-3.32,1.29,11.16,11.16,0,0,0-2.7,2.36,12.46,12.46,0,0,0-1.93,3.2,13.24,13.24,0,0,0-1.14,5.87,10.69,10.69,0,0,0,1.57,5,14.79,14.79,0,0,0,3.93,4.16,28.25,28.25,0,0,0,5.9,3.26,17.63,17.63,0,0,0,5.37,1.33,13.81,13.81,0,0,0,5.16-.51,11.67,11.67,0,0,0,4.39-2.43,11.85,11.85,0,0,0,3.1-4.45,14,14,0,0,0,.82-2.78,11.16,11.16,0,0,0,.15-3.06,10.9,10.9,0,0,0-.73-3.11,10.4,10.4,0,0,0-1.82-3,12.43,12.43,0,0,0-2.71-2.36,26.58,26.58,0,0,0-3.32-1.77Z" transform="translate(-95.44 -196.01)"/><path d="M174.89,288.11,150.83,263.3l9-8.68a18.79,18.79,0,0,1,4.15-3.17,9.69,9.69,0,0,1,3.77-1.18,6.79,6.79,0,0,1,3.35.6A9.61,9.61,0,0,1,174,253a9.14,9.14,0,0,1,1.84,2.59,6.91,6.91,0,0,1,.64,2.45,5.66,5.66,0,0,1-.29,2.22,7,7,0,0,1-1,1.92l.07.07a7.85,7.85,0,0,1,5.81-1.7,9.26,9.26,0,0,1,5.27,2.92,11,11,0,0,1,2.57,3.86,7.69,7.69,0,0,1,.44,3.79,9.33,9.33,0,0,1-1.42,3.68,19.25,19.25,0,0,1-2.9,3.52ZM163.8,272l5.92-5.75a17.93,17.93,0,0,0,2.77-3.28,7.12,7.12,0,0,0,1.11-2.85,4.66,4.66,0,0,0-.35-2.54,7.91,7.91,0,0,0-1.63-2.33,6.49,6.49,0,0,0-2.3-1.62,4.21,4.21,0,0,0-2.47-.14,8.69,8.69,0,0,0-2.86,1.37,28,28,0,0,0-3.47,2.93L155.11,263Zm11.49,11.85,6-5.78a39.3,39.3,0,0,0,3.2-3.43,8.6,8.6,0,0,0,1.67-3,4.66,4.66,0,0,0-.07-2.86,8.57,8.57,0,0,0-2.06-3.06,7.16,7.16,0,0,0-2.94-2,4.94,4.94,0,0,0-2.9,0,9.7,9.7,0,0,0-3,1.53,31.37,31.37,0,0,0-3.18,2.72L165.74,274Z" transform="translate(-95.44 -196.01)"/><path d="M196.66,268.18l-21.27-27.24,2.57-2,21.27,27.24Z" transform="translate(-95.44 -196.01)"/><path d="M203.28,262.54,185.3,233l10.08-6.14q1.23-.75,2.46-1.41a19.52,19.52,0,0,1,2.51-1.14,13.3,13.3,0,0,1,2.64-.68,11.63,11.63,0,0,1,2.84-.1,10.28,10.28,0,0,1,4,1.13A17.37,17.37,0,0,1,213.3,227a22.42,22.42,0,0,1,2.88,3,29.77,29.77,0,0,1,2.19,3.08,30.47,30.47,0,0,1,1.63,3.11,22.14,22.14,0,0,1,1.22,3.33,17.83,17.83,0,0,1,.61,3.45,12.65,12.65,0,0,1-.21,3.47,10.78,10.78,0,0,1-1.11,3.21,13.25,13.25,0,0,1-1.88,2.63,16.68,16.68,0,0,1-2.44,2.22q-1.35,1-2.82,1.92Zm1.34-4.08,6.68-4.07a30.94,30.94,0,0,0,3.41-2.39,11.85,11.85,0,0,0,2.69-3.19,7.71,7.71,0,0,0,1.2-3.48,13,13,0,0,0-.19-3.68,17.94,17.94,0,0,0-1.13-3.61,29,29,0,0,0-1.7-3.29,30.47,30.47,0,0,0-2.19-3.13,15.61,15.61,0,0,0-2.7-2.69,12.38,12.38,0,0,0-3.24-1.79,9,9,0,0,0-3.8-.52,10.25,10.25,0,0,0-3.66,1,38.16,38.16,0,0,0-3.78,2l-6.68,4.07Z" transform="translate(-95.44 -196.01)"/><path d="M231.27,246.64l-14.45-31.4,3-1.36,14.45,31.39Z" transform="translate(-95.44 -196.01)"/><path d="M232.81,213l-.09,0,9.33,28.66-3.1,1-10.7-32.86,3.52-1.15L260.1,231.2l.09,0-9.35-28.71,3.11-1,10.7,32.87L261,235.49Z" transform="translate(-95.44 -196.01)"/><path d="M281.43,216.41l-.36-2.76,14.66-1.91L298,229.45l-2.76.36-.77-5.86a17.14,17.14,0,0,1-1.7,3.06,11.84,11.84,0,0,1-2.41,2.49,13.16,13.16,0,0,1-3.35,1.81,19.85,19.85,0,0,1-4.46,1.07,15.73,15.73,0,0,1-6.15-.36,12.94,12.94,0,0,1-5.2-2.78,16.28,16.28,0,0,1-3.86-5.28,26.27,26.27,0,0,1-2.16-7.86,25.05,25.05,0,0,1,0-7.14,15.87,15.87,0,0,1,2.19-6.05,14,14,0,0,1,4.45-4.43,16.81,16.81,0,0,1,6.84-2.29,19,19,0,0,1,5.16,0,13.54,13.54,0,0,1,4.5,1.47,12.33,12.33,0,0,1,3.6,3,14.2,14.2,0,0,1,2.48,4.54l-3.33.44a10.07,10.07,0,0,0-1.9-3.24,9.87,9.87,0,0,0-2.78-2.23,11,11,0,0,0-3.39-1.15,12.32,12.32,0,0,0-3.74-.07,13,13,0,0,0-5.65,2,10.66,10.66,0,0,0-3.56,3.87,14.77,14.77,0,0,0-1.63,5.49,28.42,28.42,0,0,0,.12,6.74,17.79,17.79,0,0,0,1.55,5.32,13.74,13.74,0,0,0,3,4.2,12,12,0,0,0,4.31,2.59,11.78,11.78,0,0,0,5.41.45,13.51,13.51,0,0,0,2.81-.68,11,11,0,0,0,2.73-1.4,10.88,10.88,0,0,0,2.32-2.19,10.29,10.29,0,0,0,1.68-3.07,12.26,12.26,0,0,0,.68-3.53,25.38,25.38,0,0,0-.13-3.76Z" transform="translate(-95.44 -196.01)"/></svg>