<svg id="Layer_1" data-name="Layer 1" xmlns="http://www.w3.org/2000/svg" viewBox="0 0 422.54 422.29"><title>passing-time</title><path d="M347,234.15l9.95-33.09L369,204.69a16.74,16.74,0,0,1,5.08,2.33,8.57,8.57,0,0,1,2.71,3,7.53,7.53,0,0,1,.81,3.47,13.3,13.3,0,0,1-.58,3.66,8.27,8.27,0,0,1-6.26,6.17,13.12,13.12,0,0,1-4.5.22,26.66,26.66,0,0,1-4.7-1l-7.08-2.13-4.39,14.62ZM362.46,220a26.16,26.16,0,0,0,4,.91,8.16,8.16,0,0,0,3.27-.14,5.33,5.33,0,0,0,2.51-1.5A8,8,0,0,0,374,216a5.94,5.94,0,0,0-.63-5.35q-1.56-2.22-6-3.56l-8.09-2.43-3.95,13.15Z" transform="translate(-95.15 -196.01)"/><path d="M366.08,239.44l26.74-25.77,3.36,1.54-2.35,36.94-3.05-1.4.89-11.52-14.31-6.56-8.23,8.17Zm13.44-8.84,12.31,5.63,1.4-19.31Z" transform="translate(-95.15 -196.01)"/><path d="M401.33,245.05a10.51,10.51,0,0,0-1.29,3.83,7.68,7.68,0,0,0,.37,3.37,8.6,8.6,0,0,0,1.74,2.9,14.38,14.38,0,0,0,2.84,2.42,12.47,12.47,0,0,0,3.64,1.71,7.63,7.63,0,0,0,3.14.2,6,6,0,0,0,2.56-1.05,7.26,7.26,0,0,0,1.93-2,5.36,5.36,0,0,0,1-3.22,7.06,7.06,0,0,0-.86-3,14.63,14.63,0,0,0-2.11-2.91c-.88-1-1.79-1.94-2.73-2.92s-1.83-2-2.66-3a12.56,12.56,0,0,1-1.88-3.26,8.06,8.06,0,0,1-.49-3.57,8.61,8.61,0,0,1,1.55-4,8.57,8.57,0,0,1,6-3.74,10.76,10.76,0,0,1,4.2.29,15.3,15.3,0,0,1,4.67,2.16,14.49,14.49,0,0,1,3.82,3.49,10.09,10.09,0,0,1,1.8,3.86,9,9,0,0,1,0,3.93A11.22,11.22,0,0,1,427,244.2l-2.61-1.72a7.67,7.67,0,0,0,1.3-3.23,6.46,6.46,0,0,0-.29-3,8.17,8.17,0,0,0-1.55-2.62,11.6,11.6,0,0,0-2.41-2.11,11.24,11.24,0,0,0-3.89-1.73,7.38,7.38,0,0,0-3.25,0,5.93,5.93,0,0,0-2.51,1.28,5.76,5.76,0,0,0-1.6,2.16,4.73,4.73,0,0,0-.36,3,8.48,8.48,0,0,0,1.26,2.8,19.6,19.6,0,0,0,2.24,2.75c.88.9,1.77,1.83,2.68,2.79s1.73,1.94,2.51,3a11.59,11.59,0,0,1,1.74,3.16,7.69,7.69,0,0,1,.37,3.49,9.08,9.08,0,0,1-1.58,3.93,9,9,0,0,1-6.86,4.39c-2.81.26-5.88-.72-9.23-2.91a17.55,17.55,0,0,1-3.78-3.33,11,11,0,0,1-2.17-4,9.83,9.83,0,0,1-.26-4.36,12,12,0,0,1,1.93-4.63Z" transform="translate(-95.15 -196.01)"/><path d="M424.21,260.91a10.27,10.27,0,0,0-1.84,3.6,7.67,7.67,0,0,0-.14,3.39,8.62,8.62,0,0,0,1.29,3.12,14.57,14.57,0,0,0,2.45,2.81,12.26,12.26,0,0,0,3.35,2.23,7.54,7.54,0,0,0,3.08.66,6,6,0,0,0,2.69-.65,7.65,7.65,0,0,0,2.2-1.7,5.51,5.51,0,0,0,1.5-3,7.16,7.16,0,0,0-.41-3.11,14.79,14.79,0,0,0-1.66-3.19c-.72-1.08-1.48-2.18-2.27-3.29s-1.51-2.24-2.17-3.4a11.86,11.86,0,0,1-1.38-3.49,8,8,0,0,1,0-3.61,8.56,8.56,0,0,1,2.12-3.73,8.28,8.28,0,0,1,2.86-2.08,8.64,8.64,0,0,1,3.63-.74,10.64,10.64,0,0,1,4.11.91,15.46,15.46,0,0,1,4.31,2.82,14.53,14.53,0,0,1,3.26,4,10.28,10.28,0,0,1,1.21,4.08,9.18,9.18,0,0,1-.59,3.89,10.91,10.91,0,0,1-2.12,3.45l-2.32-2.08a7.79,7.79,0,0,0,1.75-3,6.35,6.35,0,0,0,.16-3,8.11,8.11,0,0,0-1.14-2.83,11.4,11.4,0,0,0-2.07-2.43,11.19,11.19,0,0,0-3.59-2.29,7.44,7.44,0,0,0-3.23-.47,6.06,6.06,0,0,0-2.67.9,5.85,5.85,0,0,0-1.9,1.9,4.69,4.69,0,0,0-.79,2.9,8.42,8.42,0,0,0,.83,3,18.91,18.91,0,0,0,1.81,3.05c.74,1,1.48,2.08,2.23,3.16s1.43,2.17,2.05,3.28a11.6,11.6,0,0,1,1.26,3.38,7.75,7.75,0,0,1-.15,3.51,9.16,9.16,0,0,1-2.15,3.66,9,9,0,0,1-7.43,3.33q-4.23-.25-8.69-4.25a17.34,17.34,0,0,1-3.26-3.85,11,11,0,0,1-1.55-4.23,9.7,9.7,0,0,1,.38-4.36,12.1,12.1,0,0,1,2.59-4.29Z" transform="translate(-95.15 -196.01)"/><path d="M436.05,286.38l25.56-23.26,2.19,2.41L438.25,288.8Z" transform="translate(-95.15 -196.01)"/><path d="M468.6,277.67l-.06-.08-24.48,17.59-1.9-2.65,28.07-20.17,2.15,3L459.52,309.2l.05.08,24.52-17.62,1.91,2.65-28.07,20.17-2.21-3.08Z" transform="translate(-95.15 -196.01)"/><path d="M480.09,325l2.52-1.18,6.29,13.38-16.17,7.59-1.18-2.52,5.34-2.51a16.3,16.3,0,0,1-3.43-.69,11.66,11.66,0,0,1-3.1-1.54,13,13,0,0,1-2.75-2.63,19.94,19.94,0,0,1-2.37-3.93,15.52,15.52,0,0,1-1.53-6,13,13,0,0,1,1.07-5.81,16.06,16.06,0,0,1,3.85-5.28,26.22,26.22,0,0,1,6.82-4.45,25.23,25.23,0,0,1,6.82-2.14,15.82,15.82,0,0,1,6.42.25,14,14,0,0,1,5.58,2.89,16.81,16.81,0,0,1,4.27,5.82,19,19,0,0,1,1.56,4.91,13.46,13.46,0,0,1,0,4.74,12.2,12.2,0,0,1-1.73,4.34,14.25,14.25,0,0,1-3.57,3.74l-1.43-3a10.17,10.17,0,0,0,2.51-2.79,10,10,0,0,0,1.27-3.33,11.05,11.05,0,0,0,.07-3.59,12.19,12.19,0,0,0-1.07-3.58,13.19,13.19,0,0,0-3.57-4.79,10.75,10.75,0,0,0-4.78-2.21,14.64,14.64,0,0,0-5.73.12,27.61,27.61,0,0,0-6.37,2.17,17.56,17.56,0,0,0-4.6,3.08,13.79,13.79,0,0,0-3.09,4.16A11.56,11.56,0,0,0,468,330.4a14.37,14.37,0,0,0,1.51,2.47,11.38,11.38,0,0,0,2.16,2.17,11.12,11.12,0,0,0,2.79,1.55,10.42,10.42,0,0,0,3.44.66,12.21,12.21,0,0,0,3.57-.42,25.62,25.62,0,0,0,3.54-1.27Z" transform="translate(-95.15 -196.01)"/><path d="M482.84,391.38l34.55-.8.29,12.62a16.69,16.69,0,0,1-.64,5.56,8.48,8.48,0,0,1-2,3.5,7.45,7.45,0,0,1-3.05,1.85,13.35,13.35,0,0,1-3.66.59,8.89,8.89,0,0,1-4.78-1.07,8.62,8.62,0,0,1-3-3,13,13,0,0,1-1.61-4.21,25.62,25.62,0,0,1-.54-4.76l-.17-7.39-15.26.35Zm18.29,10.33a27.23,27.23,0,0,0,.39,4.12,8.22,8.22,0,0,0,1.15,3.07,5.31,5.31,0,0,0,2.2,1.91,7.85,7.85,0,0,0,3.59.62,5.92,5.92,0,0,0,4.9-2.25q1.62-2.18,1.52-6.83l-.2-8.45-13.72.32Z" transform="translate(-95.15 -196.01)"/><path d="M483.74,411.2l32.82,17.36-.41,3.67-35.82,9.31.37-3.34,11.23-2.75,1.76-15.64-10.33-5.27Zm12.59,10-1.51,13.46L513.61,430Z" transform="translate(-95.15 -196.01)"/><path d="M489.42,446.44a10.18,10.18,0,0,0-4,0,7.68,7.68,0,0,0-3.09,1.4,8.64,8.64,0,0,0-2.22,2.56,14.41,14.41,0,0,0-1.4,3.45,12,12,0,0,0-.49,4,7.41,7.41,0,0,0,.79,3.05,6,6,0,0,0,1.79,2.1,7.22,7.22,0,0,0,2.51,1.21,5.41,5.41,0,0,0,3.39,0,7,7,0,0,0,2.59-1.76,14.52,14.52,0,0,0,2.1-2.91c.64-1.13,1.28-2.3,1.93-3.5s1.32-2.36,2.06-3.47a11.91,11.91,0,0,1,2.5-2.8,8.07,8.07,0,0,1,3.24-1.59,8.77,8.77,0,0,1,4.29.22,8.36,8.36,0,0,1,3.14,1.63,8.47,8.47,0,0,1,2.29,2.91,10.65,10.65,0,0,1,1,4.08,15.21,15.21,0,0,1-.59,5.11,14.6,14.6,0,0,1-2.12,4.72A10.31,10.31,0,0,1,506,469.7a9.22,9.22,0,0,1-3.74,1.22,10.88,10.88,0,0,1-4-.35l.82-3a7.74,7.74,0,0,0,3.47.22,6.4,6.4,0,0,0,2.76-1.21,8.26,8.26,0,0,0,2-2.29,11.69,11.69,0,0,0,1.25-2.95,11.2,11.2,0,0,0,.42-4.23,7.42,7.42,0,0,0-1-3.09,6.23,6.23,0,0,0-2-2,5.92,5.92,0,0,0-2.56-.84,4.68,4.68,0,0,0-2.94.59,8.67,8.67,0,0,0-2.28,2.07,20.48,20.48,0,0,0-1.91,3c-.58,1.12-1.19,2.26-1.82,3.41s-1.3,2.26-2,3.31a11.54,11.54,0,0,1-2.46,2.64,7.72,7.72,0,0,1-3.2,1.44,9.24,9.24,0,0,1-4.23-.27,9,9,0,0,1-6.31-5.15q-1.68-3.88-.11-9.68a17.16,17.16,0,0,1,2-4.63,11.07,11.07,0,0,1,3.08-3.29,9.63,9.63,0,0,1,4.07-1.61,12,12,0,0,1,5,.38Z" transform="translate(-95.15 -196.01)"/><path d="M481.47,473.14a10.25,10.25,0,0,0-4-.63,7.67,7.67,0,0,0-3.27.92,8.62,8.62,0,0,0-2.57,2.2,14,14,0,0,0-1.9,3.2,12.21,12.21,0,0,0-1.08,3.87,7.52,7.52,0,0,0,.32,3.14,6.1,6.1,0,0,0,1.46,2.34,7.4,7.4,0,0,0,2.3,1.57,5.41,5.41,0,0,0,3.35.48,7,7,0,0,0,2.83-1.35,15.32,15.32,0,0,0,2.52-2.56c.8-1,1.61-2.09,2.42-3.18s1.67-2.14,2.56-3.13a11.9,11.9,0,0,1,2.89-2.39,8.08,8.08,0,0,1,3.44-1.08,8.57,8.57,0,0,1,4.21.85,8.42,8.42,0,0,1,2.86,2.08,8.56,8.56,0,0,1,1.84,3.22,10.87,10.87,0,0,1,.4,4.19,15.26,15.26,0,0,1-1.35,5,14.7,14.7,0,0,1-2.8,4.35,10.28,10.28,0,0,1-3.51,2.41,9,9,0,0,1-3.88.65,11.07,11.07,0,0,1-3.93-.94l1.25-2.86a7.73,7.73,0,0,0,3.4.74,6.39,6.39,0,0,0,2.92-.79,8,8,0,0,0,2.33-2,11.52,11.52,0,0,0,1.68-2.73,11,11,0,0,0,1.05-4.12,7.32,7.32,0,0,0-.55-3.21,6.07,6.07,0,0,0-1.68-2.26,5.93,5.93,0,0,0-2.4-1.21,4.68,4.68,0,0,0-3,.14,8.5,8.5,0,0,0-2.56,1.71,18.74,18.74,0,0,0-2.33,2.67c-.75,1-1.52,2.05-2.31,3.1s-1.63,2-2.49,3a11.63,11.63,0,0,1-2.83,2.24,7.83,7.83,0,0,1-3.38.95,9.3,9.3,0,0,1-4.14-.91,9,9,0,0,1-5.47-6q-1.08-4.1,1.34-9.58a17.27,17.27,0,0,1,2.65-4.29,11.05,11.05,0,0,1,3.54-2.8,9.73,9.73,0,0,1,4.26-1,12,12,0,0,1,4.88,1.13Z" transform="translate(-95.15 -196.01)"/><path d="M461,492.25l30,17.1-1.62,2.83-30-17.09Z" transform="translate(-95.15 -196.01)"/><path d="M479.3,520.51l.06-.07-24.3-17.85L457,500l27.85,20.46-2.18,3-36.16-1.78-.05.08,24.33,17.87-1.93,2.63L441,521.75l2.25-3.06Z" transform="translate(-95.15 -196.01)"/><path d="M437.84,546.11l1.9,2L429,558.26l-12.23-13,2-1.91,4,4.3a17.18,17.18,0,0,1-.4-3.47,11.49,11.49,0,0,1,.5-3.43,13,13,0,0,1,1.65-3.43,19.37,19.37,0,0,1,3-3.48,15.64,15.64,0,0,1,5.19-3.3,12.92,12.92,0,0,1,5.85-.78,16,16,0,0,1,6.22,2,26,26,0,0,1,6.34,5.11,25.1,25.1,0,0,1,4.15,5.81,15.86,15.86,0,0,1,1.76,6.19,14,14,0,0,1-1,6.2,16.72,16.72,0,0,1-4.21,5.86,18.75,18.75,0,0,1-4.18,3,13.57,13.57,0,0,1-4.51,1.44,12.26,12.26,0,0,1-4.66-.3,14.24,14.24,0,0,1-4.67-2.23l2.45-2.3a10.06,10.06,0,0,0,3.43,1.51,9.75,9.75,0,0,0,3.56.18,10.87,10.87,0,0,0,3.43-1,12.48,12.48,0,0,0,3.07-2.12,13.3,13.3,0,0,0,3.45-4.89,10.86,10.86,0,0,0,.62-5.23,14.82,14.82,0,0,0-1.89-5.4,28.38,28.38,0,0,0-4-5.39,17.88,17.88,0,0,0-4.36-3.42,14,14,0,0,0-4.91-1.64,11.57,11.57,0,0,0-9.66,3.21,14.58,14.58,0,0,0-1.88,2.2,11.26,11.26,0,0,0-2,5.87,10.69,10.69,0,0,0,.43,3.47,12.44,12.44,0,0,0,1.52,3.26,23.52,23.52,0,0,0,2.3,3Z" transform="translate(-95.15 -196.01)"/><path d="M375.65,569.4,387.16,602l-11.91,4.2a16.77,16.77,0,0,1-5.48,1.12,8.34,8.34,0,0,1-4-.84,7.51,7.51,0,0,1-2.71-2.32,13.2,13.2,0,0,1-1.7-3.3,8.8,8.8,0,0,1-.47-4.87,8.58,8.58,0,0,1,1.89-3.8,13,13,0,0,1,3.5-2.84,27.23,27.23,0,0,1,4.36-2l7-2.46-5.08-14.39ZM371.52,590a26.36,26.36,0,0,0-3.8,1.65,8.24,8.24,0,0,0-2.56,2,5.34,5.34,0,0,0-1.13,2.7,7.81,7.81,0,0,0,.53,3.6,5.91,5.91,0,0,0,3.66,4c1.72.58,4,.36,7-.68l8-2.81-4.57-12.94Z" transform="translate(-95.15 -196.01)"/><path d="M357.11,576.42,350.73,613l-3.62.74-19.91-31.2,3.29-.68,6.08,9.83L352,588.53l1.82-11.44Zm-5.64,15.06-13.26,2.72,10.27,16.42Z" transform="translate(-95.15 -196.01)"/><path d="M325.34,592.69a10.26,10.26,0,0,0-1.22-3.86,7.78,7.78,0,0,0-2.29-2.5,8.38,8.38,0,0,0-3.12-1.31,14.45,14.45,0,0,0-3.71-.28,12.41,12.41,0,0,0-3.95.78,7.65,7.65,0,0,0-2.66,1.69,6.06,6.06,0,0,0-1.44,2.35,7.5,7.5,0,0,0-.37,2.76,5.5,5.5,0,0,0,1.07,3.22,7.1,7.1,0,0,0,2.48,1.92,14.61,14.61,0,0,0,3.42,1.1c1.28.26,2.58.5,3.93.74s2.65.54,3.93.89a12.21,12.21,0,0,1,3.44,1.51,8.18,8.18,0,0,1,2.51,2.59,8.77,8.77,0,0,1,1.12,4.15,8.43,8.43,0,0,1-.57,3.49,8.78,8.78,0,0,1-2.06,3.08,10.91,10.91,0,0,1-3.57,2.25,15.39,15.39,0,0,1-5,1,14.55,14.55,0,0,1-5.15-.56,10.11,10.11,0,0,1-3.73-2.05,9.14,9.14,0,0,1-2.32-3.18,10.77,10.77,0,0,1-.91-3.94l3.11-.15a7.72,7.72,0,0,0,.87,3.37,6.43,6.43,0,0,0,2,2.25,8.05,8.05,0,0,0,2.79,1.21,11.33,11.33,0,0,0,3.19.27,11.09,11.09,0,0,0,4.16-.9,7.33,7.33,0,0,0,2.62-1.93,6.14,6.14,0,0,0,1.27-2.52,6,6,0,0,0,0-2.69,4.7,4.7,0,0,0-1.48-2.62,8.44,8.44,0,0,0-2.67-1.52,19.28,19.28,0,0,0-3.43-.89c-1.24-.21-2.51-.43-3.8-.67s-2.55-.54-3.77-.9a11.42,11.42,0,0,1-3.27-1.52,7.72,7.72,0,0,1-2.37-2.6,9.12,9.12,0,0,1-1-4.1,9,9,0,0,1,2.94-7.6q3.18-2.79,9.17-3.1a17.76,17.76,0,0,1,5,.45,11,11,0,0,1,4.08,1.92,9.57,9.57,0,0,1,2.79,3.37,12.07,12.07,0,0,1,1.18,4.86Z" transform="translate(-95.15 -196.01)"/><path d="M297.48,593.41a10.13,10.13,0,0,0-.64-4,7.6,7.6,0,0,0-1.9-2.82,8.51,8.51,0,0,0-2.89-1.75,14.17,14.17,0,0,0-3.63-.82,12.1,12.1,0,0,0-4,.19,7.63,7.63,0,0,0-2.88,1.28,6.21,6.21,0,0,0-1.77,2.12,7.41,7.41,0,0,0-.77,2.67,5.45,5.45,0,0,0,.59,3.34,7,7,0,0,0,2.17,2.26,14.88,14.88,0,0,0,3.22,1.6c1.22.44,2.48.88,3.77,1.31s2.55.91,3.77,1.45a12.38,12.38,0,0,1,3.18,2,8.2,8.2,0,0,1,2.1,2.93,9.26,9.26,0,0,1-.58,7.64,8.53,8.53,0,0,1-2.49,2.74,10.78,10.78,0,0,1-3.85,1.7,15.3,15.3,0,0,1-5.14.27,14.64,14.64,0,0,1-5-1.31,10.09,10.09,0,0,1-3.39-2.58,9.25,9.25,0,0,1-1.83-3.48,11.09,11.09,0,0,1-.33-4l3.11.31a7.71,7.71,0,0,0,.36,3.46,6.46,6.46,0,0,0,1.66,2.53,8.13,8.13,0,0,0,2.59,1.6,11.67,11.67,0,0,0,3.11.74,11,11,0,0,0,4.25-.29,7.47,7.47,0,0,0,2.87-1.52,6.12,6.12,0,0,0,1.62-2.3,5.83,5.83,0,0,0,.41-2.66,4.65,4.65,0,0,0-1.08-2.81,8.42,8.42,0,0,0-2.41-1.9,19.6,19.6,0,0,0-3.27-1.38q-1.8-.58-3.66-1.23a38.57,38.57,0,0,1-3.6-1.44,11.39,11.39,0,0,1-3-2,7.64,7.64,0,0,1-2-2.92,9.15,9.15,0,0,1-.43-4.21,8.94,8.94,0,0,1,4-7.08q3.56-2.31,9.52-1.72a17.15,17.15,0,0,1,4.91,1.18,11,11,0,0,1,3.75,2.49,9.66,9.66,0,0,1,2.27,3.74,12.12,12.12,0,0,1,.45,5Z" transform="translate(-95.15 -196.01)"/><path d="M272.91,579.88l-6.85,33.87-3.2-.65,6.85-33.87Z" transform="translate(-95.15 -196.01)"/><path d="M251.78,606.14l.09,0,9.39-28.65,3.1,1L253.6,611.38l-3.51-1.15-9.58-34.91-.09,0L231,604l-3.1-1,10.76-32.85,3.6,1.18Z" transform="translate(-95.15 -196.01)"/><path d="M214.58,574.68l-1.34,2.44-13-7.11,8.59-15.66,2.44,1.34-2.84,5.18a16.83,16.83,0,0,1,3.18-1.46,11.58,11.58,0,0,1,3.42-.59,12.87,12.87,0,0,1,3.77.51,20.38,20.38,0,0,1,4.23,1.77,15.66,15.66,0,0,1,4.75,3.92,13,13,0,0,1,2.56,5.32,16,16,0,0,1,0,6.54,26,26,0,0,1-2.89,7.61,25.23,25.23,0,0,1-4.25,5.75,15.93,15.93,0,0,1-5.33,3.59,14,14,0,0,1-6.21.94,16.66,16.66,0,0,1-6.88-2.18,18.87,18.87,0,0,1-4.16-3.05,13.5,13.5,0,0,1-2.77-3.84,12.42,12.42,0,0,1-1.16-4.53,14.59,14.59,0,0,1,.68-5.13l2.95,1.62a10.19,10.19,0,0,0-.38,3.73,9.91,9.91,0,0,0,.93,3.44,11.09,11.09,0,0,0,2.06,2.94,12.14,12.14,0,0,0,3,2.26,13.13,13.13,0,0,0,5.71,1.76,10.66,10.66,0,0,0,5.16-1,14.79,14.79,0,0,0,4.56-3.47,28.59,28.59,0,0,0,3.87-5.51,17.78,17.78,0,0,0,1.89-5.21,13.85,13.85,0,0,0,.05-5.17,11.53,11.53,0,0,0-6.05-8.19,13.36,13.36,0,0,0-2.67-1.11,10.8,10.8,0,0,0-9.37,1.4,12.76,12.76,0,0,0-2.63,2.45,25.23,25.23,0,0,0-2.11,3.11Z" transform="translate(-95.15 -196.01)"/><path d="M173.16,522.74l-27.39,21.07-7.7-10A16.67,16.67,0,0,1,135.3,529a8.54,8.54,0,0,1-.44-4,7.46,7.46,0,0,1,1.37-3.29,13.25,13.25,0,0,1,2.6-2.64,8.85,8.85,0,0,1,4.49-2,8.69,8.69,0,0,1,4.2.61,13.25,13.25,0,0,1,3.79,2.45,27.07,27.07,0,0,1,3.25,3.52l4.51,5.86,12.1-9.31Zm-20.86,2.48a26.45,26.45,0,0,0-2.75-3.09,8.2,8.2,0,0,0-2.74-1.8,5.36,5.36,0,0,0-2.92-.24,7.86,7.86,0,0,0-3.25,1.63,5.91,5.91,0,0,0-2.62,4.71c0,1.81.92,4,2.81,6.4l5.15,6.7,10.88-8.37Z" transform="translate(-95.15 -196.01)"/><path d="M160.72,507.29,124,512.66l-1.83-3.21,23.42-28.66,1.67,2.92-7.44,8.84,7.82,13.67,11.44-1.85Zm-16.08-.65-6.72-11.75-12.39,14.89Z" transform="translate(-95.15 -196.01)"/><path d="M135.33,482.21a10.35,10.35,0,0,0,3.29-2.36,7.84,7.84,0,0,0,1.67-3,8.57,8.57,0,0,0,.27-3.37,14.46,14.46,0,0,0-.9-3.61,12.22,12.22,0,0,0-2-3.51,7.46,7.46,0,0,0-2.44-2,6.22,6.22,0,0,0-2.69-.64,7.63,7.63,0,0,0-2.73.51,5.4,5.4,0,0,0-2.72,2,7.15,7.15,0,0,0-1.06,2.95,14.9,14.9,0,0,0,0,3.59c.16,1.3.33,2.62.52,4s.32,2.69.38,4a12,12,0,0,1-.36,3.73,8.12,8.12,0,0,1-1.68,3.19,8.56,8.56,0,0,1-3.6,2.36,8.37,8.37,0,0,1-3.49.54,8.63,8.63,0,0,1-3.57-1A10.71,10.71,0,0,1,111,487a15.33,15.33,0,0,1-2.54-4.48,14.47,14.47,0,0,1-1.07-5.06,10.15,10.15,0,0,1,.79-4.18,9.13,9.13,0,0,1,2.29-3.2,11.21,11.21,0,0,1,3.46-2.1l1.12,2.92a7.75,7.75,0,0,0-2.93,1.87,6.3,6.3,0,0,0-1.52,2.61,8.09,8.09,0,0,0-.27,3,11.44,11.44,0,0,0,.73,3.11,11.12,11.12,0,0,0,2.15,3.67,7.58,7.58,0,0,0,2.65,1.89,6.18,6.18,0,0,0,2.79.42,5.86,5.86,0,0,0,2.56-.83,4.69,4.69,0,0,0,2-2.22,8.62,8.62,0,0,0,.62-3,20,20,0,0,0-.23-3.54c-.19-1.25-.37-2.52-.54-3.83a36.56,36.56,0,0,1-.33-3.86,11.35,11.35,0,0,1,.43-3.58,7.66,7.66,0,0,1,1.73-3.05,10.23,10.23,0,0,1,11.71-1.85q3.65,2.15,5.8,7.75a17.34,17.34,0,0,1,1.14,4.91,11.22,11.22,0,0,1-.55,4.48,9.76,9.76,0,0,1-2.33,3.69,12,12,0,0,1-4.26,2.64Z" transform="translate(-95.15 -196.01)"/><path d="M126,455.93a10.17,10.17,0,0,0,3.6-1.85,7.6,7.6,0,0,0,2.09-2.67,8.5,8.5,0,0,0,.78-3.29,14.44,14.44,0,0,0-.35-3.7,12.21,12.21,0,0,0-1.42-3.77,7.55,7.55,0,0,0-2.11-2.34,6,6,0,0,0-2.56-1,7.25,7.25,0,0,0-2.78.09,5.42,5.42,0,0,0-3,1.59,7.09,7.09,0,0,0-1.49,2.76,14.8,14.8,0,0,0-.52,3.55c0,1.31-.07,2.64-.08,4s-.08,2.71-.22,4a12,12,0,0,1-.92,3.64,8.05,8.05,0,0,1-2.14,2.9,8.62,8.62,0,0,1-3.91,1.8,8.4,8.4,0,0,1-3.53,0,8.5,8.5,0,0,1-3.38-1.52,10.77,10.77,0,0,1-2.8-3.14,15.57,15.57,0,0,1-1.85-4.81,15,15,0,0,1-.3-5.16,10.11,10.11,0,0,1,1.41-4,9.14,9.14,0,0,1,2.75-2.82,11.26,11.26,0,0,1,3.73-1.56l.67,3.05a7.75,7.75,0,0,0-3.18,1.41,6.38,6.38,0,0,0-1.89,2.36,8.1,8.1,0,0,0-.72,3,11.5,11.5,0,0,0,.25,3.19,11.35,11.35,0,0,0,1.58,4A7.45,7.45,0,0,0,106,457.8a6.13,6.13,0,0,0,2.69.84,5.86,5.86,0,0,0,2.66-.44,4.75,4.75,0,0,0,2.34-1.89,8.49,8.49,0,0,0,1.06-2.89,19.52,19.52,0,0,0,.3-3.53c0-1.26,0-2.55,0-3.86a37.52,37.52,0,0,1,.26-3.87,11.76,11.76,0,0,1,1-3.48,8,8,0,0,1,2.17-2.76,9.22,9.22,0,0,1,3.88-1.71,9,9,0,0,1,8,1.64q3.28,2.67,4.57,8.53a16.82,16.82,0,0,1,.39,5,10.86,10.86,0,0,1-1.21,4.34,9.63,9.63,0,0,1-2.86,3.31,12.11,12.11,0,0,1-4.6,2Z" transform="translate(-95.15 -196.01)"/><path d="M131.27,428.4l-34.34,3.93-.37-3.25,34.34-3.93Z" transform="translate(-95.15 -196.01)"/><path d="M99.62,416.11v.1l30.14.49,0,3.26-34.56-.56.06-3.7,30.51-19.47v-.1l-30.19-.49,0-3.26,34.56.56-.07,3.79Z" transform="translate(-95.15 -196.01)"/><path d="M118.07,371.32l-2.73-.51,2.7-14.54,17.55,3.27-.51,2.73-5.8-1.08a16.46,16.46,0,0,1,2.38,2.57,11.83,11.83,0,0,1,1.63,3.06,13.37,13.37,0,0,1,.69,3.74,19.65,19.65,0,0,1-.36,4.57,15.59,15.59,0,0,1-2.24,5.74,12.89,12.89,0,0,1-4.25,4.09,16,16,0,0,1-6.21,2,26,26,0,0,1-8.14-.36A25.13,25.13,0,0,1,106,384.4a15.82,15.82,0,0,1-5.08-3.95,14,14,0,0,1-2.84-5.6,16.77,16.77,0,0,1-.07-7.22,18.66,18.66,0,0,1,1.59-4.9,13.64,13.64,0,0,1,2.79-3.83,12.4,12.4,0,0,1,3.93-2.51,14.41,14.41,0,0,1,5.09-1l-.62,3.3a10.08,10.08,0,0,0-3.66.81,10,10,0,0,0-3,2,11.14,11.14,0,0,0-2.14,2.87,12.27,12.27,0,0,0-1.22,3.54,13.07,13.07,0,0,0,.11,6,10.81,10.81,0,0,0,2.59,4.59,14.84,14.84,0,0,0,4.72,3.24,28.3,28.3,0,0,0,6.44,2,17.55,17.55,0,0,0,5.54.17,13.91,13.91,0,0,0,4.93-1.57A11.6,11.6,0,0,0,131,374a14.14,14.14,0,0,0,.22-2.88,11.62,11.62,0,0,0-.49-3,10.9,10.9,0,0,0-1.37-2.89,10.5,10.5,0,0,0-2.41-2.55,12.05,12.05,0,0,0-3.14-1.73,25.13,25.13,0,0,0-3.62-1Z" transform="translate(-95.15 -196.01)"/><path d="M154.55,315.79,126,296.26l7.13-10.41a17.07,17.07,0,0,1,3.77-4.14,8.6,8.6,0,0,1,3.7-1.66,7.48,7.48,0,0,1,3.55.28,13.57,13.57,0,0,1,3.32,1.66,8.81,8.81,0,0,1,3.25,3.66,8.66,8.66,0,0,1,.72,4.18,13,13,0,0,1-1.16,4.36,25.64,25.64,0,0,1-2.34,4.19l-4.18,6.09,12.6,8.63Zm-8.81-19.07a24.63,24.63,0,0,0,2.09-3.57,8.11,8.11,0,0,0,.86-3.16,5.26,5.26,0,0,0-.67-2.84,7.89,7.89,0,0,0-2.55-2.6,5.92,5.92,0,0,0-5.29-1q-2.6.81-5.22,4.65l-4.78,7,11.33,7.76Z" transform="translate(-95.15 -196.01)"/><path d="M165.4,299.19l-16.47-33.28,2.48-2.74,34.5,13.4-2.26,2.49-10.71-4.34-10.57,11.67,5.29,10.31ZM161,283.7l9.1-10-18-7.17Z" transform="translate(-95.15 -196.01)"/><path d="M181.39,267.28a10.33,10.33,0,0,0,3.27,2.39,7.62,7.62,0,0,0,3.33.66,8.55,8.55,0,0,0,3.29-.78,14.48,14.48,0,0,0,3.15-2,12.35,12.35,0,0,0,2.73-3,7.4,7.4,0,0,0,1.14-2.94,6.06,6.06,0,0,0-.23-2.75,7.56,7.56,0,0,0-1.33-2.44,5.47,5.47,0,0,0-2.77-2,7,7,0,0,0-3.13-.08,14.19,14.19,0,0,0-3.41,1.13c-1.18.55-2.38,1.13-3.61,1.73s-2.45,1.14-3.7,1.61a12,12,0,0,1-3.66.82,8.19,8.19,0,0,1-3.56-.61,8.7,8.7,0,0,1-3.35-2.68,8.57,8.57,0,0,1-1.61-3.15,8.71,8.71,0,0,1-.16-3.71,10.76,10.76,0,0,1,1.55-3.91,15.38,15.38,0,0,1,3.46-3.81,14.77,14.77,0,0,1,4.48-2.59,10.05,10.05,0,0,1,4.22-.55,9.16,9.16,0,0,1,3.75,1.18,11.18,11.18,0,0,1,3.08,2.64l-2.43,2a7.79,7.79,0,0,0-2.68-2.21,6.37,6.37,0,0,0-3-.62,8.12,8.12,0,0,0-3,.68,11.27,11.27,0,0,0-2.73,1.66,11.14,11.14,0,0,0-2.82,3.19,7.41,7.41,0,0,0-1,3.11,6.09,6.09,0,0,0,.46,2.77,5.89,5.89,0,0,0,1.59,2.18,4.66,4.66,0,0,0,2.73,1.24,8.47,8.47,0,0,0,3.06-.35,19.58,19.58,0,0,0,3.29-1.31c1.13-.57,2.29-1.14,3.47-1.71s2.38-1.08,3.57-1.51a11.55,11.55,0,0,1,3.54-.71,7.64,7.64,0,0,1,3.44.7,9.11,9.11,0,0,1,3.27,2.69,8.94,8.94,0,0,1,2.12,7.86q-.9,4.14-5.56,7.92a17,17,0,0,1-4.31,2.61,11.18,11.18,0,0,1-4.43.88,9.89,9.89,0,0,1-4.24-1.07,11.92,11.92,0,0,1-3.82-3.23Z" transform="translate(-95.15 -196.01)"/><path d="M203.44,250.22a10,10,0,0,0,2.88,2.84,7.72,7.72,0,0,0,3.19,1.16,8.65,8.65,0,0,0,3.37-.29,14.56,14.56,0,0,0,3.42-1.49,12.31,12.31,0,0,0,3.13-2.52,7.44,7.44,0,0,0,1.56-2.74,6,6,0,0,0,.19-2.75,7.48,7.48,0,0,0-1-2.62,5.41,5.41,0,0,0-2.45-2.34,7,7,0,0,0-3.08-.55,14.78,14.78,0,0,0-3.54.61c-1.25.37-2.53.76-3.82,1.18s-2.6.76-3.9,1a12.09,12.09,0,0,1-3.75.27,8.1,8.1,0,0,1-3.42-1.13,8.56,8.56,0,0,1-2.92-3.15,8.31,8.31,0,0,1-1.12-3.35,8.67,8.67,0,0,1,.38-3.69,11,11,0,0,1,2.12-3.64,15.09,15.09,0,0,1,4-3.25,14.36,14.36,0,0,1,4.81-1.9,10.12,10.12,0,0,1,4.26.08,9.18,9.18,0,0,1,3.53,1.73,11.05,11.05,0,0,1,2.65,3.06l-2.69,1.59a7.75,7.75,0,0,0-2.33-2.58,6.45,6.45,0,0,0-2.83-1.06,8.08,8.08,0,0,0-3,.23,12.08,12.08,0,0,0-2.95,1.24,11.16,11.16,0,0,0-3.26,2.74,7.48,7.48,0,0,0-1.42,2.93,6,6,0,0,0,.05,2.81,5.82,5.82,0,0,0,1.24,2.39,4.69,4.69,0,0,0,2.53,1.63,8.44,8.44,0,0,0,3.07.11,19.88,19.88,0,0,0,3.45-.81c1.2-.4,2.43-.79,3.68-1.18a37.72,37.72,0,0,1,3.76-1,11.6,11.6,0,0,1,3.6-.18,7.86,7.86,0,0,1,3.3,1.2A9.29,9.29,0,0,1,223,240a9,9,0,0,1,.93,8.09q-1.51,4-6.67,7a17.3,17.3,0,0,1-4.66,1.94,11.12,11.12,0,0,1-4.5.21,9.66,9.66,0,0,1-4-1.69,11.83,11.83,0,0,1-3.31-3.76Z" transform="translate(-95.15 -196.01)"/><path d="M231.27,246.64l-14.45-31.4,3-1.36,14.45,31.39Z" transform="translate(-95.15 -196.01)"/><path d="M232.81,213l-.09,0,9.33,28.66-3.1,1-10.7-32.86,3.52-1.15L260.1,231.2l.09,0-9.35-28.71,3.11-1,10.7,32.87L261,235.49Z" transform="translate(-95.15 -196.01)"/><path d="M281.43,216.41l-.36-2.76,14.66-1.91L298,229.45l-2.76.36-.77-5.86a17.14,17.14,0,0,1-1.7,3.06,11.84,11.84,0,0,1-2.41,2.49,13.16,13.16,0,0,1-3.35,1.81,19.85,19.85,0,0,1-4.46,1.07,15.73,15.73,0,0,1-6.15-.36,12.94,12.94,0,0,1-5.2-2.78,16.28,16.28,0,0,1-3.86-5.28,26.27,26.27,0,0,1-2.16-7.86,25.05,25.05,0,0,1,0-7.14,15.87,15.87,0,0,1,2.19-6.05,14,14,0,0,1,4.45-4.43,16.81,16.81,0,0,1,6.84-2.29,19,19,0,0,1,5.16,0,13.54,13.54,0,0,1,4.5,1.47,12.33,12.33,0,0,1,3.6,3,14.2,14.2,0,0,1,2.48,4.54l-3.33.44a10.07,10.07,0,0,0-1.9-3.24,9.87,9.87,0,0,0-2.78-2.23,11,11,0,0,0-3.39-1.15,12.32,12.32,0,0,0-3.74-.07,13,13,0,0,0-5.65,2,10.66,10.66,0,0,0-3.56,3.87,14.77,14.77,0,0,0-1.63,5.49,28.42,28.42,0,0,0,.12,6.74,17.79,17.79,0,0,0,1.55,5.32,13.74,13.74,0,0,0,3,4.2,12,12,0,0,0,4.31,2.59,11.78,11.78,0,0,0,5.41.45,13.51,13.51,0,0,0,2.81-.68,11,11,0,0,0,2.73-1.4,10.88,10.88,0,0,0,2.32-2.19,10.29,10.29,0,0,0,1.68-3.07,12.26,12.26,0,0,0,.68-3.53,25.38,25.38,0,0,0-.13-3.76Z" transform="translate(-95.15 -196.01)"/></svg>