<svg id="Layer_1" data-name="Layer 1" xmlns="http://www.w3.org/2000/svg" viewBox="0 0 422.35 422"><title>race-against-time</title><path d="M362.64,222.26,357.38,237l-3.06-1.14,11.57-32.51,12.75,4.54q5.39,1.92,7.52,4.94t.52,7.55a9,9,0,0,1-3,4.44,10.12,10.12,0,0,1-5.14,1.64,5.38,5.38,0,0,1,1.74,2.25,6.69,6.69,0,0,1,.45,2.6,11.73,11.73,0,0,1-.4,2.77c-.24.93-.5,1.82-.77,2.67-.41,1.25-.72,2.29-.94,3.14s-.36,1.53-.44,2.08a5.22,5.22,0,0,0,0,1.34,2,2,0,0,0,.31.85l-.09.27L375,243.31a6.3,6.3,0,0,1,.1-2.52c.21-1,.46-2.06.76-3.14s.61-2.13.92-3.14a19.35,19.35,0,0,0,.62-2.53,5.36,5.36,0,0,0-.14-2.41,4.23,4.23,0,0,0-1-1.73,6.78,6.78,0,0,0-1.73-1.22,17.23,17.23,0,0,0-2.14-.92Zm10.52.79a14.56,14.56,0,0,0,3.32.77,7.59,7.59,0,0,0,3-.24,6.08,6.08,0,0,0,2.44-1.41,6.68,6.68,0,0,0,1.68-2.71,6.52,6.52,0,0,0,.4-3.22,5.27,5.27,0,0,0-1.1-2.48,8,8,0,0,0-2.2-1.85,17,17,0,0,0-2.86-1.33L368,207.11l-4.46,12.52Z" transform="translate(-95.37 -195.11)"/><path d="M379.09,244.67l28.7-23.57,3.23,1.81-5.27,36.63-2.93-1.64,1.8-11.41-13.75-7.67L382,246.31Zm14.1-7.74L405,243.52l2.93-19.14Z" transform="translate(-95.37 -195.11)"/><path d="M440.07,255.64q1.95-4.09,1-7.26a12.52,12.52,0,0,0-4.44-5.91,11,11,0,0,0-5-2.36,10.85,10.85,0,0,0-5,.33,14.67,14.67,0,0,0-4.72,2.47,24,24,0,0,0-4.17,4.14,26.93,26.93,0,0,0-3.05,4.81,14.84,14.84,0,0,0-1.52,5.13,10.55,10.55,0,0,0,.74,5.09,11.76,11.76,0,0,0,3.79,4.72,10.79,10.79,0,0,0,3.61,1.94,10,10,0,0,0,3.74.42,11.32,11.32,0,0,0,3.67-.92,14.85,14.85,0,0,0,3.46-2.09l2.67,2.12a21.73,21.73,0,0,1-4.25,2.66,13.4,13.4,0,0,1-4.71,1.26,13.07,13.07,0,0,1-5.07-.62,16.9,16.9,0,0,1-5.34-3,14.72,14.72,0,0,1-4.43-5.38,13,13,0,0,1-1.17-6,16.63,16.63,0,0,1,1.54-6.16,29,29,0,0,1,3.7-6,25.5,25.5,0,0,1,6.18-5.83,15,15,0,0,1,6.15-2.31,12.86,12.86,0,0,1,6,.67,19.88,19.88,0,0,1,5.61,3.2,16.83,16.83,0,0,1,3.43,3.6,12.19,12.19,0,0,1,1.86,4.14,11.42,11.42,0,0,1,.13,4.48,14.47,14.47,0,0,1-1.72,4.67Z" transform="translate(-95.37 -195.11)"/><path d="M429.49,279.23,455,255.88l15.53,16.95-2.05,1.88-13.33-14.54-9.2,8.43,12,13.13-2.06,1.88-12-13.13-10.12,9.28,13.65,14.89-2,1.89Z" transform="translate(-95.37 -195.11)"/><path d="M459.69,317.13l37.05-2.51,1.58,3.34-25.56,26.76-1.44-3,8.1-8.25-6.74-14.23-11.55,1Zm16,1.89,5.79,12.23L495,317.37Z" transform="translate(-95.37 -195.11)"/><path d="M491.1,354.54l2.68-.75,4,14.24-17.2,4.81-.75-2.68,5.69-1.59a17.14,17.14,0,0,1-3.27-1.25,11.37,11.37,0,0,1-2.81-2,13.05,13.05,0,0,1-2.28-3.05,20,20,0,0,1-1.69-4.26,15.61,15.61,0,0,1-.52-6.14,12.89,12.89,0,0,1,2-5.55,16.06,16.06,0,0,1,4.67-4.57,26,26,0,0,1,7.46-3.26,25.44,25.44,0,0,1,7.08-1,16.08,16.08,0,0,1,6.3,1.3,14,14,0,0,1,5,3.78,16.76,16.76,0,0,1,3.25,6.44,19,19,0,0,1,.73,5.11,13.59,13.59,0,0,1-.81,4.66,12.45,12.45,0,0,1-2.42,4,14.41,14.41,0,0,1-4.14,3.11l-.91-3.24a10.09,10.09,0,0,0,2.93-2.34,9.9,9.9,0,0,0,1.81-3.07,11.45,11.45,0,0,0,.66-3.53,12.44,12.44,0,0,0-.47-3.71,13.14,13.14,0,0,0-2.73-5.31,10.72,10.72,0,0,0-4.35-3,14.9,14.9,0,0,0-5.67-.83,28.08,28.08,0,0,0-6.65,1.09,17.64,17.64,0,0,0-5,2.29,14,14,0,0,0-3.73,3.58,11.56,11.56,0,0,0-1.62,10.05,13.75,13.75,0,0,0,1.08,2.69,11.59,11.59,0,0,0,1.77,2.5,11.47,11.47,0,0,0,2.5,2,10.64,10.64,0,0,0,3.29,1.22,12.3,12.3,0,0,0,3.58.17,24.3,24.3,0,0,0,3.7-.67Z" transform="translate(-95.37 -195.11)"/><path d="M480.85,374.09l35.71,10.21.35,3.68-33.13,16.5-.32-3.35,10.42-5-1.51-15.67-11.19-3Zm14.39,7.2,1.3,13.47L514,386.28Z" transform="translate(-95.37 -195.11)"/><path d="M483.16,406.7l34.55.56-.05,3.27L483.11,410Z" transform="translate(-95.37 -195.11)"/><path d="M512.92,422.56v-.1L483,418.68l.41-3.24,34.28,4.34-.46,3.67-32.46,16,0,.1,30,3.79-.41,3.24L480,442.25l.48-3.76Z" transform="translate(-95.37 -195.11)"/><path d="M488.41,450.84a10.21,10.21,0,0,0-4.05-.13,7.8,7.8,0,0,0-3.12,1.32,8.59,8.59,0,0,0-2.27,2.51,14.08,14.08,0,0,0-1.49,3.41,12.23,12.23,0,0,0-.59,4,7.54,7.54,0,0,0,.72,3.07,5.88,5.88,0,0,0,1.74,2.14,7.47,7.47,0,0,0,2.48,1.27,5.36,5.36,0,0,0,3.38,0,7.09,7.09,0,0,0,2.64-1.69,14.59,14.59,0,0,0,2.17-2.86c.67-1.12,1.34-2.27,2-3.46s1.39-2.32,2.14-3.41a12.34,12.34,0,0,1,2.57-2.75,8.27,8.27,0,0,1,3.28-1.5,9.34,9.34,0,0,1,7.39,2,8.71,8.71,0,0,1,2.22,3,10.8,10.8,0,0,1,.93,4.11,15.43,15.43,0,0,1-.72,5.09,14.4,14.4,0,0,1-2.24,4.67,10.18,10.18,0,0,1-3.17,2.84,9.27,9.27,0,0,1-3.77,1.13,11.12,11.12,0,0,1-4-.45l.89-3a7.68,7.68,0,0,0,3.46.31,6.41,6.41,0,0,0,2.8-1.15,8.09,8.09,0,0,0,2.07-2.24,11.61,11.61,0,0,0,1.32-2.91,11.27,11.27,0,0,0,.53-4.23,7.44,7.44,0,0,0-.95-3.11,6.22,6.22,0,0,0-1.95-2,6,6,0,0,0-2.54-.91,4.69,4.69,0,0,0-3,.53,8.35,8.35,0,0,0-2.32,2,19.32,19.32,0,0,0-2,2.94c-.62,1.1-1.25,2.22-1.91,3.36A37,37,0,0,1,491,468a11.46,11.46,0,0,1-2.52,2.58,7.71,7.71,0,0,1-3.24,1.37,9.23,9.23,0,0,1-4.22-.38,9,9,0,0,1-6.18-5.3q-1.59-3.93.12-9.68a17.17,17.17,0,0,1,2.09-4.58,11.16,11.16,0,0,1,3.16-3.22,9.81,9.81,0,0,1,4.11-1.51,11.94,11.94,0,0,1,5,.51Z" transform="translate(-95.37 -195.11)"/><path d="M504,482.52l-10.43,22.89L491,504.25l4.54-10-28.92-13.18,1.36-3,28.91,13.18,4.54-10Z" transform="translate(-95.37 -195.11)"/><path d="M438.36,546.75l-10.21-11.92,2.51-2.08L453.11,559l-10.28,8.8q-4.33,3.72-8,4.07c-2.46.22-4.73-.87-6.81-3.3a9,9,0,0,1-2.37-4.8,9.93,9.93,0,0,1,1.14-5.27,5.44,5.44,0,0,1-2.83.39,6.71,6.71,0,0,1-2.48-.91,11.75,11.75,0,0,1-2.2-1.71c-.68-.68-1.33-1.35-1.94-2-.87-1-1.63-1.76-2.25-2.37a19.82,19.82,0,0,0-1.59-1.41,4.43,4.43,0,0,0-1.14-.7,2,2,0,0,0-.89-.16l-.19-.22L414,547a6.38,6.38,0,0,1,2.12,1.34c.78.69,1.56,1.43,2.35,2.23s1.55,1.58,2.27,2.35a18.42,18.42,0,0,0,1.89,1.8,5.34,5.34,0,0,0,2.16,1.08,4.13,4.13,0,0,0,2,0,6.55,6.55,0,0,0,1.93-.89,18.09,18.09,0,0,0,1.86-1.4Zm-5.92,8.74a14.51,14.51,0,0,0-2.32,2.49,7.7,7.7,0,0,0-1.26,2.7,6.06,6.06,0,0,0,0,2.81,6.82,6.82,0,0,0,1.52,2.8,6.66,6.66,0,0,0,2.59,2,5.33,5.33,0,0,0,2.7.27,7.82,7.82,0,0,0,2.7-1,16.89,16.89,0,0,0,2.58-1.83l7.87-6.75-8.65-10.09Z" transform="translate(-95.37 -195.11)"/><path d="M410.75,549.88l6.22,36.6-3.16,1.91-29.2-22.74,2.88-1.74,9,7.23L410,563l-2.11-11.4ZM410.48,566l-11.59,7,15.17,12Z" transform="translate(-95.37 -195.11)"/><path d="M370.92,597.39q2.58,3.72,5.82,4.44a12.37,12.37,0,0,0,7.33-.92,11,11,0,0,0,4.53-3.15,10.77,10.77,0,0,0,2.2-4.5,14.76,14.76,0,0,0,.2-5.33,23.65,23.65,0,0,0-1.52-5.67,26.64,26.64,0,0,0-2.66-5,15,15,0,0,0-3.7-3.87,10.52,10.52,0,0,0-4.78-1.89,11.74,11.74,0,0,0-6,.95,10.88,10.88,0,0,0-3.48,2.17,10,10,0,0,0-2.22,3,11.39,11.39,0,0,0-1,3.64,15,15,0,0,0,.1,4l-3.17,1.27a21.18,21.18,0,0,1-.19-5,13.47,13.47,0,0,1,1.24-4.71,13.25,13.25,0,0,1,3.06-4.09,16.85,16.85,0,0,1,5.23-3.16,14.84,14.84,0,0,1,6.87-1.17,12.84,12.84,0,0,1,5.77,2,16.55,16.55,0,0,1,4.58,4.39,28.82,28.82,0,0,1,3.35,6.19,25.22,25.22,0,0,1,2,8.25,14.89,14.89,0,0,1-1,6.49,12.65,12.65,0,0,1-3.55,4.83,19.75,19.75,0,0,1-5.56,3.29,16.72,16.72,0,0,1-4.82,1.18,12.1,12.1,0,0,1-4.52-.44,11.24,11.24,0,0,1-3.95-2.12,14.53,14.53,0,0,1-3.21-3.81Z" transform="translate(-95.37 -195.11)"/><path d="M355.73,576.47l7.54,33.73-22.44,5-.61-2.72,19.26-4.3L356.76,596l-17.38,3.89-.61-2.72,17.38-3.89-3-13.39-19.73,4.4-.6-2.71Z" transform="translate(-95.37 -195.11)"/><path d="M307.8,583.71l-16.24,33.4-3.68-.29-10.51-35.49,3.35.26,3.12,11.13,15.7,1.23,4.91-10.5Zm-9.58,12.93-13.49-1.06,5.33,18.62Z" transform="translate(-95.37 -195.11)"/><path d="M259.74,592.38l-.68,2.7-14.33-3.6,4.35-17.32,2.7.68-1.44,5.73a16.24,16.24,0,0,1,2.71-2.22,11.44,11.44,0,0,1,3.16-1.43,12.85,12.85,0,0,1,3.78-.46,20.12,20.12,0,0,1,4.54.64,15.75,15.75,0,0,1,5.58,2.6,12.8,12.8,0,0,1,3.82,4.5,16.13,16.13,0,0,1,1.65,6.33,26.21,26.21,0,0,1-.87,8.09,25.47,25.47,0,0,1-2.66,6.63,16,16,0,0,1-4.26,4.82,13.94,13.94,0,0,1-5.77,2.49,16.79,16.79,0,0,1-7.21-.38,18.94,18.94,0,0,1-4.79-1.9,13.43,13.43,0,0,1-3.64-3,12.18,12.18,0,0,1-2.27-4.08,14.26,14.26,0,0,1-.64-5.14l3.26.82a10.13,10.13,0,0,0,.58,3.71,9.84,9.84,0,0,0,1.77,3.09,11,11,0,0,0,2.73,2.32,12.23,12.23,0,0,0,3.45,1.44,13.35,13.35,0,0,0,6,.27,10.83,10.83,0,0,0,4.74-2.3,14.89,14.89,0,0,0,3.53-4.51,28.36,28.36,0,0,0,2.36-6.31,17.93,17.93,0,0,0,.52-5.51,14,14,0,0,0-1.27-5,11.63,11.63,0,0,0-3.05-4,11.8,11.8,0,0,0-4.87-2.41,13.7,13.7,0,0,0-2.86-.4,11.29,11.29,0,0,0-3.05.3,11,11,0,0,0-3,1.18,10.57,10.57,0,0,0-2.69,2.25,12.37,12.37,0,0,0-1.93,3,24.5,24.5,0,0,0-1.26,3.54Z" transform="translate(-95.37 -195.11)"/><path d="M247.86,573.79l-26.6,25.91-3.37-1.52L220,561.23l3.06,1.38-.83,11.53,14.35,6.48,8.18-8.21Zm-13.39,8.91-12.34-5.57-1.3,19.32Z" transform="translate(-95.37 -195.11)"/><path d="M218.39,559.54l-17.55,29.78L198,587.66l17.55-29.78Z" transform="translate(-95.37 -195.11)"/><path d="M189.84,577.45l.07.06,18.22-24,2.6,2L189.85,583l-2.95-2.23,2.33-36.12-.08-.06-18.24,24.06-2.6-2,20.88-27.55,3,2.3Z" transform="translate(-95.37 -195.11)"/><path d="M177.56,542.09a10.25,10.25,0,0,0,2.12-3.45,7.71,7.71,0,0,0,.41-3.36,8.63,8.63,0,0,0-1-3.22,14.3,14.3,0,0,0-2.22-3,12,12,0,0,0-3.16-2.49,7.54,7.54,0,0,0-3-.91,6.14,6.14,0,0,0-2.73.44,7.62,7.62,0,0,0-2.33,1.52,5.41,5.41,0,0,0-1.73,2.91,7,7,0,0,0,.16,3.13,14.56,14.56,0,0,0,1.39,3.31c.64,1.13,1.31,2.29,2,3.46s1.33,2.36,1.9,3.56a12.54,12.54,0,0,1,1.1,3.59,8.21,8.21,0,0,1-.33,3.6,8.64,8.64,0,0,1-2.42,3.55,8.29,8.29,0,0,1-3,1.84A8.39,8.39,0,0,1,161,557a10.73,10.73,0,0,1-4-1.24,15.4,15.4,0,0,1-4.06-3.15,14.58,14.58,0,0,1-2.93-4.27,10.18,10.18,0,0,1-.88-4.16,9.15,9.15,0,0,1,.89-3.83,11.1,11.1,0,0,1,2.39-3.27l2.15,2.26a7.75,7.75,0,0,0-2,2.85,6.37,6.37,0,0,0-.39,3,8.07,8.07,0,0,0,.91,2.91,11.45,11.45,0,0,0,1.87,2.59,11.16,11.16,0,0,0,3.39,2.56,7.32,7.32,0,0,0,3.18.73,6.06,6.06,0,0,0,2.73-.68,5.79,5.79,0,0,0,2.05-1.75,4.66,4.66,0,0,0,1-2.83,8.33,8.33,0,0,0-.59-3,19.4,19.4,0,0,0-1.56-3.18c-.65-1.08-1.31-2.19-2-3.33a37.47,37.47,0,0,1-1.78-3.44,11.35,11.35,0,0,1-1-3.47,7.81,7.81,0,0,1,.43-3.49,9.35,9.35,0,0,1,2.43-3.47,9,9,0,0,1,7.68-2.72c2.79.38,5.57,2,8.33,4.92a17.34,17.34,0,0,1,2.93,4.1A11.13,11.13,0,0,1,183.4,536a9.77,9.77,0,0,1-.74,4.31,11.85,11.85,0,0,1-2.92,4.07Z" transform="translate(-95.37 -195.11)"/><path d="M142.36,539.87l-14.69-20.42,2.26-1.62,6.39,8.88,25.8-18.56,1.9,2.65-25.79,18.56,6.39,8.88Z" transform="translate(-95.37 -195.11)"/><path d="M119.21,451l15.42-2.9.56,3.22-33.92,6.39-2.5-13.31q-1.06-5.61.48-9c1-2.24,3.11-3.66,6.26-4.25a9,9,0,0,1,5.34.33,10.14,10.14,0,0,1,4,3.62,5.34,5.34,0,0,1,1.06-2.64,6.82,6.82,0,0,1,2-1.7,12,12,0,0,1,2.58-1c.93-.26,1.83-.48,2.71-.68,1.28-.27,2.34-.53,3.18-.77s1.5-.46,2-.67a5.1,5.1,0,0,0,1.17-.64,2,2,0,0,0,.58-.7l.28,0,.72,3.53a6.52,6.52,0,0,1-2.22,1.18c-1,.33-2,.64-3.1.92s-2.15.55-3.17.79a19.74,19.74,0,0,0-2.5.74,5.36,5.36,0,0,0-2,1.34,4.15,4.15,0,0,0-1,1.77,6.3,6.3,0,0,0-.19,2.11,17.36,17.36,0,0,0,.29,2.31Zm-4.62-9.48a14.06,14.06,0,0,0-1-3.25,7.55,7.55,0,0,0-1.7-2.44,6,6,0,0,0-2.44-1.4,6.64,6.64,0,0,0-3.19-.08,6.34,6.34,0,0,0-3,1.27,5.31,5.31,0,0,0-1.59,2.2,7.82,7.82,0,0,0-.49,2.83,17,17,0,0,0,.3,3.14L103.41,454l13.06-2.46Z" transform="translate(-95.37 -195.11)"/><path d="M130.29,425.52,95.45,412.67l-.08-3.7,34.28-14,.07,3.36L119,402.57l.33,15.74,10.93,3.85Zm-13.81-8.25-.29-13.54-18,7.15Z" transform="translate(-95.37 -195.11)"/><path d="M108.89,367.34c-3,.26-5.25,1.2-6.74,2.84A12.4,12.4,0,0,0,99.3,377a10.51,10.51,0,0,0,3.3,9.65,14.77,14.77,0,0,0,4.53,2.81,23.24,23.24,0,0,0,5.68,1.5,26.44,26.44,0,0,0,5.69.19,15,15,0,0,0,5.19-1.28,10.59,10.59,0,0,0,4-3.22,11.81,11.81,0,0,0,2.15-5.66,11.11,11.11,0,0,0-.15-4.09,10.2,10.2,0,0,0-1.53-3.44,11.74,11.74,0,0,0-2.66-2.7,15.12,15.12,0,0,0-3.55-1.93l.47-3.37a21.36,21.36,0,0,1,4.45,2.32,13.07,13.07,0,0,1,5.5,8.11,16.88,16.88,0,0,1,.14,6.11,14.64,14.64,0,0,1-2.4,6.54,13,13,0,0,1-4.56,4,16.74,16.74,0,0,1-6.09,1.79,29.24,29.24,0,0,1-7-.16,25.29,25.29,0,0,1-8.15-2.38,15.09,15.09,0,0,1-5.12-4.14,12.77,12.77,0,0,1-2.43-5.47,19.9,19.9,0,0,1-.09-6.46A16.93,16.93,0,0,1,98,371a12.09,12.09,0,0,1,2.62-3.7,11.38,11.38,0,0,1,3.8-2.38,14.69,14.69,0,0,1,4.9-.89Z" transform="translate(-95.37 -195.11)"/><path d="M134.59,364.53l-33-10.21,6.79-22,2.66.82L105.2,352l11.92,3.68,5.26-17,2.66.82-5.26,17,13.12,4.06,6-19.31,2.66.82Z" transform="translate(-95.37 -195.11)"/><path d="M152.1,319.37l-20.83-30.74,2.09-3.05,36,8.6-1.9,2.78-11.2-2.85-8.9,13,6.64,9.5Zm-6.41-14.76,7.65-11.16-18.8-4.68Z" transform="translate(-95.37 -195.11)"/><path d="M168.59,273.37l-2-1.93,10.27-10.63,12.84,12.4-1.93,2-4.25-4.1a17.26,17.26,0,0,1,.57,3.45,11.93,11.93,0,0,1-.33,3.46,13.48,13.48,0,0,1-1.48,3.5,20,20,0,0,1-2.83,3.61,15.57,15.57,0,0,1-5,3.55,12.92,12.92,0,0,1-5.8,1.07,16,16,0,0,1-6.31-1.72,26,26,0,0,1-6.58-4.79,25.24,25.24,0,0,1-4.43-5.61,16,16,0,0,1-2.06-6.09,13.89,13.89,0,0,1,.73-6.25,16.69,16.69,0,0,1,3.91-6.06,19,19,0,0,1,4-3.21,13.78,13.78,0,0,1,4.43-1.65,12.24,12.24,0,0,1,4.67.07,14.31,14.31,0,0,1,4.77,2l-2.33,2.41a10,10,0,0,0-7.07-1.35,11.18,11.18,0,0,0-3.37,1.21,12.51,12.51,0,0,0-3,2.28,13.12,13.12,0,0,0-3.2,5,10.77,10.77,0,0,0-.37,5.25,14.69,14.69,0,0,0,2.15,5.31,28.23,28.23,0,0,0,4.29,5.19,18,18,0,0,0,4.52,3.2,13.92,13.92,0,0,0,5,1.4,11.64,11.64,0,0,0,5-.66,11.88,11.88,0,0,0,4.52-3,14.33,14.33,0,0,0,1.77-2.29,11.22,11.22,0,0,0,1.72-5.95,10.66,10.66,0,0,0-.61-3.46,12.68,12.68,0,0,0-1.66-3.18,26.43,26.43,0,0,0-2.45-2.86Z" transform="translate(-95.37 -195.11)"/><path d="M190.63,272.34l-9.29-36,3-2.17,31,20.21-2.73,2L203,250l-12.75,9.24,3.07,11.17Zm-1.09-16.06,11-7.94-16.12-10.72Z" transform="translate(-95.37 -195.11)"/><path d="M217.64,253.81l-17.14-30,2.84-1.62,17.14,30Z" transform="translate(-95.37 -195.11)"/><path d="M216.25,220.14l-.09,0L228,247.91l-3,1.28-13.54-31.8,3.4-1.45,30.2,20,.09,0-11.83-27.79,3-1.27,13.54,31.8-3.49,1.48Z" transform="translate(-95.37 -195.11)"/><path d="M253.05,227.05a10.29,10.29,0,0,0,1.93,3.56,7.73,7.73,0,0,0,2.71,2,8.63,8.63,0,0,0,3.31.7,14.62,14.62,0,0,0,3.7-.43,12.27,12.27,0,0,0,3.74-1.5,7.54,7.54,0,0,0,2.28-2.16,6.13,6.13,0,0,0,1-2.59,7.42,7.42,0,0,0-.16-2.77,5.37,5.37,0,0,0-1.65-3,7,7,0,0,0-2.79-1.42,14.66,14.66,0,0,0-3.57-.44c-1.3,0-2.64,0-4,0s-2.7,0-4-.13a12.41,12.41,0,0,1-3.66-.84,8.15,8.15,0,0,1-3-2.08,8.62,8.62,0,0,1-1.88-3.86,8.59,8.59,0,0,1,1.35-6.95,10.69,10.69,0,0,1,3.08-2.87,15.21,15.21,0,0,1,4.76-1.95,14.74,14.74,0,0,1,5.16-.42,10.3,10.3,0,0,1,4.05,1.32,9.19,9.19,0,0,1,2.87,2.68,11,11,0,0,1,1.65,3.7l-3,.74a7.69,7.69,0,0,0-1.48-3.15,6.47,6.47,0,0,0-2.4-1.84,8.15,8.15,0,0,0-3-.66,12.2,12.2,0,0,0-3.18.33,11.29,11.29,0,0,0-3.92,1.67,7.48,7.48,0,0,0-2.21,2.39,6,6,0,0,0-.77,2.71,5.85,5.85,0,0,0,.49,2.65,4.71,4.71,0,0,0,1.94,2.29,8.56,8.56,0,0,0,2.91,1,20,20,0,0,0,3.54.22l3.87-.05c1.31,0,2.6.05,3.87.17a11.61,11.61,0,0,1,3.5.88,7.92,7.92,0,0,1,2.81,2.11,9.16,9.16,0,0,1,1.79,3.83,9,9,0,0,1-1.46,8q-2.6,3.34-8.42,4.76a17.29,17.29,0,0,1-5,.51,11,11,0,0,1-4.37-1.12,9.77,9.77,0,0,1-3.37-2.78A12.15,12.15,0,0,1,250,227.8Z" transform="translate(-95.37 -195.11)"/><path d="M272.54,197.64l25-2.53.28,2.77L287,199l3.2,31.61-3.24.33-3.2-31.61-10.89,1.1Z" transform="translate(-95.37 -195.11)"/></svg>