<svg id="Layer_1" data-name="Layer 1" xmlns="http://www.w3.org/2000/svg" viewBox="0 0 423.41 422.53"><title>time-waits-for</title><path d="M412.71,259.28l.08.05,22.57-21.09,2.82,1.82-26.35,24.13-3-1.95,9.8-30-.08-.06L395.25,253.5l-3-1.95,11.22-33.88,2.75,1.76-10,29.21.08.05,23-20.83,3.06,2Z" transform="translate(-94.81 -195.22)"/><path d="M415.68,266.77l33.49-16,2.71,2.52L438,287.58l-2.46-2.29L440,274.63,428.51,263.9l-10.37,5.16Zm15.54-4.15,9.91,9.22L448.54,254Z" transform="translate(-94.81 -195.22)"/><path d="M439.06,289.71,465.2,267.1l2.13,2.46L441.2,292.18Z" transform="translate(-94.81 -195.22)"/><path d="M471.21,273.67l14.61,20.47-2.26,1.62-6.36-8.91-25.87,18.46-1.89-2.66,25.86-18.46-6.36-8.9Z" transform="translate(-94.81 -195.22)"/><path d="M468,311.7a10.25,10.25,0,0,0-3,2.73,7.46,7.46,0,0,0-1.32,3.13,8.61,8.61,0,0,0,.11,3.38,14.49,14.49,0,0,0,1.3,3.48,12.65,12.65,0,0,0,2.36,3.27,7.58,7.58,0,0,0,2.65,1.7,6.15,6.15,0,0,0,2.74.33,7.54,7.54,0,0,0,2.66-.82,5.44,5.44,0,0,0,2.47-2.32,7,7,0,0,0,.71-3.05,14.47,14.47,0,0,0-.43-3.57c-.3-1.27-.62-2.56-1-3.88s-.62-2.63-.84-3.94a11.91,11.91,0,0,1-.06-3.76,8,8,0,0,1,1.3-3.36,8.63,8.63,0,0,1,3.3-2.75,8.56,8.56,0,0,1,7.07-.36,10.75,10.75,0,0,1,3.53,2.3,15.26,15.26,0,0,1,3,4.15,14.67,14.67,0,0,1,1.65,4.91,10.25,10.25,0,0,1-.3,4.25A9.37,9.37,0,0,1,494,321a11,11,0,0,1-3.2,2.49l-1.44-2.77a7.91,7.91,0,0,0,2.7-2.19,6.5,6.5,0,0,0,1.2-2.77,8.05,8.05,0,0,0-.07-3,11.79,11.79,0,0,0-1.08-3,11.15,11.15,0,0,0-2.56-3.4,7.34,7.34,0,0,0-2.86-1.57,6,6,0,0,0-2.81-.1,5.88,5.88,0,0,0-2.45,1.11,4.71,4.71,0,0,0-1.76,2.44,8.46,8.46,0,0,0-.27,3.06,19.37,19.37,0,0,0,.63,3.49c.33,1.22.66,2.47,1,3.74a37.56,37.56,0,0,1,.76,3.8,11.2,11.2,0,0,1,0,3.61,7.72,7.72,0,0,1-1.37,3.23,9.15,9.15,0,0,1-3.29,2.67,9,9,0,0,1-8.13.5q-3.87-1.71-6.65-7a17.16,17.16,0,0,1-1.69-4.75,11,11,0,0,1,0-4.51,9.66,9.66,0,0,1,1.89-3.94,12.07,12.07,0,0,1,3.93-3.1Z" transform="translate(-94.81 -195.22)"/><path d="M481.45,380l34.41-3.23L517.94,399l-2.77.26-1.78-18.93L501,381.46l1.61,17.2-2.77.26-1.62-17.2-16.44,1.54Z" transform="translate(-94.81 -195.22)"/><path d="M501,403.18a24,24,0,0,1,7,1.5,17,17,0,0,1,5.57,3.42,14.4,14.4,0,0,1,3.58,5.23,15.58,15.58,0,0,1,1,6.95,16.64,16.64,0,0,1-1.87,7,14.37,14.37,0,0,1-4.22,4.82,16.77,16.77,0,0,1-6,2.69,23.9,23.9,0,0,1-7.18.56,23.24,23.24,0,0,1-7-1.49,17.15,17.15,0,0,1-5.55-3.41,14.38,14.38,0,0,1-3.58-5.29,17.72,17.72,0,0,1,.92-14,14.47,14.47,0,0,1,4.23-4.78,16.83,16.83,0,0,1,5.95-2.64A23.86,23.86,0,0,1,501,403.18Zm-16.38,15.1a12.25,12.25,0,0,0,.89,5.85,11.5,11.5,0,0,0,3.12,4.2,14.48,14.48,0,0,0,4.73,2.62,23.08,23.08,0,0,0,5.75,1.12,21.8,21.8,0,0,0,6.5-.47,14,14,0,0,0,5-2.24,11.09,11.09,0,0,0,3.33-3.87,13.23,13.23,0,0,0,1.41-5.3,12.14,12.14,0,0,0-.92-5.81,11.63,11.63,0,0,0-3.17-4.2,14.73,14.73,0,0,0-4.76-2.62,22.56,22.56,0,0,0-5.74-1.12,23,23,0,0,0-5.9.36,14.24,14.24,0,0,0-5,2,11.33,11.33,0,0,0-3.62,3.76A12.7,12.7,0,0,0,484.63,418.28Z" transform="translate(-94.81 -195.22)"/><path d="M495.38,444l-15.24-3.76.83-3.16,33.51,8.27-3.24,13.14q-1.38,5.55-4.17,8c-1.87,1.62-4.35,2-7.46,1.28a9,9,0,0,1-4.72-2.52,10.21,10.21,0,0,1-2.14-5,5.25,5.25,0,0,1-2.06,2,6.74,6.74,0,0,1-2.55.71,12,12,0,0,1-2.79-.12c-1-.15-1.86-.32-2.74-.5-1.28-.29-2.35-.49-3.21-.62a19.73,19.73,0,0,0-2.12-.23,5.08,5.08,0,0,0-1.33.09,2,2,0,0,0-.82.4l-.28-.07.82-3.51a6.51,6.51,0,0,1,2.51-.15c1,.11,2.09.26,3.2.45s2.18.39,3.22.59a18.79,18.79,0,0,0,2.57.37,5.46,5.46,0,0,0,2.4-.38,4.2,4.2,0,0,0,1.6-1.21,6.45,6.45,0,0,0,1.05-1.84,17.41,17.41,0,0,0,.7-2.22Zm.27,10.55a14.2,14.2,0,0,0-.44,3.38,7.63,7.63,0,0,0,.54,2.92,6.14,6.14,0,0,0,1.63,2.29,6.76,6.76,0,0,0,2.87,1.39,6.46,6.46,0,0,0,3.25.09,5.23,5.23,0,0,0,2.35-1.35,7.73,7.73,0,0,0,1.63-2.37,17.14,17.14,0,0,0,1-3L511,447.87l-12.91-3.18Z" transform="translate(-94.81 -195.22)"/><path d="M476.45,524.72l.05-.07-23.85-18.43,2-2.59L482,524.76l-2.26,2.93L443.63,525l-.05.08,23.89,18.46-2,2.58L438.12,525l2.32-3Z" transform="translate(-94.81 -195.22)"/><path d="M447.83,540.13a23.48,23.48,0,0,1,4,6,17.12,17.12,0,0,1,1.59,6.34,14.45,14.45,0,0,1-1.11,6.25,15.57,15.57,0,0,1-4.15,5.65,16.73,16.73,0,0,1-6.22,3.67,14.48,14.48,0,0,1-6.38.5,16.92,16.92,0,0,1-6.16-2.28,24.14,24.14,0,0,1-5.53-4.62,23.55,23.55,0,0,1-3.92-5.93,16.94,16.94,0,0,1-1.57-6.32,14.37,14.37,0,0,1,1.14-6.28,17.76,17.76,0,0,1,10.44-9.35,14.37,14.37,0,0,1,6.36-.45,16.85,16.85,0,0,1,6.1,2.27A24,24,0,0,1,447.83,540.13Zm-22.26-.68a12.25,12.25,0,0,0-3.46,4.8,11.59,11.59,0,0,0-.71,5.18,14.52,14.52,0,0,0,1.55,5.19,22.65,22.65,0,0,0,3.32,4.82,21.86,21.86,0,0,0,5,4.22,14,14,0,0,0,5.16,1.91,11,11,0,0,0,5.09-.43,13.32,13.32,0,0,0,4.71-2.8,12,12,0,0,0,3.41-4.79,11.75,11.75,0,0,0,.68-5.22,14.75,14.75,0,0,0-1.57-5.2,23.3,23.3,0,0,0-7.78-8.69,14.58,14.58,0,0,0-5-2.11,11.35,11.35,0,0,0-5.21.16A12.45,12.45,0,0,0,425.57,539.45Z" transform="translate(-94.81 -195.22)"/><path d="M407.64,568.15,406,565.68l10.08-6.78,1.66,2.47Z" transform="translate(-94.81 -195.22)"/><path d="M405.56,573.91a24.13,24.13,0,0,1,2.17,6.84,17.2,17.2,0,0,1-.22,6.54,14.57,14.57,0,0,1-2.78,5.7,15.62,15.62,0,0,1-5.55,4.29,16.58,16.58,0,0,1-7,1.81,14.23,14.23,0,0,1-6.27-1.27,16.79,16.79,0,0,1-5.3-3.89,24,24,0,0,1-4-6,23.18,23.18,0,0,1-2.14-6.78,16.86,16.86,0,0,1,.23-6.51,14.4,14.4,0,0,1,2.82-5.72,17.85,17.85,0,0,1,12.61-6.12,14.5,14.5,0,0,1,6.24,1.32,16.85,16.85,0,0,1,5.24,3.87A23.83,23.83,0,0,1,405.56,573.91Zm-21.22-6.78a12.4,12.4,0,0,0-4.65,3.67,11.71,11.71,0,0,0-2.11,4.78,14.57,14.57,0,0,0,.07,5.42,22.39,22.39,0,0,0,1.86,5.55,22,22,0,0,0,3.62,5.42,14.08,14.08,0,0,0,4.44,3.26,10.93,10.93,0,0,0,5,1,13.23,13.23,0,0,0,5.3-1.39,12.06,12.06,0,0,0,4.59-3.67,11.66,11.66,0,0,0,2.09-4.83,14.62,14.62,0,0,0-.08-5.43,22.12,22.12,0,0,0-1.86-5.55,22.36,22.36,0,0,0-3.23-5,14.5,14.5,0,0,0-4.21-3.4,11.28,11.28,0,0,0-5.05-1.28A12.69,12.69,0,0,0,384.34,567.13Z" transform="translate(-94.81 -195.22)"/><path d="M371,603.23l.1,0-7.95-29.07,3.15-.86,9.11,33.33-3.57,1-27.22-23.86-.09,0,8,29.13-3.15.86-9.11-33.34,3.66-1Z" transform="translate(-94.81 -195.22)"/><path d="M335.76,581l3.58,34.38-22.87,2.38-.28-2.77,19.62-2-1.3-12.42-17.71,1.85-.29-2.77,17.72-1.85L332.8,584.1l-20.1,2.09-.28-2.77Z" transform="translate(-94.81 -195.22)"/><path d="M201,554.08l-.09-.05-22.47,21.19-2.83-1.81,26.25-24.24,3,1.93-9.68,30,.09.05,23.18-21.41,3,1.93-11.08,33.94-2.75-1.76,9.85-29.25-.08,0-22.88,20.93-3.07-2Z" transform="translate(-94.81 -195.22)"/><path d="M198,546.6l-33.43,16.17-2.71-2.51,13.71-34.37,2.47,2.28-4.43,10.67,11.56,10.68,10.36-5.2Zm-15.53,4.22-9.94-9.19-7.34,17.92Z" transform="translate(-94.81 -195.22)"/><path d="M174.5,523.77l-26,22.72L146.32,544l26-22.72Z" transform="translate(-94.81 -195.22)"/><path d="M142.41,539.93l-14.7-20.41,2.26-1.63,6.4,8.88,25.79-18.56,1.9,2.65-25.79,18.56,6.4,8.88Z" transform="translate(-94.81 -195.22)"/><path d="M145.51,501.92a10.35,10.35,0,0,0,3-2.74,7.8,7.8,0,0,0,1.3-3.13,8.6,8.6,0,0,0-.12-3.38,14.42,14.42,0,0,0-1.33-3.49,12.29,12.29,0,0,0-2.36-3.25,7.53,7.53,0,0,0-2.66-1.69,6.17,6.17,0,0,0-2.75-.32,7.72,7.72,0,0,0-2.65.83,5.43,5.43,0,0,0-2.46,2.33,7.09,7.09,0,0,0-.7,3.06,14.46,14.46,0,0,0,.45,3.56c.3,1.27.63,2.56,1,3.88s.64,2.63.86,3.94a12.23,12.23,0,0,1,.08,3.76,7.89,7.89,0,0,1-1.29,3.36,8.55,8.55,0,0,1-3.29,2.77,8.38,8.38,0,0,1-3.4.95,8.5,8.5,0,0,1-3.66-.56,10.87,10.87,0,0,1-3.54-2.28,15.46,15.46,0,0,1-3-4.15,14.4,14.4,0,0,1-1.67-4.9,10.2,10.2,0,0,1,.28-4.24,9.27,9.27,0,0,1,1.9-3.45,11.1,11.1,0,0,1,3.19-2.5l1.46,2.76a7.82,7.82,0,0,0-2.69,2.21,6.5,6.5,0,0,0-1.2,2.77,8.27,8.27,0,0,0,.09,3.05,11.6,11.6,0,0,0,1.1,3,10.91,10.91,0,0,0,2.57,3.38,7.38,7.38,0,0,0,2.86,1.56,6.14,6.14,0,0,0,2.82.09,6,6,0,0,0,2.44-1.12,4.75,4.75,0,0,0,1.75-2.45,8.49,8.49,0,0,0,.26-3.06,19.49,19.49,0,0,0-.65-3.49c-.33-1.22-.67-2.46-1-3.74a37,37,0,0,1-.78-3.79,11.21,11.21,0,0,1,0-3.61,7.73,7.73,0,0,1,1.36-3.24,9.14,9.14,0,0,1,3.28-2.68,9,9,0,0,1,8.12-.54q3.88,1.69,6.68,7a17.15,17.15,0,0,1,1.72,4.73,11,11,0,0,1,0,4.51,9.62,9.62,0,0,1-1.88,3.95,11.94,11.94,0,0,1-3.91,3.13Z" transform="translate(-94.81 -195.22)"/><path d="M131.73,433.64,97.34,437l-2.18-22.17,2.78-.27,1.85,18.92,12.42-1.22-1.69-17.2,2.77-.27L115,432l16.43-1.61Z" transform="translate(-94.81 -195.22)"/><path d="M112.08,410.55a23.62,23.62,0,0,1-7-1.46,17.28,17.28,0,0,1-5.59-3.4,14.53,14.53,0,0,1-3.6-5.22,15.65,15.65,0,0,1-1-6.94,16.69,16.69,0,0,1,1.85-7,14.35,14.35,0,0,1,4.19-4.84,16.73,16.73,0,0,1,6-2.71,24.12,24.12,0,0,1,7.17-.6,23.3,23.3,0,0,1,7,1.46,16.9,16.9,0,0,1,5.56,3.4,14.27,14.27,0,0,1,3.6,5.27,17.75,17.75,0,0,1-.86,14,14.34,14.34,0,0,1-4.21,4.79,16.67,16.67,0,0,1-5.93,2.66A23.85,23.85,0,0,1,112.08,410.55Zm16.31-15.16a12.33,12.33,0,0,0-.91-5.85,11.59,11.59,0,0,0-3.14-4.18,14.31,14.31,0,0,0-4.74-2.6,22.27,22.27,0,0,0-5.76-1.1,21.7,21.7,0,0,0-6.49.49,14,14,0,0,0-5,2.27A11,11,0,0,0,99,388.3a13.22,13.22,0,0,0-1.38,5.3,12,12,0,0,0,.94,5.81,11.81,11.81,0,0,0,3.18,4.18,14.47,14.47,0,0,0,4.77,2.6,23.3,23.3,0,0,0,11.65.72,14.33,14.33,0,0,0,5-2,11.25,11.25,0,0,0,3.6-3.78A12.57,12.57,0,0,0,128.39,395.39Z" transform="translate(-94.81 -195.22)"/><path d="M117.53,369.7l15.26,3.7-.82,3.16-33.54-8.13,3.19-13.15q1.34-5.55,4.13-8T113.2,346a9,9,0,0,1,4.73,2.51,10,10,0,0,1,2.16,4.94,5.35,5.35,0,0,1,2.06-2,6.88,6.88,0,0,1,2.54-.72,12,12,0,0,1,2.79.11c1,.15,1.87.31,2.75.49,1.28.28,2.35.48,3.21.61a18.73,18.73,0,0,0,2.12.21,5.12,5.12,0,0,0,1.33-.09,2.05,2.05,0,0,0,.81-.4l.28.07-.8,3.51a6.3,6.3,0,0,1-2.51.16c-1-.1-2.09-.25-3.2-.43s-2.18-.38-3.22-.58a18.86,18.86,0,0,0-2.58-.36,5.41,5.41,0,0,0-2.39.39,4.2,4.2,0,0,0-1.6,1.21,6.63,6.63,0,0,0-1,1.85,18.72,18.72,0,0,0-.69,2.23Zm-.31-10.54a13.65,13.65,0,0,0,.42-3.38,7.5,7.5,0,0,0-.55-2.93,6.1,6.1,0,0,0-1.64-2.27,6.8,6.8,0,0,0-2.88-1.39,6.51,6.51,0,0,0-3.24-.07,5.29,5.29,0,0,0-2.35,1.36,8.15,8.15,0,0,0-1.62,2.37,17.53,17.53,0,0,0-1,3l-2.44,10.08,12.93,3.13Z" transform="translate(-94.81 -195.22)"/><path d="M136.14,288.9l-.06.08L160,307.31l-2,2.59-27.43-21,2.25-2.93L169,288.46l.05-.08L145,270l2-2.59,27.44,21-2.31,3Z" transform="translate(-94.81 -195.22)"/><path d="M164.69,273.38a23.74,23.74,0,0,1-4-6,16.92,16.92,0,0,1-1.61-6.33,14.42,14.42,0,0,1,1.08-6.25,15.4,15.4,0,0,1,4.13-5.67,16.62,16.62,0,0,1,6.2-3.7,14.34,14.34,0,0,1,6.38-.52,16.83,16.83,0,0,1,6.18,2.25,23.84,23.84,0,0,1,5.54,4.6,23.4,23.4,0,0,1,3.95,5.91,17.14,17.14,0,0,1,1.6,6.32A14.54,14.54,0,0,1,193,270.3a17.81,17.81,0,0,1-10.41,9.39,14.38,14.38,0,0,1-6.36.48,17.06,17.06,0,0,1-6.1-2.25A23.9,23.9,0,0,1,164.69,273.38ZM187,274a12.25,12.25,0,0,0,3.44-4.82,11.57,11.57,0,0,0,.69-5.18,14.51,14.51,0,0,0-1.57-5.18,22.63,22.63,0,0,0-3.34-4.8,21.56,21.56,0,0,0-5-4.2,14,14,0,0,0-5.17-1.9,11.13,11.13,0,0,0-5.09.46,13.16,13.16,0,0,0-4.69,2.82,12,12,0,0,0-3.39,4.81,11.68,11.68,0,0,0-.66,5.21,14.53,14.53,0,0,0,1.59,5.2,23.09,23.09,0,0,0,7.82,8.65,14.11,14.11,0,0,0,5,2.09,11.36,11.36,0,0,0,5.21-.17A12.65,12.65,0,0,0,187,274Z" transform="translate(-94.81 -195.22)"/><path d="M204.73,245.21l1.67,2.47-10.05,6.81L194.68,252Z" transform="translate(-94.81 -195.22)"/><path d="M206.82,239.42a23.35,23.35,0,0,1-2.2-6.83,17,17,0,0,1,.19-6.54,14.5,14.5,0,0,1,2.76-5.71A15.61,15.61,0,0,1,213.1,216a16.73,16.73,0,0,1,7-1.85,14.29,14.29,0,0,1,6.28,1.26,16.79,16.79,0,0,1,5.31,3.86,24,24,0,0,1,4.07,5.94,23.72,23.72,0,0,1,2.17,6.77,17.12,17.12,0,0,1-.21,6.52,14.33,14.33,0,0,1-2.8,5.73,16,16,0,0,1-5.66,4.37,16.16,16.16,0,0,1-6.92,1.8,14.41,14.41,0,0,1-6.25-1.3,16.59,16.59,0,0,1-5.25-3.84A23.83,23.83,0,0,1,206.82,239.42Zm21.24,6.69a12.19,12.19,0,0,0,4.63-3.68,11.49,11.49,0,0,0,2.09-4.8,14.32,14.32,0,0,0-.09-5.41,22.66,22.66,0,0,0-1.88-5.54,22,22,0,0,0-3.64-5.41,14.15,14.15,0,0,0-4.45-3.24,11.11,11.11,0,0,0-5-1,13,13,0,0,0-5.29,1.42,12,12,0,0,0-4.58,3.69,11.7,11.7,0,0,0-2.07,4.83,14.85,14.85,0,0,0,.1,5.43,22.21,22.21,0,0,0,1.89,5.55,22.61,22.61,0,0,0,3.24,4.93,14.63,14.63,0,0,0,4.23,3.38,11.3,11.3,0,0,0,5.05,1.26A12.57,12.57,0,0,0,228.06,246.11Z" transform="translate(-94.81 -195.22)"/><path d="M241.26,210l-.09,0,8.07,29-3.14.87-9.26-33.3,3.56-1,27.33,23.74.09,0-8.09-29.09,3.15-.87,9.25,33.29-3.65,1Z" transform="translate(-94.81 -195.22)"/><path d="M276.55,232.05l-3.73-34.35,22.86-2.48L296,198l-19.62,2.13,1.35,12.41,17.71-1.92.3,2.77L278,215.29l1.48,13.64,20.09-2.18.3,2.77Z" transform="translate(-94.81 -195.22)"/></svg>