<svg id="Layer_1" data-name="Layer 1" xmlns="http://www.w3.org/2000/svg" viewBox="0 0 422.05 421.96"><title>time-flies</title><path d="M334.24,221.74,341.5,188l21.77,4.68-.59,2.72-18.58-4-2.62,12.21,16.89,3.63-.58,2.72-16.9-3.63-3.46,16.14Z" transform="translate(-95.55 -185.52)"/><path d="M357.47,227l11.71-32.51,3.07,1.1-10.76,29.9,17.43,6.28-.94,2.62Z" transform="translate(-95.55 -185.52)"/><path d="M380.08,235.84l14.7-31.28,3,1.39L383,237.23Z" transform="translate(-95.55 -185.52)"/><path d="M388.14,239.42l17.8-29.62,19.7,11.84L424.21,224,407.3,213.87l-6.43,10.69,15.27,9.18-1.44,2.38L399.44,227l-7.07,11.77,17.32,10.41-1.44,2.38Z" transform="translate(-95.55 -185.52)"/><path d="M417.28,245.56a10.21,10.21,0,0,0-1.67,3.68,7.64,7.64,0,0,0,0,3.4,8.53,8.53,0,0,0,1.43,3.06,14.48,14.48,0,0,0,2.58,2.69,12.32,12.32,0,0,0,3.45,2.07,7.61,7.61,0,0,0,3.11.52,6.33,6.33,0,0,0,2.65-.78,7.73,7.73,0,0,0,2.12-1.8,5.39,5.39,0,0,0,1.35-3.11,7,7,0,0,0-.55-3.08,14.08,14.08,0,0,0-1.8-3.11c-.78-1-1.58-2.11-2.42-3.18s-1.61-2.18-2.33-3.3a12.08,12.08,0,0,1-1.54-3.42,8,8,0,0,1-.13-3.61,8.62,8.62,0,0,1,1.95-3.83,8.33,8.33,0,0,1,2.76-2.21,8.62,8.62,0,0,1,3.59-.91,11,11,0,0,1,4.15.72,15.79,15.79,0,0,1,4.43,2.62,14.51,14.51,0,0,1,3.44,3.87,10.09,10.09,0,0,1,1.4,4,9.09,9.09,0,0,1-.4,3.91,11,11,0,0,1-2,3.54l-2.42-2a7.64,7.64,0,0,0,1.61-3.08,6.3,6.3,0,0,0,0-3,8,8,0,0,0-1.27-2.77,11.77,11.77,0,0,0-2.18-2.34A11,11,0,0,0,435,232a7.29,7.29,0,0,0-3.24-.32,6,6,0,0,0-2.62,1,5.86,5.86,0,0,0-1.81,2,4.68,4.68,0,0,0-.66,2.93,8.49,8.49,0,0,0,1,2.92,19.9,19.9,0,0,0,2,3c.78,1,1.57,2,2.37,3.05a36.3,36.3,0,0,1,2.2,3.19,11.14,11.14,0,0,1,1.41,3.32,7.56,7.56,0,0,1,0,3.51,9.1,9.1,0,0,1-2,3.75,9,9,0,0,1-7.27,3.67q-4.23,0-8.89-3.84a16.87,16.87,0,0,1-3.42-3.69,11,11,0,0,1-1.76-4.16,9.68,9.68,0,0,1,.19-4.37,12,12,0,0,1,2.38-4.4Z" transform="translate(-95.55 -185.52)"/><path d="M449.54,292.35l29-18.79,12.11,18.7-2.34,1.51L478,277.82l-10.48,6.78,9.4,14.5-2.34,1.52-9.39-14.5-13.86,9Z" transform="translate(-95.55 -185.52)"/><path d="M462.26,312.55l31.25-14.76,1.4,2.95-28.73,13.57,7.91,16.76-2.52,1.19Z" transform="translate(-95.55 -185.52)"/><path d="M472.07,334.74,504.56,323l1.11,3.06-32.49,11.78Z" transform="translate(-95.55 -185.52)"/><path d="M475.23,342.93l33.52-8.4,5.59,22.3-2.7.68-4.79-19.14-12.11,3,4.33,17.28-2.7.67L492,342.08l-13.31,3.34,4.91,19.6-2.7.68Z" transform="translate(-95.55 -185.52)"/><path d="M491.53,367.87a10.1,10.1,0,0,0-3.79,1.42,7.73,7.73,0,0,0-2.38,2.42,8.58,8.58,0,0,0-1.15,3.18,14.8,14.8,0,0,0-.08,3.72,12.64,12.64,0,0,0,1,3.91,7.75,7.75,0,0,0,1.83,2.56,6.22,6.22,0,0,0,2.43,1.32,7.34,7.34,0,0,0,2.77.22,5.32,5.32,0,0,0,3.15-1.24,6.88,6.88,0,0,0,1.79-2.57,14.29,14.29,0,0,0,.93-3.47c.19-1.29.37-2.61.53-4s.4-2.68.68-4a12.36,12.36,0,0,1,1.33-3.51,7.94,7.94,0,0,1,2.46-2.64,8.79,8.79,0,0,1,10.78.95,10.82,10.82,0,0,1,2.43,3.44,15.27,15.27,0,0,1,1.28,5,14.63,14.63,0,0,1-.29,5.17,10.28,10.28,0,0,1-1.85,3.83,9.33,9.33,0,0,1-3.06,2.49,11.17,11.17,0,0,1-3.88,1.12l-.32-3.11a7.74,7.74,0,0,0,3.32-1,6.21,6.21,0,0,0,2.14-2.12,7.94,7.94,0,0,0,1.06-2.86,11.34,11.34,0,0,0,.11-3.19,11.07,11.07,0,0,0-1.12-4.11,7.42,7.42,0,0,0-2.06-2.52,6.06,6.06,0,0,0-2.58-1.13,5.81,5.81,0,0,0-2.69.13,4.65,4.65,0,0,0-2.54,1.61,8.5,8.5,0,0,0-1.38,2.74,19.64,19.64,0,0,0-.71,3.48c-.14,1.25-.3,2.53-.47,3.83s-.41,2.58-.7,3.81a11.21,11.21,0,0,1-1.35,3.35,7.66,7.66,0,0,1-2.47,2.5,10.25,10.25,0,0,1-11.78-1.28q-3-3-3.58-9a17.48,17.48,0,0,1,.19-5,10.94,10.94,0,0,1,1.7-4.18,9.52,9.52,0,0,1,3.22-3,11.78,11.78,0,0,1,4.8-1.43Z" transform="translate(-95.55 -185.52)"/><path d="M481.32,423.79l33.8,7.18-4.63,21.79-2.72-.58,4-18.59L499.51,431l-3.59,16.9-2.72-.57,3.59-16.91L480.64,427Z" transform="translate(-95.55 -185.52)"/><path d="M476.06,447l32.54,11.64-1.1,3.07-29.92-10.7-6.24,17.45-2.62-.94Z" transform="translate(-95.55 -185.52)"/><path d="M467.31,469.67l31.31,14.63-1.38,3-31.31-14.63Z" transform="translate(-95.55 -185.52)"/><path d="M463.74,477.73l29.66,17.74-11.8,19.74-2.39-1.43,10.13-16.93-10.72-6.41-9.14,15.28-2.38-1.43L476.24,489,464.45,482l-10.37,17.35-2.39-1.43Z" transform="translate(-95.55 -185.52)"/><path d="M457.67,506.88a10.21,10.21,0,0,0-3.68-1.67,7.78,7.78,0,0,0-3.4,0,8.46,8.46,0,0,0-3,1.45,14.18,14.18,0,0,0-2.69,2.58,12.27,12.27,0,0,0-2.06,3.45,7.43,7.43,0,0,0-.51,3.11,6,6,0,0,0,.78,2.65,7.42,7.42,0,0,0,1.81,2.11,5.36,5.36,0,0,0,3.11,1.35,6.86,6.86,0,0,0,3.08-.56,14.25,14.25,0,0,0,3.1-1.8q1.57-1.17,3.18-2.43c1.08-.84,2.17-1.62,3.29-2.34a12.4,12.4,0,0,1,3.42-1.55,8.12,8.12,0,0,1,3.61-.13,8.59,8.59,0,0,1,3.83,1.94,8.42,8.42,0,0,1,2.22,2.75,8.62,8.62,0,0,1,.91,3.59,10.74,10.74,0,0,1-.71,4.15A15.41,15.41,0,0,1,471.3,530a14.68,14.68,0,0,1-3.85,3.45,10.12,10.12,0,0,1-4,1.41,9.14,9.14,0,0,1-3.92-.4,10.83,10.83,0,0,1-3.54-2l2-2.42A7.8,7.8,0,0,0,461,531.7a6.56,6.56,0,0,0,3,0,8.19,8.19,0,0,0,2.77-1.28,12.56,12.56,0,0,0,4.44-5.89,7.42,7.42,0,0,0,.31-3.24,6.15,6.15,0,0,0-1-2.62,6,6,0,0,0-2-1.81,4.75,4.75,0,0,0-2.93-.65,8.66,8.66,0,0,0-2.92,1,19.9,19.9,0,0,0-3,2c-1,.79-2,1.58-3,2.38a38,38,0,0,1-3.19,2.21,11.5,11.5,0,0,1-3.31,1.42,7.56,7.56,0,0,1-3.51,0,9.1,9.1,0,0,1-3.76-2,9,9,0,0,1-3.69-7.26q0-4.23,3.82-8.89a17,17,0,0,1,3.69-3.44,11,11,0,0,1,4.15-1.76,9.66,9.66,0,0,1,4.37.17,12,12,0,0,1,4.41,2.38Z" transform="translate(-95.55 -185.52)"/><path d="M410.94,539.26l18.85,29-18.67,12.15L409.6,578l15.93-10.37-6.8-10.46-14.49,9.42-1.52-2.33,14.49-9.42-9-13.84Z" transform="translate(-95.55 -185.52)"/><path d="M390.78,552l14.83,31.21-2.94,1.4L389,555.92l-16.74,8-1.19-2.51Z" transform="translate(-95.55 -185.52)"/><path d="M368.6,561.86l11.85,32.47-3.07,1.12L365.53,563Z" transform="translate(-95.55 -185.52)"/><path d="M360.42,565l8.48,33.51-22.29,5.64-.69-2.7,19.13-4.84L362,584.55l-17.26,4.37-.69-2.7,17.27-4.37-3.37-13.31-19.59,5-.68-2.7Z" transform="translate(-95.55 -185.52)"/><path d="M335.49,581.4a10.1,10.1,0,0,0-1.43-3.79,7.73,7.73,0,0,0-2.42-2.38,8.75,8.75,0,0,0-3.18-1.14,14.83,14.83,0,0,0-3.72-.07,12.35,12.35,0,0,0-3.91,1,7.75,7.75,0,0,0-2.56,1.83,6.14,6.14,0,0,0-1.31,2.43,7.4,7.4,0,0,0-.22,2.78A5.38,5.38,0,0,0,318,585.2a7.06,7.06,0,0,0,2.57,1.78,14.42,14.42,0,0,0,3.47.92c1.3.18,2.62.36,4,.53s2.68.39,4,.67a12.05,12.05,0,0,1,3.51,1.32,8.14,8.14,0,0,1,2.65,2.45,8.71,8.71,0,0,1,1.34,4.09,8.62,8.62,0,0,1-.38,3.51,8.71,8.71,0,0,1-1.89,3.19,10.82,10.82,0,0,1-3.44,2.43,15.52,15.52,0,0,1-5,1.29,14.66,14.66,0,0,1-5.17-.28,10.27,10.27,0,0,1-3.83-1.84,9.05,9.05,0,0,1-2.49-3,10.82,10.82,0,0,1-1.13-3.89l3.1-.32a7.74,7.74,0,0,0,1.05,3.32,6.41,6.41,0,0,0,2.13,2.14,8,8,0,0,0,2.86,1,12.58,12.58,0,0,0,7.3-1,7.4,7.4,0,0,0,2.51-2.07,6.17,6.17,0,0,0,1.13-2.58,5.81,5.81,0,0,0-.14-2.69,4.65,4.65,0,0,0-1.61-2.54,8.76,8.76,0,0,0-2.75-1.38,19.49,19.49,0,0,0-3.48-.69c-1.25-.15-2.53-.3-3.83-.47a38.5,38.5,0,0,1-3.82-.69,11.51,11.51,0,0,1-3.34-1.34,7.88,7.88,0,0,1-2.51-2.47,9.13,9.13,0,0,1-1.26-4,9,9,0,0,1,2.52-7.74q3-3,9-3.6a17.49,17.49,0,0,1,5,.18,10.93,10.93,0,0,1,4.18,1.69,9.61,9.61,0,0,1,3,3.21,11.94,11.94,0,0,1,1.45,4.8Z" transform="translate(-95.55 -185.52)"/><path d="M279.58,571.3l-7.11,33.82-21.8-4.59.58-2.72,18.6,3.91,2.57-12.21L255.51,586l.57-2.72L273,586.79l3.4-16.16Z" transform="translate(-95.55 -185.52)"/><path d="M256.31,566.09l-11.57,32.57-3.07-1.1,10.63-29.94-17.46-6.2.94-2.63Z" transform="translate(-95.55 -185.52)"/><path d="M233.66,557.39l-14.57,31.34-3-1.38L230.7,556Z" transform="translate(-95.55 -185.52)"/><path d="M225.59,553.84l-17.68,29.69-19.76-11.76,1.43-2.39,16.95,10.09,6.38-10.72-15.3-9.11,1.42-2.39,15.31,9.1,7-11.79L204,544.22l1.43-2.39Z" transform="translate(-95.55 -185.52)"/><path d="M196.43,547.83a10.43,10.43,0,0,0,1.66-3.7,7.89,7.89,0,0,0,0-3.39,8.46,8.46,0,0,0-1.45-3A14.2,14.2,0,0,0,194,535a12.17,12.17,0,0,0-3.46-2.06,7.57,7.57,0,0,0-3.11-.5,6,6,0,0,0-2.64.79,7.29,7.29,0,0,0-2.11,1.81,5.36,5.36,0,0,0-1.35,3.11,7,7,0,0,0,.57,3.08,14.49,14.49,0,0,0,1.81,3.1c.78,1,1.6,2.1,2.44,3.17s1.62,2.17,2.34,3.29a12.44,12.44,0,0,1,1.56,3.42,8.22,8.22,0,0,1,.14,3.6,8.83,8.83,0,0,1-8.27,7,10.93,10.93,0,0,1-4.15-.71,15.14,15.14,0,0,1-4.44-2.6,14.78,14.78,0,0,1-3.47-3.85,10.07,10.07,0,0,1-1.41-4,9.29,9.29,0,0,1,.39-3.92,11.13,11.13,0,0,1,1.94-3.55l2.43,2a7.65,7.65,0,0,0-1.6,3.09,6.3,6.3,0,0,0,0,3A8,8,0,0,0,172.9,557a11.49,11.49,0,0,0,2.19,2.33,11.37,11.37,0,0,0,3.7,2.1,7.43,7.43,0,0,0,3.24.3,6,6,0,0,0,2.62-1,5.77,5.77,0,0,0,1.81-2,4.74,4.74,0,0,0,.64-2.93,8.27,8.27,0,0,0-1-2.92,19.83,19.83,0,0,0-2-3c-.79-1-1.58-2-2.39-3a38.6,38.6,0,0,1-2.21-3.18,11.53,11.53,0,0,1-1.43-3.31,7.7,7.7,0,0,1,0-3.51,9.1,9.1,0,0,1,2-3.76,9,9,0,0,1,7.25-3.7q4.23,0,8.9,3.8a17.26,17.26,0,0,1,3.45,3.68,11.13,11.13,0,0,1,1.77,4.14,9.81,9.81,0,0,1-.17,4.37,11.91,11.91,0,0,1-2.37,4.42Z" transform="translate(-95.55 -185.52)"/><path d="M164,501.16,135,520.07l-12.19-18.65,2.33-1.52,10.4,15.91L146,509l-9.45-14.46L138.9,493l9.45,14.46,13.82-9Z" transform="translate(-95.55 -185.52)"/><path d="M151.17,481.05,120,496,118.58,493l28.67-13.7-8-16.72,2.51-1.2Z" transform="translate(-95.55 -185.52)"/><path d="M141.26,458.87l-32.44,11.92-1.12-3.07,32.44-11.91Z" transform="translate(-95.55 -185.52)"/><path d="M138.07,450.71l-33.49,8.54L98.9,437l2.69-.69,4.88,19.11,12.09-3.08-4.4-17.26,2.7-.69,4.4,17.26,13.3-3.4-5-19.58,2.69-.69Z" transform="translate(-95.55 -185.52)"/><path d="M121.66,425.82a10.16,10.16,0,0,0,3.78-1.44,7.69,7.69,0,0,0,2.37-2.42,8.51,8.51,0,0,0,1.14-3.19,14.39,14.39,0,0,0,.06-3.72,12.22,12.22,0,0,0-1-3.9,7.67,7.67,0,0,0-1.84-2.56,6.11,6.11,0,0,0-2.44-1.31,7.53,7.53,0,0,0-2.77-.21,5.39,5.39,0,0,0-3.15,1.25A7.13,7.13,0,0,0,116,410.9a15,15,0,0,0-.91,3.48c-.18,1.29-.35,2.61-.52,4s-.38,2.68-.66,4a12.4,12.4,0,0,1-1.31,3.52,8.14,8.14,0,0,1-2.45,2.65,8.63,8.63,0,0,1-4.08,1.35,8.41,8.41,0,0,1-3.51-.37,8.72,8.72,0,0,1-3.2-1.88A11,11,0,0,1,97,424.15a15.52,15.52,0,0,1-1.3-5,14.44,14.44,0,0,1,.27-5.17,10.12,10.12,0,0,1,1.84-3.83,9.07,9.07,0,0,1,3-2.5,11,11,0,0,1,3.88-1.14l.33,3.1a7.65,7.65,0,0,0-3.31,1.06,6.32,6.32,0,0,0-2.14,2.13,8.19,8.19,0,0,0-1,2.86,11.8,11.8,0,0,0-.09,3.2,11,11,0,0,0,1.13,4.1,7.53,7.53,0,0,0,2.08,2.51,6,6,0,0,0,2.58,1.12,5.81,5.81,0,0,0,2.69-.14,4.66,4.66,0,0,0,2.53-1.62,8.25,8.25,0,0,0,1.37-2.75,18.63,18.63,0,0,0,.7-3.48c.14-1.25.29-2.53.46-3.83a38.5,38.5,0,0,1,.68-3.82,11.56,11.56,0,0,1,1.33-3.35,7.75,7.75,0,0,1,2.46-2.51,9.26,9.26,0,0,1,4-1.27,9,9,0,0,1,7.75,2.51q3,3,3.61,9a17.43,17.43,0,0,1-.16,5,11.06,11.06,0,0,1-1.68,4.19,9.75,9.75,0,0,1-3.21,3A11.94,11.94,0,0,1,122,429Z" transform="translate(-95.55 -185.52)"/><path d="M131.64,369.85,97.81,362.8l4.54-21.8,2.73.56-3.88,18.61,12.22,2.55,3.52-16.92,2.73.57-3.53,16.91,16.17,3.37Z" transform="translate(-95.55 -185.52)"/><path d="M136.8,346.59l-32.59-11.5L105.3,332l30,10.58,6.17-17.47,2.62.92Z" transform="translate(-95.55 -185.52)"/><path d="M145.46,323.92l-31.37-14.5,1.37-3L146.83,321Z" transform="translate(-95.55 -185.52)"/><path d="M149,315.87l-29.74-17.61L131,278.47l2.39,1.42-10,17L134,303.23l9.07-15.33,2.4,1.42-9.08,15.33,11.81,7,10.3-17.39,2.4,1.42Z" transform="translate(-95.55 -185.52)"/><path d="M154.94,286.67a10.18,10.18,0,0,0,3.7,1.64,7.59,7.59,0,0,0,3.39,0,8.63,8.63,0,0,0,3.05-1.45,14.21,14.21,0,0,0,2.67-2.6,12,12,0,0,0,2.05-3.46,7.41,7.41,0,0,0,.5-3.11,6.11,6.11,0,0,0-.79-2.64,7.48,7.48,0,0,0-1.82-2.11,5.37,5.37,0,0,0-3.11-1.34,7,7,0,0,0-3.08.57,14.55,14.55,0,0,0-3.1,1.82c-1,.79-2.1,1.6-3.17,2.44a40.28,40.28,0,0,1-3.28,2.35,12,12,0,0,1-3.41,1.57,8.11,8.11,0,0,1-3.61.15,8.59,8.59,0,0,1-3.84-1.93,8.38,8.38,0,0,1-2.22-2.74,8.5,8.5,0,0,1-.94-3.59,10.72,10.72,0,0,1,.7-4.15,15.5,15.5,0,0,1,2.59-4.45,14.6,14.6,0,0,1,3.84-3.47,10.15,10.15,0,0,1,4-1.42,9.13,9.13,0,0,1,3.92.38,10.84,10.84,0,0,1,3.55,1.94l-1.95,2.43a7.78,7.78,0,0,0-3.09-1.6,6.46,6.46,0,0,0-3,0,8.07,8.07,0,0,0-2.76,1.29,11.5,11.5,0,0,0-2.32,2.2,10.91,10.91,0,0,0-2.09,3.71,7.4,7.4,0,0,0-.3,3.24,6,6,0,0,0,1,2.62,5.84,5.84,0,0,0,2,1.79,4.61,4.61,0,0,0,2.93.64,8.27,8.27,0,0,0,2.92-1,18.64,18.64,0,0,0,2.94-2c1-.79,2-1.59,3-2.39a37.87,37.87,0,0,1,3.17-2.22,11.3,11.3,0,0,1,3.31-1.44,7.83,7.83,0,0,1,3.51,0,9.23,9.23,0,0,1,3.77,1.95,9,9,0,0,1,3.71,7.25q0,4.23-3.78,8.91a17.45,17.45,0,0,1-3.67,3.45,11,11,0,0,1-4.15,1.78,9.67,9.67,0,0,1-4.37-.16,11.92,11.92,0,0,1-4.41-2.36Z" transform="translate(-95.55 -185.52)"/><path d="M201.54,254.1l-19-28.89L201.19,213l1.53,2.32-15.89,10.44,6.85,10.43,14.44-9.49,1.53,2.33-14.44,9.49,9.06,13.8Z" transform="translate(-95.55 -185.52)"/><path d="M221.64,241.27l-15-31.15,2.94-1.42,13.76,28.65,16.7-8,1.2,2.51Z" transform="translate(-95.55 -185.52)"/><path d="M243.77,231.32l-12-32.41,3.06-1.14,12,32.42Z" transform="translate(-95.55 -185.52)"/><path d="M252,228.1l-8.61-33.47,22.27-5.73.69,2.69-19.1,4.92,3.1,12.09,17.25-4.44.7,2.7L251,211.29l3.42,13.3,19.57-5,.69,2.7Z" transform="translate(-95.55 -185.52)"/><path d="M276.77,211.65a10.3,10.3,0,0,0,1.45,3.78,7.83,7.83,0,0,0,2.43,2.37,8.66,8.66,0,0,0,3.19,1.12,14.39,14.39,0,0,0,3.72.06,12.2,12.2,0,0,0,3.9-1,7.49,7.49,0,0,0,2.55-1.84,6.23,6.23,0,0,0,1.31-2.44,7.55,7.55,0,0,0,.2-2.77,5.33,5.33,0,0,0-1.26-3.15,7,7,0,0,0-2.58-1.77,14.51,14.51,0,0,0-3.48-.9q-1.93-.27-4-.51c-1.36-.16-2.68-.38-4-.66a12.2,12.2,0,0,1-3.52-1.3,8.21,8.21,0,0,1-2.65-2.44,8.6,8.6,0,0,1-1.36-4.08,8.31,8.31,0,0,1,.37-3.52A8.52,8.52,0,0,1,275,189.4a10.81,10.81,0,0,1,3.43-2.45,15.38,15.38,0,0,1,5-1.32,14.67,14.67,0,0,1,5.17.26,10.35,10.35,0,0,1,3.85,1.83,9.29,9.29,0,0,1,2.5,3,11,11,0,0,1,1.14,3.88l-3.1.34a7.7,7.7,0,0,0-1.06-3.32,6.41,6.41,0,0,0-2.14-2.13,8.1,8.1,0,0,0-2.86-1,11.8,11.8,0,0,0-3.2-.09,11.05,11.05,0,0,0-4.1,1.15,7.38,7.38,0,0,0-2.5,2.08,6.1,6.1,0,0,0-1.12,2.58,5.81,5.81,0,0,0,.15,2.69,4.69,4.69,0,0,0,1.62,2.53,8.6,8.6,0,0,0,2.76,1.37,20.44,20.44,0,0,0,3.48.68l3.84.45c1.3.17,2.57.39,3.81.67a11.62,11.62,0,0,1,3.36,1.33,7.85,7.85,0,0,1,2.51,2.46,9.17,9.17,0,0,1,1.28,4,9,9,0,0,1-2.49,7.76c-2,2-5,3.2-9,3.63a17.17,17.17,0,0,1-5-.16,11,11,0,0,1-4.19-1.67,9.64,9.64,0,0,1-3-3.2,12,12,0,0,1-1.46-4.79Z" transform="translate(-95.55 -185.52)"/></svg>