<svg id="Layer_1" data-name="Layer 1" xmlns="http://www.w3.org/2000/svg" viewBox="0 0 423.25 421.24"><title>time-stood-still</title><path d="M345.77,223.42a10.34,10.34,0,0,0,0,4,7.82,7.82,0,0,0,1.41,3.09,8.74,8.74,0,0,0,2.57,2.2,14.39,14.39,0,0,0,3.45,1.39,12.3,12.3,0,0,0,4,.47,7.57,7.57,0,0,0,3.05-.8,6.07,6.07,0,0,0,2.09-1.8,7.56,7.56,0,0,0,1.2-2.51,5.47,5.47,0,0,0,0-3.39,7.31,7.31,0,0,0-1.77-2.59,14.47,14.47,0,0,0-2.92-2.09c-1.14-.64-2.31-1.27-3.52-1.91s-2.36-1.32-3.47-2.05A11.77,11.77,0,0,1,349,215a8.09,8.09,0,0,1-1.59-3.23,9.27,9.27,0,0,1,1.81-7.44,8.68,8.68,0,0,1,2.9-2.3,10.66,10.66,0,0,1,4.08-1,15.24,15.24,0,0,1,5.12.57,14.48,14.48,0,0,1,4.72,2.11,10.06,10.06,0,0,1,2.93,3.09,9.2,9.2,0,0,1,1.24,3.73,11.14,11.14,0,0,1-.33,4l-3-.81a7.73,7.73,0,0,0,.21-3.47,6.31,6.31,0,0,0-1.23-2.76,8.25,8.25,0,0,0-2.29-2,11.8,11.8,0,0,0-3-1.23,11,11,0,0,0-4.24-.41,7.2,7.2,0,0,0-3.08,1,6.1,6.1,0,0,0-2,2,5.81,5.81,0,0,0-.83,2.56,4.63,4.63,0,0,0,.6,3,8.66,8.66,0,0,0,2.08,2.27,19.25,19.25,0,0,0,3,1.89c1.11.58,2.25,1.18,3.41,1.81a37.43,37.43,0,0,1,3.32,2,11.55,11.55,0,0,1,2.65,2.45A7.84,7.84,0,0,1,367,226a9.36,9.36,0,0,1-.26,4.23,9,9,0,0,1-5.12,6.33q-3.89,1.69-9.68.15a17.08,17.08,0,0,1-4.65-2,11.07,11.07,0,0,1-3.3-3.07,9.6,9.6,0,0,1-1.62-4.06,11.93,11.93,0,0,1,.36-5Z" transform="translate(-94.53 -196.76)"/><path d="M377,206.94l23.17,9.77-1.08,2.57L389,215,376.63,244.3l-3-1.27L386,213.75l-10.08-4.25Z" transform="translate(-94.53 -196.76)"/><path d="M394.19,232.78a24,24,0,0,1,4.6-5.51,17.16,17.16,0,0,1,5.63-3.33,14.52,14.52,0,0,1,6.3-.72,15.45,15.45,0,0,1,6.6,2.37,16.68,16.68,0,0,1,5.29,4.91,14.19,14.19,0,0,1,2.3,6,16.92,16.92,0,0,1-.42,6.56,23.88,23.88,0,0,1-2.86,6.61,23.5,23.5,0,0,1-4.56,5.45,17.19,17.19,0,0,1-5.61,3.31,14.39,14.39,0,0,1-6.35.69,17.77,17.77,0,0,1-11.94-7.34,14.37,14.37,0,0,1-2.24-6,16.74,16.74,0,0,1,.44-6.49A24.27,24.27,0,0,1,394.19,232.78Zm5.7,21.53a12.29,12.29,0,0,0,5.59,1.95,11.55,11.55,0,0,0,5.17-.8,14.29,14.29,0,0,0,4.52-3,22.28,22.28,0,0,0,3.68-4.56,21.81,21.81,0,0,0,2.63-6,14.09,14.09,0,0,0,.36-5.5,10.91,10.91,0,0,0-1.87-4.75,13.13,13.13,0,0,0-4-3.72,12,12,0,0,0-5.57-1.9,11.64,11.64,0,0,0-5.19.84,14.68,14.68,0,0,0-4.54,3,23.41,23.41,0,0,0-6.11,9.94,14.37,14.37,0,0,0-.6,5.38,11.29,11.29,0,0,0,1.63,4.94A12.54,12.54,0,0,0,399.89,254.31Z" transform="translate(-94.53 -196.76)"/><path d="M425.34,252.44a23.75,23.75,0,0,1,5.55-4.54,17,17,0,0,1,6.16-2.22,14.47,14.47,0,0,1,6.32.48,15.57,15.57,0,0,1,6,3.57,16.6,16.6,0,0,1,4.27,5.82,14.32,14.32,0,0,1,1.13,6.3,16.58,16.58,0,0,1-1.65,6.36,24,24,0,0,1-4,6,23.37,23.37,0,0,1-5.51,4.49,17,17,0,0,1-6.13,2.2,14.38,14.38,0,0,1-6.36-.51,17.7,17.7,0,0,1-10.35-9.46,14.33,14.33,0,0,1-1.08-6.28,16.89,16.89,0,0,1,1.65-6.3A24.07,24.07,0,0,1,425.34,252.44Zm1.55,22.22a12.24,12.24,0,0,0,5.12,3,11.45,11.45,0,0,0,5.23.19,14.16,14.16,0,0,0,5-2.06,22.1,22.1,0,0,0,4.47-3.78,21.66,21.66,0,0,0,3.7-5.37,14.11,14.11,0,0,0,1.39-5.33,11.1,11.1,0,0,0-.94-5,13.19,13.19,0,0,0-3.26-4.4,11.94,11.94,0,0,0-5.11-2.91,11.53,11.53,0,0,0-5.25-.16,14.52,14.52,0,0,0-5,2.08,23.28,23.28,0,0,0-7.87,8.61,14.33,14.33,0,0,0-1.6,5.17,11.37,11.37,0,0,0,.67,5.17A12.58,12.58,0,0,0,426.89,274.66Z" transform="translate(-94.53 -196.76)"/><path d="M439.3,289.23l27.56-20.86,7.12,9.41c.58.77,1.13,1.53,1.66,2.3a19.72,19.72,0,0,1,1.38,2.39,13.56,13.56,0,0,1,1,2.56,12.14,12.14,0,0,1,.38,2.81,10.59,10.59,0,0,1-.72,4.1,17.78,17.78,0,0,1-2,3.68,22.62,22.62,0,0,1-2.67,3.17,30.28,30.28,0,0,1-2.84,2.48,28.59,28.59,0,0,1-2.93,1.94,22.88,22.88,0,0,1-3.19,1.55,18.21,18.21,0,0,1-3.37,1,12.67,12.67,0,0,1-3.48.13,10.78,10.78,0,0,1-3.3-.78,13.43,13.43,0,0,1-2.81-1.6,18.89,18.89,0,0,1-2.46-2.21c-.76-.83-1.49-1.7-2.19-2.62Zm4.19.92,4.73,6.24a32.11,32.11,0,0,0,2.71,3.15,12.08,12.08,0,0,0,3.45,2.36,7.84,7.84,0,0,0,3.58.84,12.85,12.85,0,0,0,3.64-.56,17.62,17.62,0,0,0,3.48-1.49,27.78,27.78,0,0,0,3.11-2,30.4,30.4,0,0,0,2.89-2.5,15.27,15.27,0,0,0,2.4-3,12.12,12.12,0,0,0,1.46-3.39,9.12,9.12,0,0,0,.14-3.84,10.35,10.35,0,0,0-1.36-3.54,37.36,37.36,0,0,0-2.39-3.55l-4.72-6.24Z" transform="translate(-94.53 -196.76)"/><path d="M476.9,328.85a10.12,10.12,0,0,0-3.26,2.4,7.79,7.79,0,0,0-1.63,3,8.64,8.64,0,0,0-.24,3.38,14.1,14.1,0,0,0,.94,3.6,12.13,12.13,0,0,0,2,3.49,7.5,7.5,0,0,0,2.46,2,6.08,6.08,0,0,0,2.69.61,7.63,7.63,0,0,0,2.73-.54,5.39,5.39,0,0,0,2.7-2.05,7,7,0,0,0,1-3,14.51,14.51,0,0,0-.06-3.59c-.16-1.3-.35-2.62-.56-4s-.35-2.69-.43-4a12.1,12.1,0,0,1,.33-3.75,8.18,8.18,0,0,1,1.64-3.21,8.71,8.71,0,0,1,3.57-2.39,8.36,8.36,0,0,1,3.49-.58,8.61,8.61,0,0,1,3.58.95,10.93,10.93,0,0,1,3.27,2.66,15.51,15.51,0,0,1,2.59,4.44,14.57,14.57,0,0,1,1.12,5.06,10.23,10.23,0,0,1-.73,4.19,9.25,9.25,0,0,1-2.27,3.22,11.17,11.17,0,0,1-3.43,2.14L497.27,340a7.63,7.63,0,0,0,2.91-1.9,6.48,6.48,0,0,0,1.49-2.63,8.09,8.09,0,0,0,.24-3,11.74,11.74,0,0,0-.77-3.1,11.11,11.11,0,0,0-2.19-3.65,7.48,7.48,0,0,0-2.68-1.86,6.13,6.13,0,0,0-2.78-.39,5.9,5.9,0,0,0-2.56.86,4.71,4.71,0,0,0-2,2.24,8.29,8.29,0,0,0-.58,3,19,19,0,0,0,.26,3.53c.2,1.25.4,2.52.59,3.82s.31,2.59.36,3.86a11.42,11.42,0,0,1-.38,3.59,7.85,7.85,0,0,1-1.7,3.07,9.12,9.12,0,0,1-3.55,2.31,9,9,0,0,1-8.14-.34q-3.68-2.1-5.88-7.68a17.45,17.45,0,0,1-1.2-4.9,11,11,0,0,1,.5-4.48,9.64,9.64,0,0,1,2.29-3.72,12,12,0,0,1,4.23-2.69Z" transform="translate(-94.53 -196.76)"/><path d="M508.73,344.11l6,24.44-2.71.66-2.59-10.63-30.87,7.52-.77-3.17,30.87-7.53L506,344.77Z" transform="translate(-94.53 -196.76)"/><path d="M481.05,379.15l34.2-5,.47,3.23-34.2,5Z" transform="translate(-94.53 -196.76)"/><path d="M482.43,387.89,517,386.14l.16,3.26L485.38,391l.94,18.5-2.78.15Z" transform="translate(-94.53 -196.76)"/><path d="M483.33,411.32l34.45,2.76-.26,3.25-31.68-2.53-1.48,18.47-2.77-.23Z" transform="translate(-94.53 -196.76)"/><path d="M480,476.88a10,10,0,0,0-4-.72,7.7,7.7,0,0,0-3.28.85,8.46,8.46,0,0,0-2.62,2.14,14.87,14.87,0,0,0-2,3.16,12.35,12.35,0,0,0-1.16,3.85,7.42,7.42,0,0,0,.26,3.14,6,6,0,0,0,1.4,2.38,7.37,7.37,0,0,0,2.27,1.61,5.45,5.45,0,0,0,3.34.56,7.15,7.15,0,0,0,2.86-1.29,14.76,14.76,0,0,0,2.57-2.51c.82-1,1.65-2.05,2.49-3.13s1.71-2.1,2.62-3.06a12.3,12.3,0,0,1,2.95-2.34,8.14,8.14,0,0,1,3.46-1,8.74,8.74,0,0,1,4.19.95,8.56,8.56,0,0,1,4.58,5.4,10.81,10.81,0,0,1,.32,4.2,15.34,15.34,0,0,1-1.46,4.94,14.54,14.54,0,0,1-2.9,4.28,10.14,10.14,0,0,1-3.55,2.34,9.24,9.24,0,0,1-3.89.57,11.07,11.07,0,0,1-3.92-1l1.32-2.83a7.9,7.9,0,0,0,3.38.81,6.45,6.45,0,0,0,2.94-.72,8.28,8.28,0,0,0,2.37-1.91,12,12,0,0,0,1.73-2.69,11.07,11.07,0,0,0,1.15-4.1,7.27,7.27,0,0,0-.49-3.22,6,6,0,0,0-1.63-2.3,5.8,5.8,0,0,0-2.37-1.26,4.66,4.66,0,0,0-3,.08,8.33,8.33,0,0,0-2.59,1.65,18.55,18.55,0,0,0-2.39,2.62c-.77,1-1.56,2-2.38,3a38.07,38.07,0,0,1-2.55,2.92,11.3,11.3,0,0,1-2.87,2.18,7.94,7.94,0,0,1-3.4.88,9.21,9.21,0,0,1-4.12-1,9,9,0,0,1-5.34-6.15q-1-4.11,1.54-9.55a17.25,17.25,0,0,1,2.75-4.23,11.13,11.13,0,0,1,3.59-2.72,9.85,9.85,0,0,1,4.29-.89,12,12,0,0,1,4.85,1.24Z" transform="translate(-94.53 -196.76)"/><path d="M490.77,510.48,477.11,531.6l-2.34-1.52,6-9.19L454,503.63l1.77-2.74,26.68,17.26,5.94-9.18Z" transform="translate(-94.53 -196.76)"/><path d="M462.32,523a23.72,23.72,0,0,1,4.63,5.48,17.15,17.15,0,0,1,2.3,6.12,14.48,14.48,0,0,1-.38,6.33,15.62,15.62,0,0,1-3.48,6.09,16.73,16.73,0,0,1-5.75,4.36,14.48,14.48,0,0,1-6.29,1.23A16.88,16.88,0,0,1,447,551a23.9,23.9,0,0,1-6-4,23.29,23.29,0,0,1-4.58-5.43,17.42,17.42,0,0,1-2.29-6.1,14.4,14.4,0,0,1,.42-6.37,17.76,17.76,0,0,1,9.3-10.49,14.38,14.38,0,0,1,6.27-1.17,16.51,16.51,0,0,1,6.32,1.56A23.86,23.86,0,0,1,462.32,523Zm-22.2,1.87a12.37,12.37,0,0,0-2.88,5.18,11.39,11.39,0,0,0-.11,5.22,14.31,14.31,0,0,0,2.13,5,22.53,22.53,0,0,0,3.85,4.41,21.72,21.72,0,0,0,5.42,3.62,14,14,0,0,0,5.35,1.31,11,11,0,0,0,5-1,13.3,13.3,0,0,0,4.36-3.32,12,12,0,0,0,2.83-5.16,11.65,11.65,0,0,0,.08-5.25,14.71,14.71,0,0,0-2.16-5,23.26,23.26,0,0,0-8.72-7.74,14.3,14.3,0,0,0-5.2-1.52,11.18,11.18,0,0,0-5.15.75A12.51,12.51,0,0,0,440.12,524.82Z" transform="translate(-94.53 -196.76)"/><path d="M437.58,550.19a23.89,23.89,0,0,1,3.52,6.26,16.93,16.93,0,0,1,1.12,6.44,14.59,14.59,0,0,1-1.56,6.15,15.66,15.66,0,0,1-4.56,5.33,16.59,16.59,0,0,1-6.47,3.2,14.26,14.26,0,0,1-6.4,0,16.85,16.85,0,0,1-6-2.72,23.8,23.8,0,0,1-5.17-5,23,23,0,0,1-3.48-6.2,17.1,17.1,0,0,1-1.1-6.42,14.26,14.26,0,0,1,1.6-6.17,17.77,17.77,0,0,1,11.1-8.56,14.31,14.31,0,0,1,6.38,0,16.79,16.79,0,0,1,5.91,2.71A24,24,0,0,1,437.58,550.19Zm-22.15-2.31a12.31,12.31,0,0,0-3.8,4.54,11.51,11.51,0,0,0-1.09,5.11,14.55,14.55,0,0,0,1.16,5.29,22.54,22.54,0,0,0,3,5,22,22,0,0,0,4.65,4.57,14.08,14.08,0,0,0,5,2.29,11,11,0,0,0,5.1-.06,13.17,13.17,0,0,0,4.91-2.45,12.07,12.07,0,0,0,3.75-4.52,11.68,11.68,0,0,0,1.05-5.16,14.53,14.53,0,0,0-1.17-5.3,23.33,23.33,0,0,0-7.13-9.24,14.49,14.49,0,0,0-4.81-2.47,11.29,11.29,0,0,0-5.21-.22A12.47,12.47,0,0,0,415.43,547.88Z" transform="translate(-94.53 -196.76)"/><path d="M398.93,557.6l15.76,30.76-10.51,5.38q-1.29.66-2.55,1.23a19.19,19.19,0,0,1-2.59.95,14.47,14.47,0,0,1-2.69.49,13,13,0,0,1-2.84-.11,10.7,10.7,0,0,1-3.91-1.42,18.36,18.36,0,0,1-3.29-2.58,22.16,22.16,0,0,1-2.65-3.17,28.51,28.51,0,0,1-3.36-6.45,22.88,22.88,0,0,1-1-3.42,17.8,17.8,0,0,1-.36-3.48,12.59,12.59,0,0,1,.47-3.45,10.7,10.7,0,0,1,1.34-3.12,14.57,14.57,0,0,1,2.07-2.49,18.66,18.66,0,0,1,2.6-2,33,33,0,0,1,3-1.7Zm-1.64,4-7,3.57a32.53,32.53,0,0,0-3.58,2.12,12.24,12.24,0,0,0-2.92,3,7.88,7.88,0,0,0-1.45,3.38,13,13,0,0,0-.08,3.68,17.34,17.34,0,0,0,.87,3.69,26.47,26.47,0,0,0,1.45,3.41,30.09,30.09,0,0,0,1.95,3.28,15.78,15.78,0,0,0,2.5,2.88,12.42,12.42,0,0,0,3.09,2,9.35,9.35,0,0,0,3.75.8,10.35,10.35,0,0,0,3.73-.73,39.76,39.76,0,0,0,3.91-1.73l7-3.57Z" transform="translate(-94.53 -196.76)"/><path d="M353.37,587.72a10.45,10.45,0,0,0-1.8-3.63,7.63,7.63,0,0,0-2.64-2.13,8.44,8.44,0,0,0-3.28-.82,14.42,14.42,0,0,0-3.71.29,12.45,12.45,0,0,0-3.79,1.36,7.49,7.49,0,0,0-2.37,2.08,6.25,6.25,0,0,0-1.07,2.54,7.44,7.44,0,0,0,.05,2.78,5.45,5.45,0,0,0,1.55,3,7.06,7.06,0,0,0,2.74,1.52,14.55,14.55,0,0,0,3.54.58c1.31.06,2.64.1,4,.14s2.7.12,4,.28a12.13,12.13,0,0,1,3.62,1,8.1,8.1,0,0,1,2.88,2.18,8.71,8.71,0,0,1,1.73,3.93,8.46,8.46,0,0,1,0,3.54,8.6,8.6,0,0,1-1.57,3.36,10.69,10.69,0,0,1-3.18,2.75,15.27,15.27,0,0,1-4.83,1.77,14.64,14.64,0,0,1-5.17.23,10.31,10.31,0,0,1-4-1.46,9.36,9.36,0,0,1-2.78-2.79,11,11,0,0,1-1.5-3.76l3.06-.63a7.8,7.8,0,0,0,1.36,3.2,6.42,6.42,0,0,0,2.33,1.93,8.3,8.3,0,0,0,3,.77,12.27,12.27,0,0,0,3.19-.21,11.14,11.14,0,0,0,4-1.53,7.36,7.36,0,0,0,2.29-2.3,6.11,6.11,0,0,0,.88-2.68,5.84,5.84,0,0,0-.4-2.66,4.71,4.71,0,0,0-1.85-2.37,8.68,8.68,0,0,0-2.88-1.1,19.23,19.23,0,0,0-3.52-.36l-3.87-.09c-1.31,0-2.6-.15-3.86-.31a11.59,11.59,0,0,1-3.46-1,7.8,7.8,0,0,1-2.73-2.21,9.1,9.1,0,0,1-1.65-3.9,9,9,0,0,1,1.75-8q2.72-3.25,8.6-4.45a17,17,0,0,1,5-.32,11,11,0,0,1,4.32,1.27,9.67,9.67,0,0,1,3.27,2.91,12,12,0,0,1,1.9,4.63Z" transform="translate(-94.53 -196.76)"/><path d="M332.8,616.38,307.7,618l-.18-2.78,10.92-.71-2-31.71,3.25-.21,2,31.72,10.92-.71Z" transform="translate(-94.53 -196.76)"/><path d="M303.11,583l-1,34.55-3.26-.09,1-34.55Z" transform="translate(-94.53 -196.76)"/><path d="M294.24,582.9,290,617.2l-3.24-.4,3.86-31.54L272.27,583l.34-2.76Z" transform="translate(-94.53 -196.76)"/><path d="M271,579.76,262.3,613.2l-3.15-.82,8-30.75L249.23,577l.7-2.69Z" transform="translate(-94.53 -196.76)"/><path d="M207.06,565a10.25,10.25,0,0,0,1.4-3.8,7.61,7.61,0,0,0-.27-3.38,8.5,8.5,0,0,0-1.65-3,14.23,14.23,0,0,0-2.77-2.49,12.28,12.28,0,0,0-3.59-1.82,7.54,7.54,0,0,0-3.13-.29,6.11,6.11,0,0,0-2.59,1,7.34,7.34,0,0,0-2,2,5.36,5.36,0,0,0-1.13,3.2,7.09,7.09,0,0,0,.77,3,14.89,14.89,0,0,0,2,3c.86,1,1.74,2,2.65,3s1.77,2.05,2.56,3.12a11.86,11.86,0,0,1,1.79,3.3,8,8,0,0,1,.39,3.59,8.64,8.64,0,0,1-1.67,4,8.39,8.39,0,0,1-2.59,2.4,8.68,8.68,0,0,1-3.52,1.17,10.71,10.71,0,0,1-4.19-.42,15.3,15.3,0,0,1-4.6-2.29,14.57,14.57,0,0,1-3.72-3.6,10.28,10.28,0,0,1-1.69-3.91,9.29,9.29,0,0,1,.12-3.93,11.08,11.08,0,0,1,1.7-3.68l2.55,1.79a7.81,7.81,0,0,0-1.38,3.19,6.38,6.38,0,0,0,.2,3,8.36,8.36,0,0,0,1.47,2.67,11.51,11.51,0,0,0,2.34,2.17,11.13,11.13,0,0,0,3.84,1.84,7.39,7.39,0,0,0,3.26.08,5.92,5.92,0,0,0,2.54-1.2,5.79,5.79,0,0,0,1.66-2.12,4.67,4.67,0,0,0,.45-3,8.55,8.55,0,0,0-1.18-2.85A19.69,19.69,0,0,0,195,568c-.85-.93-1.72-1.89-2.59-2.87s-1.68-2-2.43-3a11.35,11.35,0,0,1-1.64-3.21,7.75,7.75,0,0,1-.28-3.5,9.32,9.32,0,0,1,1.7-3.89,9,9,0,0,1,7-4.19q4.23-.25,9.14,3.19a17.16,17.16,0,0,1,3.69,3.43,11.13,11.13,0,0,1,2.05,4,9.6,9.6,0,0,1,.13,4.37,11.91,11.91,0,0,1-2.06,4.57Z" transform="translate(-94.53 -196.76)"/><path d="M172.11,569.81,153.68,552.7l1.9-2,8,7.44,21.61-23.29,2.4,2.22L166,560.32l8,7.45Z" transform="translate(-94.53 -196.76)"/><path d="M164.78,539.65a23.47,23.47,0,0,1-6.2,3.61,17.11,17.11,0,0,1-6.42,1.22A14.63,14.63,0,0,1,146,543a15.57,15.57,0,0,1-5.4-4.48,16.7,16.7,0,0,1-3.3-6.42,14.33,14.33,0,0,1-.12-6.41,16.74,16.74,0,0,1,2.63-6,24.83,24.83,0,0,1,11.08-8.82,17.39,17.39,0,0,1,6.41-1.2,14.44,14.44,0,0,1,6.2,1.51,17.75,17.75,0,0,1,8.72,11,14.48,14.48,0,0,1,.08,6.38,16.84,16.84,0,0,1-2.63,6A23.74,23.74,0,0,1,164.78,539.65Zm2-22.19a12.39,12.39,0,0,0-4.6-3.73,11.53,11.53,0,0,0-5.13-1,14.46,14.46,0,0,0-5.26,1.24,22.44,22.44,0,0,0-5,3,21.51,21.51,0,0,0-4.5,4.71,14.17,14.17,0,0,0-2.22,5,11,11,0,0,0,.14,5.11,13,13,0,0,0,2.52,4.86,11.88,11.88,0,0,0,4.58,3.68,11.71,11.71,0,0,0,5.17,1,15,15,0,0,0,5.28-1.26,23.39,23.39,0,0,0,9.13-7.26,14.28,14.28,0,0,0,2.4-4.85,11.17,11.17,0,0,0,.15-5.21A12.59,12.59,0,0,0,166.77,517.46Z" transform="translate(-94.53 -196.76)"/><path d="M142.18,510.54a23.94,23.94,0,0,1-6.77,2.38,17.11,17.11,0,0,1-6.54,0,14.6,14.6,0,0,1-5.78-2.61,15.7,15.7,0,0,1-4.46-5.41,16.79,16.79,0,0,1-2-6.93,14.38,14.38,0,0,1,1.09-6.31,16.85,16.85,0,0,1,3.72-5.42,23.94,23.94,0,0,1,5.84-4.22,23.3,23.3,0,0,1,6.7-2.34,17.21,17.21,0,0,1,6.52,0,14.41,14.41,0,0,1,5.8,2.65,17.78,17.78,0,0,1,6.5,12.42,14.38,14.38,0,0,1-1.12,6.28,16.77,16.77,0,0,1-3.7,5.35A23.87,23.87,0,0,1,142.18,510.54Zm6.13-21.42a12.35,12.35,0,0,0-3.81-4.53,11.51,11.51,0,0,0-4.84-2,14.42,14.42,0,0,0-5.41.23,22.66,22.66,0,0,0-5.49,2,21.75,21.75,0,0,0-5.31,3.79,13.86,13.86,0,0,0-3.12,4.53,11,11,0,0,0-.83,5,13.22,13.22,0,0,0,1.56,5.25,12,12,0,0,0,3.8,4.48,11.72,11.72,0,0,0,4.89,1.94,14.73,14.73,0,0,0,5.43-.24,23.07,23.07,0,0,0,10.33-5.41,14.28,14.28,0,0,0,3.27-4.31,11.29,11.29,0,0,0,1.13-5.09A12.53,12.53,0,0,0,148.31,489.12Z" transform="translate(-94.53 -196.76)"/><path d="M141.62,471.21l-33,10.14-3.46-11.29c-.28-.91-.54-1.82-.76-2.72a19.65,19.65,0,0,1-.49-2.72,14.65,14.65,0,0,1,0-2.73,12.09,12.09,0,0,1,.61-2.77,10.45,10.45,0,0,1,2.08-3.6,17.5,17.5,0,0,1,3.11-2.79,21.77,21.77,0,0,1,3.59-2.06,31.37,31.37,0,0,1,3.52-1.36,30.48,30.48,0,0,1,3.42-.82,22.1,22.1,0,0,1,3.53-.35,17.67,17.67,0,0,1,3.49.25,12.75,12.75,0,0,1,3.32,1.07,10.47,10.47,0,0,1,2.83,1.87,13.34,13.34,0,0,1,2.09,2.47,18.76,18.76,0,0,1,1.55,2.91c.43,1,.82,2.11,1.16,3.21Zm-3.62-2.3-2.29-7.48a31.28,31.28,0,0,0-1.48-3.89,11.79,11.79,0,0,0-2.42-3.4,7.8,7.8,0,0,0-3.08-2,13,13,0,0,0-3.61-.72,17.26,17.26,0,0,0-3.78.2,29,29,0,0,0-3.61.83,33.4,33.4,0,0,0-3.58,1.35,15.85,15.85,0,0,0-3.26,2,12.23,12.23,0,0,0-2.54,2.69A9.15,9.15,0,0,0,106.9,462a10.41,10.41,0,0,0,.07,3.8,38.79,38.79,0,0,0,1,4.16l2.3,7.48Z" transform="translate(-94.53 -196.76)"/><path d="M119.94,421.08a10.24,10.24,0,0,0,3.88-1.14,7.49,7.49,0,0,0,2.55-2.23,8.39,8.39,0,0,0,1.38-3.08,14,14,0,0,0,.36-3.71,12.11,12.11,0,0,0-.69-4,7.42,7.42,0,0,0-1.63-2.69,6.27,6.27,0,0,0-2.32-1.5,7.66,7.66,0,0,0-2.75-.43,5.46,5.46,0,0,0-3.24,1,7.06,7.06,0,0,0-2,2.43,14.36,14.36,0,0,0-1.18,3.39c-.29,1.27-.56,2.58-.83,3.91s-.59,2.64-1,3.92a12.38,12.38,0,0,1-1.59,3.4,8.1,8.1,0,0,1-2.65,2.45,8.8,8.8,0,0,1-10.68-1.75,10.92,10.92,0,0,1-2.17-3.61,15.5,15.5,0,0,1-.9-5.07,14.52,14.52,0,0,1,.67-5.13,10.15,10.15,0,0,1,2.14-3.68,9,9,0,0,1,3.22-2.25,11,11,0,0,1,4-.83l.08,3.12a7.7,7.7,0,0,0-3.39.79,6.34,6.34,0,0,0-2.29,2,8,8,0,0,0-1.27,2.77,11.63,11.63,0,0,0-.35,3.18,11.38,11.38,0,0,0,.81,4.18,7.49,7.49,0,0,0,1.87,2.66,6.14,6.14,0,0,0,2.49,1.32,5.7,5.7,0,0,0,2.69.07,4.65,4.65,0,0,0,2.65-1.41,8.6,8.6,0,0,0,1.59-2.64,19.85,19.85,0,0,0,1-3.41c.24-1.24.49-2.5.76-3.79a36.75,36.75,0,0,1,1-3.75,11.38,11.38,0,0,1,1.59-3.24,7.8,7.8,0,0,1,2.65-2.3,9.06,9.06,0,0,1,4.13-.95,9,9,0,0,1,7.53,3.1q2.72,3.24,2.89,9.24a17.24,17.24,0,0,1-.56,5,11.1,11.1,0,0,1-2,4,9.72,9.72,0,0,1-3.43,2.71,12,12,0,0,1-4.9,1.07Z" transform="translate(-94.53 -196.76)"/><path d="M95.25,395.92l2.72-25,2.77.3-1.18,10.88,31.59,3.44-.36,3.24L99.2,385.34,98,396.22Z" transform="translate(-94.53 -196.76)"/><path d="M133.2,372.4l-33.85-6.94.65-3.2,33.86,6.94Z" transform="translate(-94.53 -196.76)"/><path d="M134.88,363.7l-33-10.13,1-3.12,30.38,9.31,5.43-17.71,2.66.81Z" transform="translate(-94.53 -196.76)"/><path d="M142,341.4,110.62,327l1.36-3,28.88,13.27,7.73-16.84,2.53,1.16Z" transform="translate(-94.53 -196.76)"/><path d="M167.67,281a10.23,10.23,0,0,0,3.49,2,7.75,7.75,0,0,0,3.38.33,8.61,8.61,0,0,0,3.19-1.13,13.79,13.79,0,0,0,2.93-2.29,12.16,12.16,0,0,0,2.41-3.22,7.52,7.52,0,0,0,.83-3,5.91,5.91,0,0,0-.51-2.71,7.41,7.41,0,0,0-1.57-2.3,5.42,5.42,0,0,0-3-1.66,7,7,0,0,0-3.12.24,14.43,14.43,0,0,0-3.27,1.48c-1.12.67-2.26,1.36-3.42,2.09s-2.32,1.38-3.51,2A12.14,12.14,0,0,1,162,274a8.17,8.17,0,0,1-3.6-.24,8.6,8.6,0,0,1-3.61-2.32,8.45,8.45,0,0,1-1.92-3,8.61,8.61,0,0,1-.55-3.67,10.8,10.8,0,0,1,1.14-4,15.55,15.55,0,0,1,3.05-4.14,14.55,14.55,0,0,1,4.19-3,10.11,10.11,0,0,1,4.15-1,9.26,9.26,0,0,1,3.85.8,10.81,10.81,0,0,1,3.32,2.31l-2.2,2.2a7.89,7.89,0,0,0-2.9-1.91,6.51,6.51,0,0,0-3-.33,8.23,8.23,0,0,0-2.88,1,11.89,11.89,0,0,0-2.55,1.93A11.21,11.21,0,0,0,156,262a7.38,7.38,0,0,0-.65,3.19,6.16,6.16,0,0,0,.75,2.71,5.81,5.81,0,0,0,1.8,2,4.68,4.68,0,0,0,2.85.94,8.39,8.39,0,0,0,3-.66,19.34,19.34,0,0,0,3.14-1.64c1.06-.68,2.16-1.37,3.28-2.06s2.25-1.31,3.39-1.87a11.56,11.56,0,0,1,3.45-1.07,7.91,7.91,0,0,1,3.49.34,9.19,9.19,0,0,1,3.53,2.34,9,9,0,0,1,2.92,7.61c-.31,2.8-1.89,5.62-4.71,8.45a17.15,17.15,0,0,1-4,3,10.92,10.92,0,0,1-4.31,1.32,9.49,9.49,0,0,1-4.32-.63,11.86,11.86,0,0,1-4.14-2.81Z" transform="translate(-94.53 -196.76)"/><path d="M169,245.72l20-15.2,1.68,2.22L182,239.35l19.2,25.32-2.6,2-19.2-25.32-8.72,6.62Z" transform="translate(-94.53 -196.76)"/><path d="M200,243.7A23.63,23.63,0,0,1,197.5,237a17.17,17.17,0,0,1-.08-6.54,14.64,14.64,0,0,1,2.52-5.82,15.65,15.65,0,0,1,5.35-4.54,16.66,16.66,0,0,1,6.9-2.13,14.28,14.28,0,0,1,6.32,1,16.85,16.85,0,0,1,5.47,3.63,24,24,0,0,1,4.31,5.78,23.24,23.24,0,0,1,2.45,6.67,17.21,17.21,0,0,1,.07,6.51,14.41,14.41,0,0,1-2.56,5.85,17.77,17.77,0,0,1-12.32,6.69,14.48,14.48,0,0,1-6.3-1,16.6,16.6,0,0,1-5.4-3.62A23.51,23.51,0,0,1,200,243.7Zm21.5,5.81a12.32,12.32,0,0,0,4.48-3.88,11.58,11.58,0,0,0,1.88-4.88,14.44,14.44,0,0,0-.31-5.4,22.44,22.44,0,0,0-2.12-5.46,21.52,21.52,0,0,0-3.86-5.25,13.85,13.85,0,0,0-4.58-3,11,11,0,0,0-5-.76,13.25,13.25,0,0,0-5.23,1.64,12,12,0,0,0-4.42,3.88,11.73,11.73,0,0,0-1.87,4.91,14.81,14.81,0,0,0,.33,5.43,22.41,22.41,0,0,0,2.11,5.46,22.88,22.88,0,0,0,3.45,4.79,14.5,14.5,0,0,0,4.36,3.2,11.35,11.35,0,0,0,5.11,1.05A12.64,12.64,0,0,0,221.49,249.51Z" transform="translate(-94.53 -196.76)"/><path d="M232.56,226.51a23.82,23.82,0,0,1-1.16-7.08,17.19,17.19,0,0,1,1.16-6.44,14.63,14.63,0,0,1,3.58-5.24,15.59,15.59,0,0,1,6.11-3.44,16.77,16.77,0,0,1,7.18-.79,14.33,14.33,0,0,1,6,2.17,16.93,16.93,0,0,1,4.68,4.61,24.74,24.74,0,0,1,4.28,13.5,17.11,17.11,0,0,1-1.17,6.41,14.29,14.29,0,0,1-3.62,5.25,17.76,17.76,0,0,1-13.36,4.23,14.38,14.38,0,0,1-6-2.2,16.76,16.76,0,0,1-4.62-4.58A24.19,24.19,0,0,1,232.56,226.51Zm20,9.77a12.26,12.26,0,0,0,5.13-3,11.43,11.43,0,0,0,2.77-4.43,14.25,14.25,0,0,0,.72-5.36,22.41,22.41,0,0,0-1-5.76,21.91,21.91,0,0,0-2.8-5.89,14.12,14.12,0,0,0-3.92-3.87,11.06,11.06,0,0,0-4.82-1.69,13.15,13.15,0,0,0-5.44.61,12.1,12.1,0,0,0-5.08,3,11.66,11.66,0,0,0-2.76,4.48,14.62,14.62,0,0,0-.71,5.38,23.43,23.43,0,0,0,3.52,11.12,14.35,14.35,0,0,0,3.68,4,11.24,11.24,0,0,0,4.81,2A12.51,12.51,0,0,0,252.58,236.28Z" transform="translate(-94.53 -196.76)"/><path d="M271.41,232.82l-4.22-34.3,11.72-1.44q1.43-.18,2.82-.27a18.16,18.16,0,0,1,2.76,0,13.64,13.64,0,0,1,2.69.46,12.72,12.72,0,0,1,2.62,1.08A10.59,10.59,0,0,1,293,201a18.1,18.1,0,0,1,2.2,3.55,23.19,23.19,0,0,1,1.4,3.89,29.7,29.7,0,0,1,.72,3.71,28.73,28.73,0,0,1,.21,3.5,24.38,24.38,0,0,1-.26,3.54,17.86,17.86,0,0,1-.87,3.4,12.82,12.82,0,0,1-1.63,3.08,10.75,10.75,0,0,1-2.33,2.46,13.25,13.25,0,0,1-2.8,1.62,17.74,17.74,0,0,1-3.14,1,33.66,33.66,0,0,1-3.36.58Zm2.9-3.16,7.77-.95a31.15,31.15,0,0,0,4.08-.77,11.71,11.71,0,0,0,3.77-1.8,7.71,7.71,0,0,0,2.53-2.68A12.88,12.88,0,0,0,293.8,220a17.18,17.18,0,0,0,.46-3.75,27.59,27.59,0,0,0-.19-3.7,30.25,30.25,0,0,0-.71-3.76,15.68,15.68,0,0,0-1.35-3.56,12.35,12.35,0,0,0-2.21-3,9.23,9.23,0,0,0-3.24-2,10.39,10.39,0,0,0-3.75-.6,38.42,38.42,0,0,0-4.27.28l-7.77,1Z" transform="translate(-94.53 -196.76)"/></svg>