<svg id="Layer_1" data-name="Layer 1" xmlns="http://www.w3.org/2000/svg" viewBox="0 0 423.07 422.92"><title>Untitled-1</title><path d="M341.26,187.5l24.51,5.64-.62,2.71-10.67-2.45-7.13,31-3.18-.73,7.13-31-10.67-2.45Z" transform="translate(-94.34 -184.74)"/><path d="M360.4,228l11-32.78,3.1,1L363.5,229.07Z" transform="translate(-94.34 -184.74)"/><path d="M368.79,230.19,384,199.14l4.48,2.2-3.2,32.35.08.05,23.39-22.5,4.44,2.17L398,244.46,395.06,243l13.53-27.69-.09,0L384.79,238,382,236.67,385.34,204l-.08,0-13.53,27.69Z" transform="translate(-94.34 -184.74)"/><path d="M401.05,246.86l20.34-27.94L440,232.45l-1.64,2.25-15.95-11.61L415,233.18l14.4,10.48-1.64,2.26-14.39-10.48-8.08,11.09,16.34,11.9L420,260.68Z" transform="translate(-94.34 -184.74)"/><path d="M466.55,258.42l15.22,20-2.22,1.68-6.62-8.71-25.31,19.22-2-2.6L471,268.82l-6.63-8.72Z" transform="translate(-94.34 -184.74)"/><path d="M455.32,301.84l29.39-18.19,1.72,2.78L457,304.62Z" transform="translate(-94.34 -184.74)"/><path d="M460.38,308.85l31.52-14.18,2.05,4.56L470.8,322.06l0,.09,32.36-2.35,2,4.51-31.52,14.18-1.34-3,28.11-12.64,0-.09-32.75,2.31-1.26-2.8,23.43-23,0-.08-28.1,12.64Z" transform="translate(-94.34 -184.74)"/><path d="M474.53,342.3,508,333.86l5.62,22.29-2.7.68-4.82-19.13L494,340.75,498.39,358l-2.7.68-4.35-17.27L478,344.79,483,364.38l-2.7.68Z" transform="translate(-94.34 -184.74)"/><path d="M517.41,393.13l-1.14,25.13-2.78-.13.5-10.93-31.75-1.44.15-3.26,31.74,1.44.5-10.93Z" transform="translate(-94.34 -184.74)"/><path d="M481,419.27l34.22,4.83-.46,3.24-34.22-4.83Z" transform="translate(-94.34 -184.74)"/><path d="M480.39,427.92l33.28,9.29L512.33,442l-32.4,2.71,0,.1,26.36,18.92-1.33,4.76-33.28-9.29.88-3.15,29.68,8.29,0-.09-26.63-19.2.82-3,32.74-2.67,0-.09-29.68-8.29Z" transform="translate(-94.34 -184.74)"/><path d="M469.84,462.64l31.15,15-10,20.72-2.51-1.2,8.55-17.78-11.25-5.41L478.11,490l-2.51-1.2,7.71-16.05-12.37-5.95L462.18,485l-2.5-1.2Z" transform="translate(-94.34 -184.74)"/><path d="M470.23,529.17l-17,18.55-2.05-1.88,7.39-8.07-23.44-21.45,2.2-2.41,23.44,21.45,7.39-8.07Z" transform="translate(-94.34 -184.74)"/><path d="M425.52,525.89l23.17,25.64-2.42,2.19L423.1,528.08Z" transform="translate(-94.34 -184.74)"/><path d="M419.51,532.13l19.63,28.45L435,563.41l-26.64-18.65-.08.06,8.15,31.41L412.39,579l-19.63-28.45,2.69-1.85L413,574.1l.08-.05-8.18-31.8,2.53-1.75,26.87,18.91.08-.06L416.82,534Z" transform="translate(-94.34 -184.74)"/><path d="M389.17,552.09l14.38,31.43-20.91,9.56-1.16-2.53,17.94-8.21L394.23,571,378,578.41l-1.16-2.54,16.19-7.41L387.36,556,369,564.39l-1.16-2.53Z" transform="translate(-94.34 -184.74)"/><path d="M346.87,603.48l-24.93,3.36-.37-2.76,10.85-1.46-4.25-31.49,3.24-.44,4.24,31.49,10.85-1.46Z" transform="translate(-94.34 -184.74)"/><path d="M314.67,572.3,316,606.83l-3.26.13-1.35-34.53Z" transform="translate(-94.34 -184.74)"/><path d="M306,573.24l-3.13,34.42-5-.45-8.53-31.38h-.09l-13.85,29.35-4.92-.45,3.12-34.42,3.25.29-2.78,30.7h.09l14.07-29.66,3.06.28,8.54,31.71h.1l2.78-30.69Z" transform="translate(-94.34 -184.74)"/><path d="M270,569.15l-9.07,33.35-22.19-6,.73-2.69,19,5.18,3.27-12-17.18-4.68.73-2.69,17.18,4.68L266.07,571l-19.5-5.3.73-2.69Z" transform="translate(-94.34 -184.74)"/><path d="M204.58,581.56l-21.3-13.37,1.48-2.36,9.27,5.82,16.89-26.92,2.76,1.74-16.89,26.91,9.27,5.82Z" transform="translate(-94.34 -184.74)"/><path d="M199.76,537l-21.07,27.39-2.59-2L197.18,535Z" transform="translate(-94.34 -184.74)"/><path d="M192.56,532.19,168.1,556.6l-3.53-3.53,13.57-29.55-.07-.07L148.63,537.1l-3.49-3.5,24.46-24.41,2.31,2.31L150.1,533.27l.06.07L180,519.58l2.17,2.18-13.78,29.82.07.07,21.81-21.77Z" transform="translate(-94.34 -184.74)"/><path d="M167.48,505.92l-28.32,19.81L126,506.9l2.28-1.6,11.31,16.16,10.23-7.15-10.21-14.59,2.28-1.6,10.21,14.59,11.24-7.87-11.58-16.56,2.28-1.59Z" transform="translate(-94.34 -184.74)"/><path d="M109.27,473.6l-7.82-23.9,2.65-.87,3.4,10.4,30.2-9.87,1,3.1-30.2,9.88,3.4,10.4Z" transform="translate(-94.34 -184.74)"/><path d="M134.11,436.28l-33.73,7.55-.71-3.19,33.73-7.54Z" transform="translate(-94.34 -184.74)"/><path d="M131.63,428l-34.42,3-.45-5,29.37-14V412l-31.35-8.41-.43-4.92,34.42-3,.29,3.25-30.7,2.72v.1l31.7,8.56.27,3.06-29.69,14v.1l30.69-2.72Z" transform="translate(-94.34 -184.74)"/><path d="M129.23,391.72l-34.44-2.9,1.93-22.91,2.77.24L97.84,385.8l12.43,1.05,1.5-17.74,2.77.23-1.49,17.75,13.68,1.15,1.69-20.14,2.78.23Z" transform="translate(-94.34 -184.74)"/><path d="M105.19,329.65l9.31-23.37,2.58,1-4,10.17,29.53,11.75-1.21,3-29.52-11.76-4,10.17Z" transform="translate(-94.34 -184.74)"/><path d="M148.17,316.89,117.43,301.1l1.49-2.91L149.66,314Z" transform="translate(-94.34 -184.74)"/><path d="M151.59,308.92l-28.41-19.69,2.85-4.11,31.5,8.06.06-.08-18.71-26.52,2.82-4.06,28.4,19.69-1.86,2.68-25.32-17.55-.06.08,18.87,26.86L160,296.81l-31.8-8.21-.06.08,25.33,17.55Z" transform="translate(-94.34 -184.74)"/><path d="M172.94,279.54l-24.57-24.31,16.17-16.34,2,2-13.87,14,8.87,8.78L174,251l2,1.95L163.5,265.6l9.76,9.66,14.21-14.37,2,2Z" transform="translate(-94.34 -184.74)"/><path d="M194.22,216.5l22.09-12,1.34,2.45L208,212.16l15.19,27.91-2.87,1.56-15.19-27.91L195.55,219Z" transform="translate(-94.34 -184.74)"/><path d="M235.43,234.17l-13.54-31.8,3-1.28,13.54,31.8Z" transform="translate(-94.34 -184.74)"/><path d="M243.14,230.22l-9.23-33.31,4.82-1.33,19,26.35.09,0,2.6-32.35,4.76-1.32,9.22,33.31-3.14.87-8.23-29.7-.09,0-2.69,32.72-3,.82-19.19-26.67-.09,0,8.22,29.7Z" transform="translate(-94.34 -184.74)"/><path d="M278.34,221.32l-3.27-34.4L298,184.74l.27,2.77-19.64,1.87,1.18,12.42,17.73-1.68.26,2.77L280,204.58l1.31,13.66,20.11-1.91.27,2.77Z" transform="translate(-94.34 -184.74)"/></svg>