<svg id="Layer_1" data-name="Layer 1" xmlns="http://www.w3.org/2000/svg" viewBox="0 0 423.3 422.72"><title>time-on-your-side</title><path d="M355,218a24.16,24.16,0,0,1,3.31-6.37,17.08,17.08,0,0,1,4.78-4.46,14.49,14.49,0,0,1,6-2.06,15.69,15.69,0,0,1,7,.9,16.58,16.58,0,0,1,6.22,3.66,14.24,14.24,0,0,1,3.53,5.35,16.88,16.88,0,0,1,1,6.49,24.94,24.94,0,0,1-4.65,13.38,17.08,17.08,0,0,1-4.77,4.43,14.26,14.26,0,0,1-6.05,2,17.79,17.79,0,0,1-13.24-4.6,14.49,14.49,0,0,1-3.47-5.35,16.71,16.71,0,0,1-1-6.44A24,24,0,0,1,355,218Zm10.19,19.81a12.38,12.38,0,0,0,5.88.7,11.54,11.54,0,0,0,4.88-1.89,14.53,14.53,0,0,0,3.78-3.87,22.31,22.31,0,0,0,2.61-5.24,21.5,21.5,0,0,0,1.28-6.39,13.83,13.83,0,0,0-.82-5.44,11.05,11.05,0,0,0-2.84-4.25,13.22,13.22,0,0,0-4.73-2.76,11.92,11.92,0,0,0-5.85-.66A11.64,11.64,0,0,0,364.5,210a14.8,14.8,0,0,0-3.79,3.89,23.21,23.21,0,0,0-3.83,11,14.23,14.23,0,0,0,.56,5.38,11.3,11.3,0,0,0,2.66,4.48A12.57,12.57,0,0,0,365.2,237.85Z" transform="translate(-95.16 -195.22)"/><path d="M400.2,221.82l-.09,0-15,26.17-2.83-1.62,17.15-30,3.21,1.84L405,254.27l.08,0,15-26.21,2.83,1.62-17.15,30-3.3-1.88Z" transform="translate(-95.16 -195.22)"/><path d="M447.92,272.88,467.18,269l2.61,2.76L447,276l-11,10.34L433.81,284l10.79-10.18,5.88-22.51,2.57,2.72Z" transform="translate(-95.16 -195.22)"/><path d="M457.38,283.65a23.89,23.89,0,0,1,6.44-3.16,17.07,17.07,0,0,1,6.5-.76,14.62,14.62,0,0,1,6.05,1.9,15.71,15.71,0,0,1,5.07,4.85,16.64,16.64,0,0,1,2.83,6.64,14.34,14.34,0,0,1-.33,6.4,16.85,16.85,0,0,1-3.05,5.81,23.94,23.94,0,0,1-5.3,4.89,23.14,23.14,0,0,1-6.38,3.12,17.28,17.28,0,0,1-6.47.75,14.43,14.43,0,0,1-6.08-1.95,17.77,17.77,0,0,1-7.93-11.56,14.5,14.5,0,0,1,.38-6.37,16.82,16.82,0,0,1,3-5.75A24.2,24.2,0,0,1,457.38,283.65Zm-3.55,22a12.29,12.29,0,0,0,4.32,4.05,11.47,11.47,0,0,0,5.05,1.37,14.23,14.23,0,0,0,5.34-.86,22,22,0,0,0,5.21-2.68,21.49,21.49,0,0,0,4.82-4.38,14,14,0,0,0,2.57-4.87,11,11,0,0,0,.22-5.1,13.07,13.07,0,0,0-2.17-5,11.92,11.92,0,0,0-4.31-4,11.57,11.57,0,0,0-5.08-1.35,14.7,14.7,0,0,0-5.36.88,22.58,22.58,0,0,0-5.21,2.68,22.24,22.24,0,0,0-4.41,3.92,14.62,14.62,0,0,0-2.74,4.67,11.46,11.46,0,0,0-.52,5.19A12.67,12.67,0,0,0,453.83,305.64Z" transform="translate(-95.16 -195.22)"/><path d="M494.1,308.44l1.32,3-18.81,8.38q-5.88,2.61-7.49,6t.56,8.21a13.18,13.18,0,0,0,2.6,4,7.13,7.13,0,0,0,3.34,2,9.42,9.42,0,0,0,4.14.05,23.25,23.25,0,0,0,5.09-1.69l18.81-8.37,1.33,3-19.69,8.77q-6.19,2.74-10.81,1.15t-7.36-7.73q-2.75-6.18-.76-10.69t8-7.2Z" transform="translate(-95.16 -195.22)"/><path d="M490.76,350.43l-15.21,3.86-.76-3.18,33.45-8.48,3.33,13.12c.94,3.69,1,6.69.08,9s-2.88,3.85-6,4.64a9,9,0,0,1-5.35,0A10,10,0,0,1,496.1,366a5.42,5.42,0,0,1-.9,2.71,6.91,6.91,0,0,1-1.91,1.82,12.22,12.22,0,0,1-2.52,1.21c-.91.31-1.8.59-2.66.84-1.26.36-2.3.68-3.12,1a18.16,18.16,0,0,0-2,.8,4.73,4.73,0,0,0-1.13.7,1.94,1.94,0,0,0-.53.73l-.28.07-.93-3.47a6.14,6.14,0,0,1,2.14-1.31c1-.4,2-.77,3-1.12s2.11-.68,3.12-1a18.12,18.12,0,0,0,2.45-.89,5.38,5.38,0,0,0,1.93-1.46,4.17,4.17,0,0,0,.85-1.82,6.78,6.78,0,0,0,.06-2.12,19.15,19.15,0,0,0-.43-2.29Zm5.2,9.18a14,14,0,0,0,1.21,3.19,7.56,7.56,0,0,0,1.85,2.32,6.1,6.1,0,0,0,2.52,1.25,6.72,6.72,0,0,0,3.19-.12,6.49,6.49,0,0,0,2.9-1.45,5.28,5.28,0,0,0,1.44-2.3,7.82,7.82,0,0,0,.32-2.85,17.13,17.13,0,0,0-.49-3.12l-2.55-10-12.89,3.27Z" transform="translate(-95.16 -195.22)"/><path d="M493.69,404.52a10.23,10.23,0,0,0-3.95.87,7.59,7.59,0,0,0-2.7,2.06,8.32,8.32,0,0,0-1.58,3,14.75,14.75,0,0,0-.61,3.67,12.36,12.36,0,0,0,.42,4,7.67,7.67,0,0,0,1.45,2.79,6.15,6.15,0,0,0,2.22,1.65,7.54,7.54,0,0,0,2.71.61,5.44,5.44,0,0,0,3.3-.78,6.94,6.94,0,0,0,2.13-2.3,14.26,14.26,0,0,0,1.41-3.3c.37-1.25.73-2.54,1.09-3.85a39.1,39.1,0,0,1,1.23-3.84,12.18,12.18,0,0,1,1.81-3.3,8.08,8.08,0,0,1,2.8-2.26A8.81,8.81,0,0,1,516,406a10.7,10.7,0,0,1,1.92,3.75,15.21,15.21,0,0,1,.57,5.12,14.62,14.62,0,0,1-1,5.07,10.19,10.19,0,0,1-2.37,3.54,9.17,9.17,0,0,1-3.37,2,10.92,10.92,0,0,1-4,.56l.12-3.12a7.91,7.91,0,0,0,3.44-.56,6.43,6.43,0,0,0,2.42-1.8,8.17,8.17,0,0,0,1.45-2.68,11.51,11.51,0,0,0,.56-3.15,11.2,11.2,0,0,0-.53-4.22,7.36,7.36,0,0,0-1.69-2.79,6.06,6.06,0,0,0-2.4-1.48,5.66,5.66,0,0,0-2.67-.25,4.65,4.65,0,0,0-2.74,1.23,8.45,8.45,0,0,0-1.76,2.53,19.81,19.81,0,0,0-1.19,3.34c-.32,1.22-.66,2.46-1,3.73a37.6,37.6,0,0,1-1.23,3.67,11.29,11.29,0,0,1-1.8,3.13,7.74,7.74,0,0,1-2.8,2.12,9.14,9.14,0,0,1-4.18.68,9,9,0,0,1-7.3-3.61c-1.68-2.27-2.43-5.41-2.28-9.4a17.34,17.34,0,0,1,.9-5,11.1,11.1,0,0,1,2.26-3.89,9.76,9.76,0,0,1,3.61-2.48,12,12,0,0,1,4.95-.74Z" transform="translate(-95.16 -195.22)"/><path d="M481.62,429.85l34.21,4.85-.45,3.23-34.22-4.85Z" transform="translate(-95.16 -195.22)"/><path d="M480.76,438.52l33.42,8.8-3,11.42c-.24.93-.51,1.83-.79,2.72a19,19,0,0,1-1,2.56,14.28,14.28,0,0,1-1.43,2.33,12.62,12.62,0,0,1-2,2,10.45,10.45,0,0,1-3.67,2,18,18,0,0,1-4.11.73,21.87,21.87,0,0,1-4.13-.15,30.73,30.73,0,0,1-3.71-.7,30.31,30.31,0,0,1-3.34-1.1,22.85,22.85,0,0,1-3.18-1.56,18.22,18.22,0,0,1-2.84-2.06,12.69,12.69,0,0,1-2.25-2.65,10.69,10.69,0,0,1-1.43-3.08,14,14,0,0,1-.47-3.21,18.38,18.38,0,0,1,.22-3.29,33.73,33.73,0,0,1,.71-3.34Zm1.86,3.87-2,7.57a31.5,31.5,0,0,0-.8,4.08,12,12,0,0,0,.27,4.16,7.78,7.78,0,0,0,1.55,3.34,13.41,13.41,0,0,0,2.69,2.52,18,18,0,0,0,3.32,1.82,27.42,27.42,0,0,0,3.51,1.19,31.89,31.89,0,0,0,3.75.74,16.22,16.22,0,0,0,3.81.06,12.25,12.25,0,0,0,3.57-.95,9.12,9.12,0,0,0,3.1-2.26,10.05,10.05,0,0,0,2-3.26,39.46,39.46,0,0,0,1.32-4.07l2-7.56Z" transform="translate(-95.16 -195.22)"/><path d="M472.24,468.65l31.55,14.1-9.39,21-2.54-1.13,8.05-18-11.39-5.1-7.27,16.26-2.54-1.14L486,478.37l-12.53-5.61-8.25,18.45-2.55-1.14Z" transform="translate(-95.16 -195.22)"/><path d="M445.81,542.23a23.78,23.78,0,0,1,3.89,6,17.33,17.33,0,0,1,1.49,6.36,14.39,14.39,0,0,1-1.2,6.23,15.54,15.54,0,0,1-4.24,5.59,16.58,16.58,0,0,1-6.27,3.58,14.33,14.33,0,0,1-6.39.4,16.75,16.75,0,0,1-6.13-2.37,24,24,0,0,1-5.46-4.7,23.58,23.58,0,0,1-3.83-6,17.22,17.22,0,0,1-1.48-6.35,14.5,14.5,0,0,1,1.24-6.26A17.82,17.82,0,0,1,428,535.58a14.38,14.38,0,0,1,6.37-.36,16.81,16.81,0,0,1,6.06,2.36A24.09,24.09,0,0,1,445.81,542.23Zm-22.24-1A12.39,12.39,0,0,0,420,546a11.58,11.58,0,0,0-.78,5.17,14.56,14.56,0,0,0,1.47,5.21,22.48,22.48,0,0,0,3.25,4.87,21.8,21.8,0,0,0,4.9,4.29,14,14,0,0,0,5.14,2,11,11,0,0,0,5.09-.36,13,13,0,0,0,4.75-2.73,11.89,11.89,0,0,0,3.48-4.74,11.53,11.53,0,0,0,.76-5.2,14.79,14.79,0,0,0-1.49-5.23,22.48,22.48,0,0,0-3.25-4.87,22.86,22.86,0,0,0-4.4-3.93,14.46,14.46,0,0,0-4.95-2.18,11.33,11.33,0,0,0-5.21.07A12.66,12.66,0,0,0,423.57,541.22Z" transform="translate(-95.16 -195.22)"/><path d="M420.12,579.54l.09,0-15.3-26,2.81-1.66,17.54,29.78-3.18,1.87-32.53-15.87-.09,0,15.33,26L402,595.35l-17.55-29.77,3.27-1.93Z" transform="translate(-95.16 -195.22)"/><path d="M352,595.62l-6.26,18.62-3.69.88,7.66-21.87-3.5-14.66,3.17-.76,3.45,14.43,16.58,16.32-3.64.87Z" transform="translate(-95.16 -195.22)"/><path d="M338,598.43a23.76,23.76,0,0,1-.47,7.16,17.24,17.24,0,0,1-2.59,6,14.46,14.46,0,0,1-4.67,4.29,15.67,15.67,0,0,1-6.73,2,16.68,16.68,0,0,1-7.17-.86,14.3,14.3,0,0,1-5.38-3.48,16.75,16.75,0,0,1-3.51-5.55,24,24,0,0,1-1.59-7,23,23,0,0,1,.48-7.09,17,17,0,0,1,2.58-6,14.47,14.47,0,0,1,4.72-4.3,17.83,17.83,0,0,1,14-1.1A14.37,14.37,0,0,1,333,586a16.82,16.82,0,0,1,3.46,5.5A24,24,0,0,1,338,598.43Zm-17.29-14a12.22,12.22,0,0,0-5.66,1.73,11.54,11.54,0,0,0-3.71,3.68,14.57,14.57,0,0,0-1.91,5.06,22.72,22.72,0,0,0-.29,5.85,22.12,22.12,0,0,0,1.39,6.37,13.87,13.87,0,0,0,2.95,4.65,10.94,10.94,0,0,0,4.3,2.75,13.47,13.47,0,0,0,5.45.63,12.13,12.13,0,0,0,5.61-1.74,11.72,11.72,0,0,0,3.71-3.74,14.83,14.83,0,0,0,1.91-5.08,22.29,22.29,0,0,0,.28-5.85,22.57,22.57,0,0,0-1.2-5.78,14.35,14.35,0,0,0-2.68-4.7,11.28,11.28,0,0,0-4.23-3A12.78,12.78,0,0,0,320.72,584.38Z" transform="translate(-95.16 -195.22)"/><path d="M298.27,617.89l-3.25-.33,2.08-20.49q.66-6.39-1.45-9.45c-1.4-2-3.86-3.24-7.4-3.6a13.07,13.07,0,0,0-4.78.26,7.18,7.18,0,0,0-3.35,1.92,9.38,9.38,0,0,0-2.1,3.58A23.9,23.9,0,0,0,277,595l-2.08,20.49-3.25-.33,2.18-21.44q.69-6.74,4.37-10t10.37-2.54q6.72.68,9.65,4.65t2.26,10.55Z" transform="translate(-95.16 -195.22)"/><path d="M263.48,594.13l4.2-15.12,3.13.92-9.24,33.25-13-3.63q-5.5-1.53-7.85-4.39c-1.56-1.92-1.91-4.41-1.05-7.5a9,9,0,0,1,2.66-4.64,10,10,0,0,1,5-2,5.41,5.41,0,0,1-1.9-2.12,6.84,6.84,0,0,1-.63-2.57,11.55,11.55,0,0,1,.2-2.79c.18-.94.38-1.85.58-2.72.33-1.28.56-2.34.72-3.19s.25-1.56.29-2.11a5,5,0,0,0-.06-1.34,1.93,1.93,0,0,0-.36-.82l.07-.28,3.48.92a6.32,6.32,0,0,1,.08,2.51c-.14,1-.32,2.09-.54,3.19s-.45,2.16-.69,3.19a19,19,0,0,0-.44,2.57,5.53,5.53,0,0,0,.3,2.4,4.37,4.37,0,0,0,1.16,1.65,7,7,0,0,0,1.82,1.1,18.35,18.35,0,0,0,2.2.76Zm-10.55,0a13.89,13.89,0,0,0-3.37-.54,7.76,7.76,0,0,0-2.94.45,6.2,6.2,0,0,0-2.33,1.57,6.86,6.86,0,0,0-1.48,2.83,6.54,6.54,0,0,0-.18,3.24,5.38,5.38,0,0,0,1.28,2.4,8.12,8.12,0,0,0,2.32,1.69,17.84,17.84,0,0,0,3,1.12l10,2.77,3.56-12.81Z" transform="translate(-95.16 -195.22)"/><path d="M215.06,569.79a10.36,10.36,0,0,0,1.22-3.86,7.82,7.82,0,0,0-.44-3.37,8.62,8.62,0,0,0-1.8-2.86,14.42,14.42,0,0,0-2.88-2.36,12.5,12.5,0,0,0-3.68-1.63,7.58,7.58,0,0,0-3.15-.14,6.13,6.13,0,0,0-2.53,1.1,7.41,7.41,0,0,0-1.89,2.05,5.45,5.45,0,0,0-1,3.25,7.12,7.12,0,0,0,.92,3,14.4,14.4,0,0,0,2.17,2.86c.9.95,1.83,1.9,2.79,2.87s1.86,2,2.71,3a12.33,12.33,0,0,1,2,3.21,8.23,8.23,0,0,1,.57,3.57,8.7,8.7,0,0,1-1.47,4,8.35,8.35,0,0,1-2.47,2.52,8.55,8.55,0,0,1-3.45,1.35,10.89,10.89,0,0,1-4.21-.21,15.57,15.57,0,0,1-4.72-2.06,14.67,14.67,0,0,1-3.89-3.42,10.16,10.16,0,0,1-1.88-3.82,9.3,9.3,0,0,1-.07-3.93,11,11,0,0,1,1.51-3.75l2.64,1.66a7.59,7.59,0,0,0-1.22,3.25,6.29,6.29,0,0,0,.35,3,8,8,0,0,0,1.6,2.6,11.55,11.55,0,0,0,2.45,2.05,11,11,0,0,0,3.92,1.65,7.36,7.36,0,0,0,3.26-.08,6,6,0,0,0,2.48-1.33,5.85,5.85,0,0,0,1.55-2.2,4.63,4.63,0,0,0,.3-3,8.67,8.67,0,0,0-1.31-2.78,20,20,0,0,0-2.31-2.7c-.89-.88-1.8-1.8-2.72-2.74s-1.78-1.9-2.58-2.89a11.47,11.47,0,0,1-1.8-3.12,7.83,7.83,0,0,1-.45-3.49,9.31,9.31,0,0,1,1.5-4,9,9,0,0,1,6.77-4.53q4.22-.47,9.29,2.72a17.43,17.43,0,0,1,3.85,3.25,11.23,11.23,0,0,1,2.25,3.91,9.69,9.69,0,0,1,.34,4.36,11.9,11.9,0,0,1-1.82,4.66Z" transform="translate(-95.16 -195.22)"/><path d="M199.15,546.69l-21.28,27.23-2.57-2,21.28-27.23Z" transform="translate(-95.16 -195.22)"/><path d="M192.07,541.62l-24.28,24.6-8.4-8.29c-.68-.68-1.34-1.36-2-2a21.9,21.9,0,0,1-1.71-2.16,13.65,13.65,0,0,1-1.3-2.41,12.26,12.26,0,0,1-.79-2.72,10.59,10.59,0,0,1,.13-4.16,18.06,18.06,0,0,1,1.41-3.93,22.48,22.48,0,0,1,2.19-3.51,29.64,29.64,0,0,1,2.46-2.87,28,28,0,0,1,2.61-2.34,23,23,0,0,1,2.94-2,18.29,18.29,0,0,1,3.2-1.43,12.37,12.37,0,0,1,3.42-.63,10.38,10.38,0,0,1,3.38.3,13.27,13.27,0,0,1,3,1.18,17.29,17.29,0,0,1,2.75,1.83c.87.71,1.72,1.47,2.54,2.28Zm-4.28-.31-5.57-5.5a33.06,33.06,0,0,0-3.14-2.73,12.38,12.38,0,0,0-3.75-1.84,7.79,7.79,0,0,0-3.67-.31,13.26,13.26,0,0,0-3.52,1.07,17.52,17.52,0,0,0-3.23,2,26.78,26.78,0,0,0-2.78,2.44,30.79,30.79,0,0,0-2.51,2.89,15.62,15.62,0,0,0-2,3.27,12.43,12.43,0,0,0-1,3.57,9,9,0,0,0,.42,3.81,10.17,10.17,0,0,0,1.85,3.32,37.28,37.28,0,0,0,2.88,3.17l5.57,5.5Z" transform="translate(-95.16 -195.22)"/><path d="M170.17,519.2l-27.92,20.38L128.7,521l2.24-1.64,11.64,15.94L152.66,528l-10.5-14.39,2.24-1.64,10.51,14.38L166,518.21l-11.91-16.32,2.24-1.64Z" transform="translate(-95.16 -195.22)"/><path d="M119.41,459.72a23.66,23.66,0,0,1-7.17.36A17.06,17.06,0,0,1,106,458.2a14.55,14.55,0,0,1-4.8-4.15,15.65,15.65,0,0,1-2.73-6.46,16.52,16.52,0,0,1,0-7.22,14.26,14.26,0,0,1,2.83-5.74,16.86,16.86,0,0,1,5.11-4.13,24,24,0,0,1,6.8-2.38,23.17,23.17,0,0,1,7.1-.34,17.14,17.14,0,0,1,6.24,1.88,14.38,14.38,0,0,1,4.81,4.2,17.74,17.74,0,0,1,2.69,13.75,14.49,14.49,0,0,1-2.87,5.7,16.73,16.73,0,0,1-5.07,4.07A23.58,23.58,0,0,1,119.41,459.72Zm12-18.77a12.27,12.27,0,0,0-2.36-5.44,11.54,11.54,0,0,0-4.08-3.26,14.4,14.4,0,0,0-5.25-1.32,22.27,22.27,0,0,0-5.84.39,21.62,21.62,0,0,0-6.17,2.11,14,14,0,0,0-4.28,3.46,11.07,11.07,0,0,0-2.24,4.59,13.3,13.3,0,0,0,0,5.48,12,12,0,0,0,2.38,5.38,11.59,11.59,0,0,0,4.13,3.25,14.61,14.61,0,0,0,5.27,1.32,22.27,22.27,0,0,0,5.84-.39,22.67,22.67,0,0,0,5.61-1.85,14.44,14.44,0,0,0,4.36-3.21,11.38,11.38,0,0,0,2.53-4.55A12.5,12.5,0,0,0,131.38,441Z" transform="translate(-95.16 -195.22)"/><path d="M100,419.09v.09l30.14-.49.06,3.27-34.56.56-.06-3.7,29.87-20.45v-.1l-30.19.49-.06-3.26,34.56-.56.06,3.79Z" transform="translate(-95.16 -195.22)"/><path d="M119.8,351.83l-13-14.68,1.07-3.64L123,351l14.47,4.23-.92,3.14-14.23-4.17L99.9,360.51l1.06-3.6Z" transform="translate(-95.16 -195.22)"/><path d="M124.33,338.22a24.14,24.14,0,0,1-6-4,17.22,17.22,0,0,1-3.92-5.23,14.58,14.58,0,0,1-1.4-6.19,15.57,15.57,0,0,1,1.63-6.82,16.63,16.63,0,0,1,4.31-5.79,14.42,14.42,0,0,1,5.69-2.94,16.92,16.92,0,0,1,6.57-.29,24,24,0,0,1,6.88,2.12,23.15,23.15,0,0,1,5.92,3.94,17.32,17.32,0,0,1,3.9,5.22,14.48,14.48,0,0,1,1.38,6.22,16.2,16.2,0,0,1-1.7,7,16,16,0,0,1-4.3,5.71,14.24,14.24,0,0,1-5.69,2.89,16.79,16.79,0,0,1-6.5.27A23.84,23.84,0,0,1,124.33,338.22Zm20.79-8a12.32,12.32,0,0,0,1.32-5.77,11.58,11.58,0,0,0-1.35-5.05,14.68,14.68,0,0,0-3.44-4.18,22.36,22.36,0,0,0-4.94-3.15,21.65,21.65,0,0,0-6.21-2,13.92,13.92,0,0,0-5.5.24,10.91,10.91,0,0,0-4.53,2.37,13.22,13.22,0,0,0-3.25,4.41,12,12,0,0,0-1.28,5.74,11.58,11.58,0,0,0,1.4,5.07,14.49,14.49,0,0,0,3.46,4.18,23.14,23.14,0,0,0,10.54,5,14.27,14.27,0,0,0,5.41,0,11.23,11.23,0,0,0,4.74-2.16A12.63,12.63,0,0,0,145.12,330.21Z" transform="translate(-95.16 -195.22)"/><path d="M127.26,294l1.91-2.65,16.71,12q5.22,3.75,8.92,3.46t6.81-4.61a13.52,13.52,0,0,0,2.16-4.27,7.26,7.26,0,0,0,0-3.87,9.67,9.67,0,0,0-2.05-3.61,23.89,23.89,0,0,0-4-3.54L141,275l1.91-2.65,17.49,12.59q5.49,4,6.44,8.75t-3,10.25q-4,5.5-8.85,6.05t-10.27-3.31Z" transform="translate(-95.16 -195.22)"/><path d="M165.2,275.75l11,11.18-2.36,2.26-24.23-24.58,9.64-9.5q4.06-4,7.72-4.61t7,2.81a9,9,0,0,1,2.69,4.62,10,10,0,0,1-.76,5.34,5.47,5.47,0,0,1,2.78-.59,6.93,6.93,0,0,1,2.54.73,12.09,12.09,0,0,1,2.32,1.56c.73.63,1.42,1.25,2.07,1.87,1,.91,1.75,1.65,2.41,2.2s1.23,1,1.69,1.31a5.23,5.23,0,0,0,1.18.62,2.06,2.06,0,0,0,.9.09l.21.2-2.53,2.56a6.19,6.19,0,0,1-2.22-1.18c-.82-.63-1.65-1.31-2.5-2.06s-1.65-1.47-2.42-2.19a19.59,19.59,0,0,0-2-1.66,5.53,5.53,0,0,0-2.24-.93,4.34,4.34,0,0,0-2,.19,6.85,6.85,0,0,0-1.86,1,19.07,19.07,0,0,0-1.76,1.53Zm5.29-9.12a14.22,14.22,0,0,0,2.14-2.65,7.59,7.59,0,0,0,1.07-2.78,5.94,5.94,0,0,0-.2-2.8,7.58,7.58,0,0,0-4.43-4.46,5.2,5.2,0,0,0-2.71-.09,7.92,7.92,0,0,0-2.62,1.17,16.89,16.89,0,0,0-2.45,2l-7.38,7.28,9.34,9.47Z" transform="translate(-95.16 -195.22)"/><path d="M210.38,245.85a10.33,10.33,0,0,0,2.75,3,7.82,7.82,0,0,0,3.14,1.29,8.62,8.62,0,0,0,3.38-.14,14.59,14.59,0,0,0,3.47-1.34,12.38,12.38,0,0,0,3.25-2.38,7.82,7.82,0,0,0,1.68-2.67,6.13,6.13,0,0,0,.3-2.74,7.46,7.46,0,0,0-.84-2.65,5.32,5.32,0,0,0-2.34-2.45,7.08,7.08,0,0,0-3.06-.69,14.93,14.93,0,0,0-3.56.46c-1.27.31-2.56.65-3.87,1s-2.63.65-3.94.88a12.25,12.25,0,0,1-3.76.1,8.1,8.1,0,0,1-3.37-1.28,8.58,8.58,0,0,1-2.78-3.27,8.45,8.45,0,0,1-1-3.4,8.54,8.54,0,0,1,.55-3.67,10.81,10.81,0,0,1,2.27-3.55,15.48,15.48,0,0,1,4.13-3.07,14.39,14.39,0,0,1,4.89-1.68,10.1,10.1,0,0,1,4.25.26,9.11,9.11,0,0,1,3.45,1.89,10.9,10.9,0,0,1,2.51,3.17l-2.75,1.47a7.8,7.8,0,0,0-2.22-2.68,6.38,6.38,0,0,0-2.78-1.18,8.07,8.07,0,0,0-3,.1,11.6,11.6,0,0,0-3,1.11,11.09,11.09,0,0,0-3.38,2.59,7.35,7.35,0,0,0-1.55,2.86,6.14,6.14,0,0,0-.08,2.82,6,6,0,0,0,1.14,2.44,4.67,4.67,0,0,0,2.45,1.74,8.55,8.55,0,0,0,3.07.24,19.28,19.28,0,0,0,3.48-.66c1.22-.34,2.46-.68,3.73-1s2.54-.6,3.79-.8a11.52,11.52,0,0,1,3.61,0,7.87,7.87,0,0,1,3.25,1.34,9.3,9.3,0,0,1,2.69,3.27,9,9,0,0,1,.58,8.13q-1.68,3.89-7,6.71a17.07,17.07,0,0,1-4.73,1.73,10.88,10.88,0,0,1-4.51,0,9.51,9.51,0,0,1-4-1.86,11.83,11.83,0,0,1-3.15-3.9Z" transform="translate(-95.16 -195.22)"/><path d="M238.33,243.5l-13.06-32,3-1.23,13.06,32Z" transform="translate(-95.16 -195.22)"/><path d="M246.22,239.87,237,206.57l11.38-3.16c.92-.25,1.84-.48,2.75-.69a19.39,19.39,0,0,1,2.72-.4,14,14,0,0,1,2.74.06,12.28,12.28,0,0,1,2.75.68,10.44,10.44,0,0,1,3.54,2.18,17.82,17.82,0,0,1,2.71,3.18,23.28,23.28,0,0,1,2,3.64,30.83,30.83,0,0,1,1.26,3.56,29.12,29.12,0,0,1,.73,3.44,23.43,23.43,0,0,1,.26,3.54,18.34,18.34,0,0,1-.35,3.48,12.52,12.52,0,0,1-1.16,3.29,10.86,10.86,0,0,1-1.94,2.78,13.61,13.61,0,0,1-2.53,2,18.44,18.44,0,0,1-3,1.47c-1,.41-2.13.76-3.24,1.07Zm2.4-3.55,7.54-2.1a31.11,31.11,0,0,0,3.93-1.36,12.33,12.33,0,0,0,3.46-2.33,7.83,7.83,0,0,0,2.1-3,12.93,12.93,0,0,0,.82-3.59,17.14,17.14,0,0,0-.1-3.78,27.72,27.72,0,0,0-.74-3.63,30.45,30.45,0,0,0-1.25-3.62,15.3,15.3,0,0,0-1.87-3.31,11.79,11.79,0,0,0-2.62-2.61,9,9,0,0,0-3.51-1.54,10,10,0,0,0-3.8,0,36.29,36.29,0,0,0-4.18.91l-7.54,2.09Z" transform="translate(-95.16 -195.22)"/><path d="M276.55,232.05l-3.73-34.35,22.86-2.48L296,198l-19.62,2.13,1.35,12.41,17.71-1.92.3,2.77L278,215.29l1.48,13.64,20.09-2.18.3,2.77Z" transform="translate(-95.16 -195.22)"/></svg>