<svg id="Layer_2" data-name="Layer 2" xmlns="http://www.w3.org/2000/svg" viewBox="0 0 200 200"><defs><style>.cls-1{fill:#fff;}.cls-1,.cls-2,.cls-3,.cls-4,.cls-5,.cls-6{stroke:#000;stroke-miterlimit:10;stroke-width:3px;}.cls-2,.cls-3,.cls-4,.cls-5,.cls-6{fill:none;}.cls-3{stroke-dasharray:2 1;}.cls-4{fill-rule:evenodd;}.cls-5{stroke-linecap:round;}.cls-6{stroke-dasharray:1.979 0.989;}</style></defs><title>icons</title><path class="cls-1" d="M117.6,55.565H124.4a1,1,0,0,1,1,1V70.153a0,0,0,0,1,0,0H116.6a0,0,0,0,1,0,0V56.565A1,1,0,0,1,117.6,55.565Z"/><path class="cls-1" d="M75.6,55.565H82.4a1,1,0,0,1,1,1V70.153a0,0,0,0,1,0,0H74.6a0,0,0,0,1,0,0V56.565A1,1,0,0,1,75.6,55.565Z"/><path class="cls-1" d="M93.5,58.816h13a25,25,0,0,1,25,25v50.273a10,10,0,0,1-10,10h-43a10,10,0,0,1-10-10V83.816a25,25,0,0,1,25-25Z"/><path class="cls-1" d="M98.045,78.941h3.909a20,20,0,0,1,20,20v30.418a9.4,9.4,0,0,1-9.4,9.4H87.445a9.4,9.4,0,0,1-9.4-9.4V98.941a20,20,0,0,1,20-20Z"/><line class="cls-2" x1="85" y1="94.119" x2="86" y2="94.119"/><line class="cls-3" x1="87" y1="94.119" x2="113.5" y2="94.119"/><line class="cls-2" x1="114" y1="94.119" x2="115" y2="94.119"/><path class="cls-4" d="M108,58.816V55.034a5.236,5.236,0,0,0-5.236-5.236H97.236A5.236,5.236,0,0,0,92,55.034v3.782"/><line class="cls-5" x1="112" y1="138.759" x2="112" y2="150.202"/><line class="cls-5" x1="88" y1="138.759" x2="88" y2="150.202"/><line class="cls-5" x1="68.5" y1="110.452" x2="78.023" y2="119.975"/><line class="cls-5" x1="131.477" y1="110.452" x2="121.955" y2="119.975"/><line class="cls-2" x1="127.358" y1="93.237" x2="127.358" y2="92.237"/><path class="cls-6" d="M127.358,91.248v-5.6a22,22,0,0,0-22-22H94.642a22,22,0,0,0-22,22v6.1"/><line class="cls-2" x1="72.642" y1="92.237" x2="72.642" y2="93.237"/></svg>