<svg id="Layer_2" data-name="Layer 2" xmlns="http://www.w3.org/2000/svg" viewBox="0 0 200 200"><defs><style>.cls-1{fill:#fff;}.cls-1,.cls-2{stroke:#000;stroke-miterlimit:10;stroke-width:3px;}.cls-2{fill:none;}</style></defs><title>icons</title><path class="cls-1" d="M125.708,59.969v-7.5h-7v7.5a3.5,3.5,0,0,0,3.5,3.5h0a3.5,3.5,0,0,0,3.5-3.5v-7.5"/><rect class="cls-1" x="121.208" y="48.469" width="2" height="4"/><line class="cls-2" x1="122.208" y1="63.469" x2="122.208" y2="72.698"/><rect class="cls-2" x="119.209" y="72.698" width="6" height="20"/><path class="cls-2" d="M76.292,145.531V88.438h0a5.74,5.74,0,1,1,11.479,0v32.031a5.74,5.74,0,1,0,11.479,0V88.438h0a5.74,5.74,0,1,1,11.479,0v32.031a5.74,5.74,0,1,0,11.479,0V92.7"/><rect class="cls-1" x="74.292" y="145.531" width="4" height="4"/><rect class="cls-1" x="74.292" y="149.531" width="4" height="2"/></svg>