<svg id="Layer_2" data-name="Layer 2" xmlns="http://www.w3.org/2000/svg" viewBox="0 0 200 200"><defs><style>.cls-1{fill:#fff;stroke-linecap:square;}.cls-1,.cls-2,.cls-3{stroke:#000;stroke-miterlimit:10;stroke-width:3px;}.cls-2,.cls-3{fill:none;}.cls-2{stroke-linecap:round;}</style></defs><title>icons</title><polyline class="cls-1" points="125 74 125 143 75 143 75 74"/><path class="cls-2" d="M111.5,82V65a8,8,0,0,0-8-8h-7a8,8,0,0,0-8,8V82"/><polyline class="cls-3" points="75 73.3 77.374 74.7 79.75 73.3 82.129 74.7 84.508 73.3 86.885 74.7 89.263 73.3 91.644 74.7 94.023 73.3 96.404 74.7 98.784 73.3 101.166 74.7 103.547 73.3 105.929 74.7 108.312 73.3 110.69 74.7 113.071 73.3 115.454 74.7 117.838 73.3 120.223 74.7 122.612 73.3 125 74.7"/></svg>