<svg id="Layer_2" data-name="Layer 2" xmlns="http://www.w3.org/2000/svg" viewBox="0 0 200 200"><defs><style>.cls-1,.cls-2{fill:#fff;stroke:#000;stroke-width:3px;}.cls-1{stroke-miterlimit:10;}.cls-2{stroke-linejoin:bevel;}</style></defs><title>icons</title><path class="cls-1" d="M69.333,73.5h61.333a5,5,0,0,1,5,5v41a0,0,0,0,1,0,0H64.333a0,0,0,0,1,0,0v-41A5,5,0,0,1,69.333,73.5Z"/><path class="cls-1" d="M64.334,119.5h71.333a5,5,0,0,1,5,5v2a0,0,0,0,1,0,0H59.334a0,0,0,0,1,0,0v-2A5,5,0,0,1,64.334,119.5Z" transform="translate(200 246) rotate(180)"/><path class="cls-1" d="M96.7,119.5h6.6a.7.7,0,0,1,.7.7v1.3a0,0,0,0,1,0,0H96a0,0,0,0,1,0,0v-1.3A.7.7,0,0,1,96.7,119.5Z" transform="translate(200 241) rotate(180)"/><rect class="cls-2" x="69.833" y="79.5" width="61" height="34"/><circle class="cls-1" cx="100" cy="76.375" r="0.125"/></svg>