<svg id="Layer_2" data-name="Layer 2" xmlns="http://www.w3.org/2000/svg" viewBox="0 0 200 200"><defs><style>.cls-1{fill:#fff;stroke:#000;stroke-miterlimit:10;stroke-width:3px;}</style></defs><title>icons</title><rect class="cls-1" x="65" y="82.5" width="70" height="35"/><rect class="cls-1" x="69.605" y="110.25" width="60.789" height="2"/><circle class="cls-1" cx="72.5" cy="102.723" r="2.943"/><rect class="cls-1" x="69.557" y="87.833" width="5.887" height="7.298" rx="1" ry="1"/><circle class="cls-1" cx="83.5" cy="102.723" r="2.943"/><rect class="cls-1" x="80.556" y="87.833" width="5.887" height="7.298" rx="1" ry="1"/><circle class="cls-1" cx="94.5" cy="102.723" r="2.943"/><rect class="cls-1" x="91.556" y="87.833" width="5.887" height="7.298" rx="1" ry="1"/><circle class="cls-1" cx="105.5" cy="102.723" r="2.943"/><rect class="cls-1" x="102.557" y="87.833" width="5.887" height="7.298" rx="1" ry="1"/><circle class="cls-1" cx="116.5" cy="102.723" r="2.943"/><rect class="cls-1" x="113.556" y="87.833" width="5.887" height="7.298" rx="1" ry="1"/><circle class="cls-1" cx="127.5" cy="102.723" r="2.943"/><rect class="cls-1" x="124.556" y="87.833" width="5.887" height="7.298" rx="1" ry="1"/><polygon points="141.767 108.364 116.5 132.924 118.621 135.045 143.181 109.779 141.767 108.364"/><path d="M145.3,108.3c-.567.566-2.193,1.274-2.76.707s.141-2.193.707-2.76a29,29,0,0,1,4.174-2.121A29,29,0,0,1,145.3,108.3Z"/></svg>