<svg id="Layer_2" data-name="Layer 2" xmlns="http://www.w3.org/2000/svg" viewBox="0 0 200 200"><defs><style>.cls-1{fill:#fff;}.cls-1,.cls-2{stroke:#000;stroke-linecap:round;stroke-miterlimit:10;stroke-width:3px;}.cls-2{fill:none;}</style></defs><title>icons</title><path class="cls-1" d="M72.5,128h55a0,0,0,0,1,0,0v62a8,8,0,0,1-8,8h-39a8,8,0,0,1-8-8V128A0,0,0,0,1,72.5,128Z"/><line class="cls-2" x1="66" y1="128" x2="134" y2="128"/><line class="cls-2" x1="100" y1="141" x2="100" y2="190"/><line class="cls-2" x1="113" y1="141" x2="113" y2="190"/><line class="cls-2" x1="87" y1="141" x2="87" y2="190"/><path class="cls-2" d="M113,128v-5a5,5,0,0,0-5-5H92a5,5,0,0,0-5,5v5"/></svg>