<svg id="Layer_2" data-name="Layer 2" xmlns="http://www.w3.org/2000/svg" viewBox="0 0 200 200"><defs><style>.cls-1{fill:#fff;}.cls-1,.cls-2{stroke:#000;stroke-miterlimit:10;stroke-width:3px;}.cls-2{fill:none;stroke-linecap:round;}</style></defs><title>icons</title><path class="cls-1" d="M125.083,179.5,125,149.25c0-12.82-19-24.25-19.588-24.817l5.91-13.68a1,1,0,0,0-1.155-1.337l-9.945,2.034a1.008,1.008,0,0,1-.444,0l-9.945-2.034a1,1,0,0,0-1.155,1.337l5.91,13.68C94,125,75,136.43,75,149.25l-.084,30.27L70,194.25A3.75,3.75,0,0,0,73.75,198L100,195.5l26.25,2.5a3.75,3.75,0,0,0,3.75-3.75Z"/><path class="cls-1" d="M94.588,124.433l3.679,1.36a5,5,0,0,0,3.466,0l3.679-1.36"/><path class="cls-2" d="M88,57c4,7,1,15-1,22-2,4-3,9,1,14"/><path class="cls-2" d="M100,57c4,7,1,15-1,22-2,4-3,9,1,14"/><path class="cls-2" d="M112,57c4,7,1,15-1,22-2,4-3,9,1,14"/></svg>