<svg id="Layer_2" data-name="Layer 2" xmlns="http://www.w3.org/2000/svg" viewBox="0 0 200 200"><defs><style>.cls-1,.cls-2{fill:#fff;}.cls-1,.cls-2,.cls-3,.cls-4{stroke:#000;stroke-width:3px;}.cls-1,.cls-4{stroke-miterlimit:10;}.cls-2,.cls-3,.cls-4{stroke-linecap:round;}.cls-2,.cls-3{stroke-linejoin:round;}.cls-3,.cls-4{fill:none;}</style></defs><title>icons</title><path class="cls-1" d="M44.375,85.5h58a0,0,0,0,1,0,0v24a10,10,0,0,1-10,10h-38a10,10,0,0,1-10-10v-24A0,0,0,0,1,44.375,85.5Z"/><rect class="cls-2" x="123.625" y="85.5" width="32" height="2"/><path class="cls-3" d="M102.375,91.5l8.805-4.759a2,2,0,0,1,.951-.241h11.494"/><line class="cls-3" x1="44.375" y1="80.5" x2="102.375" y2="80.5"/><path class="cls-4" d="M71.708,75.5h3.333a3,3,0,0,1,3,3v2a0,0,0,0,1,0,0H68.708a0,0,0,0,1,0,0v-2A3,3,0,0,1,71.708,75.5Z"/></svg>