<svg id="Layer_2" data-name="Layer 2" xmlns="http://www.w3.org/2000/svg" viewBox="0 0 200 200"><defs><style>.cls-1,.cls-2{fill:#fff;}.cls-1,.cls-2,.cls-3,.cls-4,.cls-5,.cls-6{stroke:#000;stroke-width:3px;}.cls-1,.cls-4{stroke-miterlimit:10;}.cls-2,.cls-3,.cls-5,.cls-6{stroke-linejoin:round;}.cls-3,.cls-4,.cls-5,.cls-6{fill:none;}.cls-3{stroke-dasharray:2 1;}.cls-6{stroke-linecap:round;}</style></defs><title>icons</title><path class="cls-1" d="M86.811,83h36a12,12,0,0,1,12,12v17a5,5,0,0,1-5,5h-50a5,5,0,0,1-5-5V95A12,12,0,0,1,86.811,83Z"/><rect class="cls-2" x="134.811" y="107" width="3" height="5"/><line class="cls-3" x1="84.811" y1="94" x2="125.811" y2="94"/><line class="cls-4" x1="122.811" y1="94" x2="128.811" y2="100"/><line class="cls-5" x1="70.811" y1="99.101" x2="74.811" y2="99.101"/><path class="cls-2" d="M73.811,99.1a3,3,0,0,0-3,3v8.677a2,2,0,0,1-2,2h-.122a2,2,0,0,1-2-2V102.1a3,3,0,0,1,3-3h4.122Z"/><line class="cls-6" x1="103.577" y1="82.687" x2="82.778" y2="74.646"/><line class="cls-6" x1="83.905" y1="75.082" x2="85.423" y2="71.157"/><line class="cls-6" x1="86.704" y1="76.164" x2="88.221" y2="72.239"/><line class="cls-6" x1="89.502" y1="77.246" x2="91.02" y2="73.32"/></svg>