<svg id="Layer_2" data-name="Layer 2" xmlns="http://www.w3.org/2000/svg" viewBox="0 0 200 200"><defs><style>.cls-1{fill:#fff;}.cls-1,.cls-2,.cls-3{stroke:#000;stroke-miterlimit:10;stroke-width:3px;}.cls-2,.cls-3{fill:none;}.cls-3{stroke-linecap:round;}</style></defs><title>icons</title><rect class="cls-1" x="56" y="117" width="88" height="46" rx="2" ry="2"/><rect class="cls-1" x="61" y="122" width="60" height="10" rx="2" ry="2"/><rect class="cls-1" x="126" y="123" width="13" height="8" rx="2" ry="2"/><circle class="cls-1" cx="129.75" cy="127" r="1"/><circle class="cls-1" cx="135.375" cy="127" r="1"/><line class="cls-2" x1="61" y1="127" x2="121" y2="127"/><line class="cls-2" x1="91" y1="122" x2="91" y2="132"/><line class="cls-2" x1="76" y1="132" x2="76" y2="122"/><line class="cls-2" x1="106" y1="132" x2="106" y2="122"/><line class="cls-3" x1="61" y1="137.625" x2="121" y2="137.625"/><line class="cls-3" x1="61" y1="141.625" x2="121" y2="141.625"/><line class="cls-3" x1="61" y1="145.626" x2="121" y2="145.626"/><line class="cls-3" x1="61" y1="149.626" x2="121" y2="149.626"/><line class="cls-3" x1="61" y1="153.626" x2="121" y2="153.626"/><line class="cls-3" x1="61" y1="157.626" x2="121" y2="157.626"/><path class="cls-1" d="M118,185.313a3,3,0,0,1,0-6h5v6Z"/><line class="cls-3" x1="123" y1="184.313" x2="127.375" y2="184.313"/><line class="cls-3" x1="123" y1="180.313" x2="127.375" y2="180.313"/><path class="cls-2" d="M115,182.313H63.312a4.625,4.625,0,1,1,0-9.25h71.5a4.625,4.625,0,0,0,4.625-4.625v-5.5"/></svg>