<svg id="Layer_2" data-name="Layer 2" xmlns="http://www.w3.org/2000/svg" viewBox="0 0 200 200"><defs><style>.cls-1{fill:#fff;}.cls-1,.cls-2,.cls-3{stroke:#000;stroke-miterlimit:10;stroke-width:3px;}.cls-2,.cls-3{fill:none;}.cls-2{stroke-linecap:square;}</style></defs><title>icons</title><path class="cls-1" d="M13.46,82.539H186.54a3,3,0,0,1,3,3v9.706a0,0,0,0,1,0,0H10.46a0,0,0,0,1,0,0V85.539A3,3,0,0,1,13.46,82.539Z"/><line class="cls-2" x1="5" y1="99.48" x2="195" y2="99.48"/><path class="cls-3" d="M139.856,102.481V79.859c0-5.418-4.889-9.81-10.919-9.81H27.112c-6.031,0-10.919,4.392-10.919,9.81v22.622"/><line class="cls-2" x1="195" y1="91.48" x2="195" y2="198"/><line class="cls-2" x1="5" y1="91.48" x2="5" y2="198"/><line class="cls-2" x1="3.5" y1="173" x2="6.5" y2="173"/><line class="cls-2" x1="3.5" y1="136.24" x2="6.5" y2="136.24"/></svg>