<svg id="Layer_2" data-name="Layer 2" xmlns="http://www.w3.org/2000/svg" viewBox="0 0 200 200"><defs><style>.cls-1,.cls-3{fill:none;}.cls-1,.cls-2,.cls-3{stroke:#000;stroke-miterlimit:10;stroke-width:3px;}.cls-2{fill:#fff;}.cls-2,.cls-3{stroke-linecap:square;}</style></defs><title>icons</title><line class="cls-1" x1="45" y1="140" x2="45" y2="198"/><line class="cls-1" x1="155" y1="140" x2="155" y2="198"/><rect class="cls-2" x="45" y="135" width="110" height="5"/><rect class="cls-2" x="45" y="63.5" width="110" height="64.5"/><rect class="cls-2" x="45" y="63.5" width="110" height="11.75"/><rect class="cls-2" x="45" y="89" width="110" height="46"/><path class="cls-2" d="M72.5,75.25h55a0,0,0,0,1,0,0V76.5a4,4,0,0,1-4,4h-47a4,4,0,0,1-4-4V75.25A0,0,0,0,1,72.5,75.25Z"/><line class="cls-3" x1="79.5" y1="75.25" x2="79.5" y2="80.5"/><line class="cls-3" x1="120.5" y1="75.25" x2="120.5" y2="80.5"/><circle class="cls-2" cx="50" cy="94" r="0.05"/><circle class="cls-2" cx="150" cy="94" r="0.05"/><circle class="cls-2" cx="50" cy="130" r="0.05"/><circle class="cls-2" cx="150" cy="130" r="0.05"/><line class="cls-3" x1="45" y1="63.5" x2="45" y2="57.25"/><line class="cls-3" x1="155" y1="63.5" x2="155" y2="57.25"/><line class="cls-3" x1="55.833" y1="59.5" x2="79.5" y2="59.5"/><line class="cls-3" x1="58.834" y1="55.499" x2="82.5" y2="55.499"/><line class="cls-3" x1="122" y1="131" x2="137.666" y2="131"/></svg>