<svg id="Layer_2" data-name="Layer 2" xmlns="http://www.w3.org/2000/svg" viewBox="0 0 200 200"><defs><style>.cls-1{fill:#fff;}.cls-1,.cls-2{stroke:#000;stroke-miterlimit:10;stroke-width:3px;}.cls-2{fill:none;}</style></defs><title>icons</title><path class="cls-1" d="M125.5,109.411v12.75a8.5,8.5,0,0,1-8.5,8.5H83a8.5,8.5,0,0,1-8.5-8.5v-12.75"/><line class="cls-2" x1="70.25" y1="106.011" x2="129.75" y2="106.011"/><path class="cls-1" d="M118.214,85.832v9.107a6.071,6.071,0,0,1-6.071,6.071H87.857a6.071,6.071,0,0,1-6.071-6.071V85.832"/><line class="cls-2" x1="78.75" y1="82.403" x2="121.25" y2="82.403"/><path class="cls-1" d="M110.929,68.3V73.76a3.643,3.643,0,0,1-3.643,3.643H92.714a3.643,3.643,0,0,1-3.643-3.643V68.3"/><line class="cls-2" x1="86.25" y1="64.839" x2="113.75" y2="64.839"/></svg>