<svg id="Layer_2" data-name="Layer 2" xmlns="http://www.w3.org/2000/svg" viewBox="0 0 200 200"><defs><style>.cls-1{fill:#fff;}.cls-1,.cls-2,.cls-3{stroke:#000;stroke-miterlimit:10;stroke-width:3px;}.cls-2,.cls-3{fill:none;}.cls-2{stroke-dasharray:2 1;}</style></defs><title>icons</title><path class="cls-1" d="M138,81.231H62a6,6,0,0,0-6,6v63.841a24,24,0,0,0,24,24h40a24,24,0,0,0,24-24V87.231A6,6,0,0,0,138,81.231Zm.333,69.8a18,18,0,0,1-18,18H79.667a18,18,0,0,1-18-18V93.274a6,6,0,0,1,6-6h64.666a6,6,0,0,1,6,6Z"/><rect class="cls-1" x="59" y="73.5" width="82" height="53" rx="6" ry="6"/><rect class="cls-1" x="59" y="73.5" width="82" height="32" rx="6" ry="6"/><rect class="cls-1" x="97" y="85" width="6" height="34.001"/><line class="cls-2" x1="132" y1="105.5" x2="132" y2="119.001"/><path class="cls-1" d="M104.5,101.5a1,1,0,0,0-1-1h-7a1,1,0,0,0-1,1v1.837a2.839,2.839,0,0,1,0,4.326V109.5a1,1,0,0,0,1,1h7a1,1,0,0,0,1-1v-1.837a2.839,2.839,0,0,1,0-4.326Z"/><rect class="cls-1" x="82.5" y="167.05" width="35" height="10" rx="2" ry="2"/><path class="cls-3" d="M117.5,168.05c0,4.43-7.835,8.022-17.5,8.022s-17.5-3.592-17.5-8.022"/></svg>