<svg id="Layer_2" data-name="Layer 2" xmlns="http://www.w3.org/2000/svg" viewBox="0 0 200 200"><defs><style>.cls-1{fill:#fff;}.cls-1,.cls-2,.cls-3{stroke:#000;stroke-width:3px;}.cls-1,.cls-3{stroke-miterlimit:10;}.cls-2,.cls-3{fill:none;stroke-linecap:round;}.cls-2{stroke-linejoin:round;}</style></defs><title>icons</title><path class="cls-1" d="M125,149.25c0-12.82-7.155-23.372-19.588-24.817a7.479,7.479,0,0,1-10.824,0C82.155,125.878,75,136.43,75,149.25l-2.084,36.27L70,194.25A3.75,3.75,0,0,0,73.75,198L100,195.5l26.25,2.5a3.75,3.75,0,0,0,3.75-3.75l-2.917-8.75Z"/><path class="cls-2" d="M107.5,173.12c0-47.842-8-46.347-8-46.347s18-4.485,18,37.377"/><line class="cls-3" x1="107.5" y1="176.85" x2="107.5" y2="176.975"/><line class="cls-3" x1="117.5" y1="167.88" x2="117.5" y2="168.005"/></svg>