<svg id="Layer_2" data-name="Layer 2" xmlns="http://www.w3.org/2000/svg" viewBox="0 0 200 200"><defs><style>.cls-1{fill:#fff;}.cls-1,.cls-2,.cls-3{stroke:#000;stroke-miterlimit:10;stroke-width:3px;}.cls-2,.cls-3{fill:none;}.cls-3{stroke-linecap:round;}</style></defs><title>icons</title><path class="cls-1" d="M48,2H152a0,0,0,0,1,0,0V7a5,5,0,0,1-5,5H53a5,5,0,0,1-5-5V2A0,0,0,0,1,48,2Z"/><line class="cls-2" x1="58" y1="2" x2="58" y2="12"/><line class="cls-2" x1="142" y1="2" x2="142" y2="12"/><line class="cls-3" x1="99.983" y1="22.77" x2="99.983" y2="30.77"/><line class="cls-3" x1="84.983" y1="22.77" x2="80.28" y2="30.288"/><line class="cls-3" x1="130.017" y1="22.77" x2="137.537" y2="30.175"/><line class="cls-3" x1="114.983" y1="22.77" x2="119.686" y2="30.288"/><line class="cls-3" x1="69.983" y1="22.77" x2="62.463" y2="30.175"/><path class="cls-1" d="M61,163.875a3,3,0,0,0,0,6h5v-6Z"/><line class="cls-3" x1="66" y1="164.875" x2="70.375" y2="164.875"/><line class="cls-3" x1="66" y1="168.875" x2="70.375" y2="168.875"/><path class="cls-2" d="M58,166.875H42.5a4.625,4.625,0,0,1-4.625-4.625V11.625A4.625,4.625,0,0,1,42.5,7H48"/></svg>