<svg id="Layer_2" data-name="Layer 2" xmlns="http://www.w3.org/2000/svg" viewBox="0 0 200 200"><defs><style>.cls-1{fill:none;stroke:#000;stroke-miterlimit:10;stroke-width:3px;}</style></defs><title>icons</title><path class="cls-1" d="M136.9,123.6H107.657a9,9,0,0,0-5.622,1.972L100,127.2l-2.035-1.628a9,9,0,0,0-5.622-1.972H63.1V76.8H92.343a9,9,0,0,1,5.622,1.972L100,80.4l2.035-1.628a9,9,0,0,1,5.622-1.972H136.9Z"/><line class="cls-1" x1="104.5" y1="84.225" x2="131.95" y2="84.225"/><line class="cls-1" x1="104.5" y1="89.85" x2="131.95" y2="89.85"/><line class="cls-1" x1="104.5" y1="95.475" x2="131.95" y2="95.475"/><line class="cls-1" x1="104.5" y1="101.1" x2="116.649" y2="101.1"/><polygon points="90.77 108.606 86.882 110.372 65.669 131.585 67.79 133.707 89.004 112.494 90.77 108.606"/></svg>