<svg id="Layer_2" data-name="Layer 2" xmlns="http://www.w3.org/2000/svg" viewBox="0 0 200 200"><defs><style>.cls-1{fill:#fff;stroke:#000;stroke-miterlimit:10;stroke-width:3px;}</style></defs><title>icons</title><path class="cls-1" d="M124.61,118.14l2-31.53c0-8.417-7.167-14.25-13.25-14.25-6.766,0-10.667,7.083-10.25,14.25l3.5,31.53c.75,5.47,3.253,9.5,8.5,9.5A9.5,9.5,0,0,0,124.61,118.14Z"/><path class="cls-1" d="M105.165,105.122s8.179-21.57,20.27,0"/><path class="cls-1" d="M75.39,118.14l-2-31.53c0-8.417,7.167-14.25,13.25-14.25,6.766,0,10.667,7.083,10.25,14.25l-3.5,31.53c-.75,5.47-3.253,9.5-8.5,9.5A9.5,9.5,0,0,1,75.39,118.14Z"/><path class="cls-1" d="M94.835,105.122s-8.179-21.57-20.27,0"/></svg>