<svg id="Layer_2" data-name="Layer 2" xmlns="http://www.w3.org/2000/svg" viewBox="0 0 200 200"><defs><style>.cls-1,.cls-4{fill:#fff;}.cls-1,.cls-2,.cls-3,.cls-4{stroke:#000;stroke-miterlimit:10;stroke-width:3px;}.cls-1{stroke-linecap:round;}.cls-2,.cls-3{fill:none;}.cls-3{stroke-dasharray:2.032 1.016;}</style></defs><title>icons</title><rect class="cls-1" x="70" y="110" width="60" height="80" rx="8" ry="8"/><rect class="cls-1" x="76" y="121" width="48" height="64" rx="8" ry="8"/><path class="cls-2" d="M115,110V71.909c0-4.8-4.672-8.7-10.435-8.7h-9.13c-5.763,0-10.435,3.893-10.435,8.7V110"/><line class="cls-2" x1="83.25" y1="133" x2="84.25" y2="133"/><line class="cls-3" x1="85.266" y1="133" x2="115.242" y2="133"/><line class="cls-2" x1="115.75" y1="133" x2="116.75" y2="133"/><rect class="cls-4" x="91" y="61.648" width="18" height="3" rx="1" ry="1"/><path class="cls-4" d="M76,189.984h3a0,0,0,0,1,0,0V196.5a1.5,1.5,0,0,1-1.5,1.5h0a1.5,1.5,0,0,1-1.5-1.5v-6.516A0,0,0,0,1,76,189.984Z"/><path class="cls-4" d="M121,189.984h3a0,0,0,0,1,0,0V196.5a1.5,1.5,0,0,1-1.5,1.5h0a1.5,1.5,0,0,1-1.5-1.5v-6.516A0,0,0,0,1,121,189.984Z"/></svg>