<svg id="Layer_2" data-name="Layer 2" xmlns="http://www.w3.org/2000/svg" viewBox="0 0 200 200"><defs><style>.cls-1{fill:#fff;}.cls-1,.cls-2,.cls-3{stroke:#000;stroke-miterlimit:10;stroke-width:3px;}.cls-2,.cls-3{fill:none;}.cls-3{stroke-linecap:round;}</style></defs><title>icons3</title><rect class="cls-1" x="51.6" y="62.428" width="96.8" height="50.6" rx="2" ry="2"/><rect class="cls-1" x="57.1" y="67.928" width="66" height="11" rx="2" ry="2"/><rect class="cls-1" x="128.6" y="69.028" width="14.3" height="8.8" rx="2" ry="2"/><circle class="cls-1" cx="132.725" cy="73.428" r="1.1"/><circle class="cls-1" cx="138.913" cy="73.428" r="1.1"/><line class="cls-2" x1="57.1" y1="73.428" x2="123.1" y2="73.428"/><line class="cls-2" x1="90.1" y1="67.928" x2="90.1" y2="78.928"/><line class="cls-2" x1="73.6" y1="78.928" x2="73.6" y2="67.928"/><line class="cls-2" x1="106.6" y1="78.928" x2="106.6" y2="67.928"/><line class="cls-3" x1="57.1" y1="85.116" x2="123.1" y2="85.116"/><line class="cls-3" x1="57.1" y1="89.516" x2="123.1" y2="89.516"/><line class="cls-3" x1="57.1" y1="93.916" x2="123.1" y2="93.916"/><line class="cls-3" x1="57.1" y1="98.317" x2="123.1" y2="98.317"/><line class="cls-3" x1="57.1" y1="102.717" x2="123.1" y2="102.717"/><line class="cls-3" x1="57.1" y1="107.117" x2="123.1" y2="107.117"/><path class="cls-1" d="M119.8,137.572a3.3,3.3,0,1,1,0-6.6h5.5v6.6Z"/><line class="cls-3" x1="125.3" y1="136.472" x2="130.112" y2="136.472"/><line class="cls-3" x1="125.3" y1="132.072" x2="130.113" y2="132.072"/><path class="cls-2" d="M116.5,134.272H59.644a5.088,5.088,0,1,1,0-10.175h78.65a5.088,5.088,0,0,0,5.087-5.087v-6.05"/></svg>