<svg id="Layer_2" data-name="Layer 2" xmlns="http://www.w3.org/2000/svg" viewBox="0 0 200 200"><defs><style>.cls-1{fill:#fff;}.cls-1,.cls-2,.cls-3,.cls-4,.cls-5,.cls-6{stroke:#000;stroke-miterlimit:10;stroke-width:3px;}.cls-2,.cls-3,.cls-4,.cls-5,.cls-6{fill:none;}.cls-3{stroke-dasharray:2 1;}.cls-4{fill-rule:evenodd;}.cls-5{stroke-linecap:round;}.cls-6{stroke-dasharray:1.99 0.995;}</style></defs><title>icons3</title><path class="cls-1" d="M119.257,51.122h7.686a1,1,0,0,1,1,1V67.169a0,0,0,0,1,0,0h-9.686a0,0,0,0,1,0,0V52.122A1,1,0,0,1,119.257,51.122Z"/><path class="cls-1" d="M73.057,51.122h7.686a1,1,0,0,1,1,1V67.169a0,0,0,0,1,0,0H72.057a0,0,0,0,1,0,0V52.122A1,1,0,0,1,73.057,51.122Z"/><path class="cls-1" d="M90.35,54.7h19.3a25,25,0,0,1,25,25v58.8a10,10,0,0,1-10,10H75.35a10,10,0,0,1-10-10V79.7A25,25,0,0,1,90.35,54.7Z"/><path class="cls-1" d="M95.85,76.835h8.3a20,20,0,0,1,20,20v36.4a9.4,9.4,0,0,1-9.4,9.4H85.25a9.4,9.4,0,0,1-9.4-9.4v-36.4a20,20,0,0,1,20-20Z"/><line class="cls-2" x1="83.5" y1="93.531" x2="84.5" y2="93.531"/><line class="cls-3" x1="85.5" y1="93.531" x2="115" y2="93.531"/><line class="cls-2" x1="115.5" y1="93.531" x2="116.5" y2="93.531"/><path class="cls-4" d="M108.8,54.7v-4.16a5.76,5.76,0,0,0-5.76-5.76H96.96a5.76,5.76,0,0,0-5.76,5.76V54.7"/><line class="cls-5" x1="113.2" y1="142.635" x2="113.2" y2="155.222"/><line class="cls-5" x1="86.8" y1="142.635" x2="86.8" y2="155.222"/><line class="cls-5" x1="65.35" y1="111.498" x2="75.825" y2="121.973"/><line class="cls-5" x1="134.625" y1="111.498" x2="124.15" y2="121.973"/><line class="cls-2" x1="130.094" y1="92.561" x2="130.094" y2="91.561"/><path class="cls-6" d="M130.094,90.566V84.209a24.2,24.2,0,0,0-24.2-24.2H94.106a24.2,24.2,0,0,0-24.2,24.2v6.855"/><line class="cls-2" x1="69.906" y1="91.561" x2="69.906" y2="92.561"/></svg>