<svg id="Layer_2" data-name="Layer 2" xmlns="http://www.w3.org/2000/svg" viewBox="0 0 200 200"><defs><style>.cls-1{fill:#fff;}.cls-1,.cls-2,.cls-3{stroke:#000;stroke-miterlimit:10;stroke-width:3px;}.cls-2,.cls-3{fill:none;}.cls-2{stroke-linecap:square;}</style></defs><title>icons3</title><path class="cls-1" d="M14.21,83.039H187.29a3,3,0,0,1,3,3v9.706a0,0,0,0,1,0,0H11.21a0,0,0,0,1,0,0V86.039A3,3,0,0,1,14.21,83.039Z"/><line class="cls-2" x1="5.75" y1="99.98" x2="195.75" y2="99.98"/><path class="cls-3" d="M140.606,102.981V80.359c0-5.418-4.889-9.81-10.919-9.81H27.862c-6.031,0-10.919,4.392-10.919,9.81v22.622"/><line class="cls-2" x1="195.75" y1="91.98" x2="195.75" y2="198.5"/><line class="cls-2" x1="5.75" y1="91.98" x2="5.75" y2="198.5"/><line class="cls-2" x1="4.25" y1="173.5" x2="7.25" y2="173.5"/><line class="cls-2" x1="4.25" y1="136.74" x2="7.25" y2="136.74"/></svg>