<svg id="Layer_2" data-name="Layer 2" xmlns="http://www.w3.org/2000/svg" viewBox="0 0 200 200"><defs><style>.cls-1{fill:#fff;}.cls-1,.cls-2{stroke:#000;stroke-miterlimit:10;stroke-width:3px;}.cls-2{fill:none;}</style></defs><title>icons3</title><path class="cls-1" d="M128.279,55.966v-8.25h-7.7v8.25a3.85,3.85,0,0,0,3.85,3.85h0a3.85,3.85,0,0,0,3.85-3.85v-8.25"/><rect class="cls-1" x="123.329" y="43.316" width="2.2" height="4.4"/><line class="cls-2" x1="124.429" y1="59.816" x2="124.429" y2="69.968"/><rect class="cls-1" x="121.13" y="69.968" width="6.6" height="22"/><path class="cls-2" d="M73.921,150.084v-62.8h0a6.314,6.314,0,1,1,12.627,0v35.234a6.314,6.314,0,1,0,12.627,0V87.282h0a6.314,6.314,0,1,1,12.627,0v35.234a6.314,6.314,0,1,0,12.627,0V91.968"/><rect class="cls-1" x="71.721" y="150.084" width="4.4" height="4.4"/><rect class="cls-1" x="71.721" y="154.484" width="4.4" height="2.2"/></svg>