<svg id="Layer_2" data-name="Layer 2" xmlns="http://www.w3.org/2000/svg" viewBox="0 0 200 200"><defs><style>.cls-1,.cls-2{fill:#fff;}.cls-1,.cls-2,.cls-3,.cls-4{stroke:#000;stroke-width:3px;}.cls-1,.cls-3,.cls-4{stroke-miterlimit:10;}.cls-2{stroke-linejoin:round;}.cls-3{fill:none;}.cls-4{fill:#e84b4b;}</style></defs><title>clothing-coat</title><path class="cls-1" d="M37.13,122.449H47.669a0,0,0,0,1,0,0V126.2a2,2,0,0,1-2,2H39.13a2,2,0,0,1-2-2v-3.755A0,0,0,0,1,37.13,122.449Z" transform="translate(97.368 4.982) rotate(43.24)"/><polygon class="cls-2" points="74.761 69.994 40.511 119.621 48.261 126.909 75.77 98.952 74.761 69.994"/><line class="cls-3" x1="54.492" y1="99.385" x2="65.242" y2="109.652"/><line class="cls-3" x1="47.508" y1="109.483" x2="56.805" y2="118.226"/><line class="cls-3" x1="62.169" y1="88.24" x2="74.707" y2="100.032"/><path class="cls-1" d="M154.331,122.449h6.539a2,2,0,0,1,2,2V128.2a0,0,0,0,1,0,0H152.331a0,0,0,0,1,0,0v-3.755A2,2,0,0,1,154.331,122.449Z" transform="translate(358.267 108.661) rotate(136.76)"/><polygon class="cls-2" points="125.239 69.994 159.489 119.621 151.739 126.909 124.23 98.952 125.239 69.994"/><line class="cls-3" x1="145.508" y1="99.385" x2="134.758" y2="109.652"/><line class="cls-3" x1="152.492" y1="109.483" x2="143.195" y2="118.226"/><line class="cls-3" x1="137.831" y1="88.24" x2="125.293" y2="100.032"/><polygon class="cls-1" points="125.261 69.994 110.834 65.959 90.088 65.959 74.761 69.994 76.761 135.959 123.261 135.959 125.261 69.994"/><line class="cls-3" x1="124.23" y1="103.282" x2="75.77" y2="103.282"/><line class="cls-3" x1="123.73" y1="119.621" x2="76.265" y2="119.621"/><line class="cls-3" x1="124.747" y1="86.944" x2="75.275" y2="86.944"/><path class="cls-1" d="M76.761,135.959h46.5a0,0,0,0,1,0,0v3.755a2,2,0,0,1-2,2h-42.5a2,2,0,0,1-2-2v-3.755A0,0,0,0,1,76.761,135.959Z"/><path class="cls-2" d="M90.088,65.959V60.288A2,2,0,0,1,92.9,58.461l7.56,3.365,7.56-3.365a2,2,0,0,1,2.813,1.827v5.671C100.381,76.413,90.088,65.959,90.088,65.959Z"/><line class="cls-4" x1="100.461" y1="61.826" x2="100.461" y2="141.714"/></svg>