<svg id="Layer_2" data-name="Layer 2" xmlns="http://www.w3.org/2000/svg" viewBox="0 0 200 200"><defs><style>.cls-1,.cls-2{fill:#fff;}.cls-1,.cls-2,.cls-3,.cls-4{stroke:#000;stroke-width:3px;}.cls-1,.cls-3,.cls-4{stroke-miterlimit:10;}.cls-2{stroke-linejoin:round;}.cls-3{fill:none;}.cls-4{fill:#e84b4b;}</style></defs><title>icons3</title><path class="cls-1" d="M30.843,124.694H42.435a0,0,0,0,1,0,0v4.33a2,2,0,0,1-2,2H32.843a2,2,0,0,1-2-2v-4.33a0,0,0,0,1,0,0Z" transform="translate(97.539 9.615) rotate(43.24)"/><polygon class="cls-2" points="72.237 66.994 34.562 121.583 43.087 129.6 73.347 98.847 72.237 66.994"/><line class="cls-3" x1="49.941" y1="99.323" x2="61.766" y2="110.617"/><line class="cls-3" x1="42.259" y1="110.431" x2="52.485" y2="120.049"/><line class="cls-3" x1="58.386" y1="87.063" x2="72.178" y2="100.035"/><path class="cls-1" d="M159.565,124.694h7.592a2,2,0,0,1,2,2v4.33a0,0,0,0,1,0,0H157.565a0,0,0,0,1,0,0v-4.33A2,2,0,0,1,159.565,124.694Z" transform="translate(369.958 109.093) rotate(136.76)"/><polygon class="cls-2" points="127.763 66.994 165.438 121.583 156.913 129.6 126.653 98.847 127.763 66.994"/><line class="cls-3" x1="150.059" y1="99.323" x2="138.234" y2="110.617"/><line class="cls-3" x1="157.741" y1="110.431" x2="147.515" y2="120.049"/><line class="cls-3" x1="141.614" y1="87.063" x2="127.822" y2="100.035"/><polygon class="cls-1" points="127.787 66.994 111.917 62.555 89.097 62.555 72.237 66.994 74.437 139.555 125.587 139.555 127.787 66.994"/><line class="cls-3" x1="126.653" y1="103.611" x2="73.347" y2="103.611"/><line class="cls-3" x1="126.103" y1="121.583" x2="73.892" y2="121.583"/><line class="cls-3" x1="127.222" y1="85.638" x2="72.802" y2="85.638"/><path class="cls-1" d="M74.437,139.555h51.15a0,0,0,0,1,0,0v4.33a2,2,0,0,1-2,2H76.437a2,2,0,0,1-2-2v-4.33a0,0,0,0,1,0,0Z"/><path class="cls-2" d="M89.1,62.555V56.317a2.2,2.2,0,0,1,3.094-2.01l8.316,3.7,8.316-3.7a2.2,2.2,0,0,1,3.094,2.01v6.238C100.419,74.054,89.1,62.555,89.1,62.555Z"/><line class="cls-4" x1="100.507" y1="58.009" x2="100.507" y2="145.886"/></svg>