<svg id="Layer_2" data-name="Layer 2" xmlns="http://www.w3.org/2000/svg" viewBox="0 0 200 200"><defs><style>.cls-1,.cls-3{fill:none;}.cls-1,.cls-2,.cls-3{stroke:#000;stroke-miterlimit:10;stroke-width:3px;}.cls-2{fill:#fff;}.cls-2,.cls-3{stroke-linecap:square;}</style></defs><title>icons3</title><line class="cls-1" x1="39.5" y1="114.576" x2="39.5" y2="178.375"/><line class="cls-1" x1="160.5" y1="114.576" x2="160.5" y2="178.375"/><rect class="cls-2" x="39.5" y="109.076" width="121" height="5.5"/><rect class="cls-2" x="39.5" y="30.425" width="121" height="70.95"/><rect class="cls-2" x="39.5" y="30.425" width="121" height="12.925"/><rect class="cls-2" x="39.5" y="58.475" width="121" height="50.6"/><path class="cls-2" d="M69.75,43.35h60.5a0,0,0,0,1,0,0v1.775a4,4,0,0,1-4,4H73.75a4,4,0,0,1-4-4V43.35A0,0,0,0,1,69.75,43.35Z"/><line class="cls-3" x1="77.45" y1="43.35" x2="77.45" y2="49.125"/><line class="cls-3" x1="122.55" y1="43.35" x2="122.55" y2="49.125"/><circle class="cls-2" cx="45" cy="63.976" r="0.055"/><circle class="cls-2" cx="155" cy="63.976" r="0.055"/><circle class="cls-2" cx="45" cy="103.575" r="0.055"/><circle class="cls-2" cx="155" cy="103.575" r="0.055"/><line class="cls-3" x1="39.5" y1="30.425" x2="39.5" y2="23.55"/><line class="cls-3" x1="160.5" y1="30.425" x2="160.5" y2="23.55"/><line class="cls-3" x1="51.417" y1="26.025" x2="77.45" y2="26.025"/><line class="cls-3" x1="54.717" y1="21.625" x2="80.75" y2="21.625"/><line class="cls-3" x1="124.2" y1="104.675" x2="141.433" y2="104.675"/></svg>