<svg id="Layer_2" data-name="Layer 2" xmlns="http://www.w3.org/2000/svg" viewBox="0 0 200 200"><defs><style>.cls-1{fill:#fff;}.cls-1,.cls-2{stroke:#000;stroke-miterlimit:10;stroke-width:3px;}.cls-2{fill:none;}</style></defs><title>icons3</title><path class="cls-1" d="M128.05,112.827v14.025a9.35,9.35,0,0,1-9.35,9.35H81.3a9.35,9.35,0,0,1-9.35-9.35V112.827"/><line class="cls-2" x1="67.275" y1="109.087" x2="132.725" y2="109.087"/><path class="cls-1" d="M120.036,86.891V96.908a6.679,6.679,0,0,1-6.679,6.679H86.643a6.679,6.679,0,0,1-6.679-6.679V86.891"/><line class="cls-2" x1="76.625" y1="83.119" x2="123.375" y2="83.119"/><path class="cls-1" d="M112.021,67.6v6.011a4.007,4.007,0,0,1-4.007,4.007H91.986a4.007,4.007,0,0,1-4.007-4.007V67.6"/><line class="cls-2" x1="84.875" y1="63.798" x2="115.125" y2="63.798"/></svg>