<svg id="Layer_2" data-name="Layer 2" xmlns="http://www.w3.org/2000/svg" viewBox="0 0 200 200"><defs><style>.cls-1{fill:#fff;stroke-linecap:square;}.cls-1,.cls-2,.cls-3{stroke:#000;stroke-miterlimit:10;stroke-width:3px;}.cls-2,.cls-3{fill:none;}.cls-2{stroke-linecap:round;}</style></defs><title>icons3</title><polyline class="cls-1" points="127.5 71.4 127.5 147.3 72.5 147.3 72.5 71.4"/><path class="cls-2" d="M112.65,80.2V61.5a8.8,8.8,0,0,0-8.8-8.8h-7.7a8.8,8.8,0,0,0-8.8,8.8V80.2"/><polyline class="cls-3" points="72.5 70.7 75.112 72.1 77.725 70.7 80.342 72.1 82.959 70.7 85.573 72.1 88.19 70.7 90.809 72.1 93.425 70.7 96.044 72.1 98.662 70.7 101.283 72.1 103.902 70.7 106.522 72.1 109.143 70.7 111.759 72.1 114.378 70.7 117 72.1 119.622 70.7 122.245 72.1 124.873 70.7 127.5 72.1"/></svg>