<svg id="Layer_2" data-name="Layer 2" xmlns="http://www.w3.org/2000/svg" viewBox="0 0 200 200"><defs><style>.cls-1{fill:#fff;}.cls-1,.cls-2,.cls-3{stroke:#000;stroke-miterlimit:10;stroke-width:3px;}.cls-2,.cls-3{fill:none;}.cls-3{stroke-linecap:round;}</style></defs><title>icons</title><rect class="cls-1" x="73.688" y="75.292" width="28" height="38"/><path class="cls-1" d="M84.188,113.292h7a0,0,0,0,1,0,0v7.5a3.5,3.5,0,0,1-3.5,3.5h0a3.5,3.5,0,0,1-3.5-3.5v-7.5A0,0,0,0,1,84.188,113.292Z"/><path class="cls-2" d="M122.812,66.02v65.4a17.562,17.562,0,1,1-35.124,0v-7.125"/><path class="cls-1" d="M119.312,55.02h7a0,0,0,0,1,0,0v7.5a3.5,3.5,0,0,1-3.5,3.5h0a3.5,3.5,0,0,1-3.5-3.5v-7.5A0,0,0,0,1,119.312,55.02Z"/><rect class="cls-1" x="121.812" y="51.02" width="2" height="4"/><line class="cls-3" x1="93.313" y1="107.104" x2="95.938" y2="107.104"/></svg>