<svg id="Layer_2" data-name="Layer 2" xmlns="http://www.w3.org/2000/svg" viewBox="0 0 200 200"><defs><style>.cls-1{fill:#fff;}.cls-1,.cls-2,.cls-3{stroke:#000;stroke-miterlimit:10;stroke-width:3px;}.cls-2,.cls-3{fill:none;}.cls-3{stroke-linecap:round;}</style></defs><title>icons3</title><rect class="cls-1" x="71.056" y="72.821" width="30.8" height="41.8"/><path class="cls-1" d="M82.606,114.621h7.7a0,0,0,0,1,0,0v8.6a3.5,3.5,0,0,1-3.5,3.5h-.7a3.5,3.5,0,0,1-3.5-3.5v-8.6A0,0,0,0,1,82.606,114.621Z"/><path class="cls-2" d="M125.094,62.622v71.937a19.319,19.319,0,1,1-38.638,0v-7.838"/><path class="cls-1" d="M121.244,50.522h7.7a0,0,0,0,1,0,0v8.6a3.5,3.5,0,0,1-3.5,3.5h-.7a3.5,3.5,0,0,1-3.5-3.5v-8.6A0,0,0,0,1,121.244,50.522Z"/><rect class="cls-1" x="123.994" y="46.122" width="2.2" height="4.4"/><line class="cls-3" x1="92.644" y1="107.814" x2="95.531" y2="107.814"/></svg>