<svg id="Layer_2" data-name="Layer 2" xmlns="http://www.w3.org/2000/svg" viewBox="0 0 200 200"><defs><style>.cls-1{fill:#fff;}.cls-1,.cls-2,.cls-3{stroke:#000;stroke-miterlimit:10;stroke-width:3px;}.cls-2,.cls-3{fill:none;}.cls-2{stroke-dasharray:2 1;}</style></defs><title>icons3</title><path class="cls-1" d="M141.8,51.552H58.2a6.6,6.6,0,0,0-6.6,6.6v70.224a26.4,26.4,0,0,0,26.4,26.4h44a26.4,26.4,0,0,0,26.4-26.4V58.152A6.6,6.6,0,0,0,141.8,51.552Zm.366,76.777a19.8,19.8,0,0,1-19.8,19.8H77.634a19.8,19.8,0,0,1-19.8-19.8V64.8a6.6,6.6,0,0,1,6.6-6.6h71.132a6.6,6.6,0,0,1,6.6,6.6Z"/><rect class="cls-1" x="54.9" y="43.048" width="90.2" height="58.3" rx="6" ry="6"/><rect class="cls-1" x="54.9" y="43.048" width="90.2" height="35.2" rx="6" ry="6"/><rect class="cls-1" x="96.7" y="55.698" width="6.6" height="37.401"/><line class="cls-2" x1="135.2" y1="78.248" x2="135.2" y2="93.099"/><path class="cls-1" d="M104.95,73.848a1.1,1.1,0,0,0-1.1-1.1h-7.7a1.1,1.1,0,0,0-1.1,1.1v2.02a3.124,3.124,0,0,1,0,4.759v2.021a1.1,1.1,0,0,0,1.1,1.1h7.7a1.1,1.1,0,0,0,1.1-1.1V80.627a3.124,3.124,0,0,1,0-4.759Z"/><rect class="cls-1" x="80.75" y="145.952" width="38.5" height="11" rx="2" ry="2"/><path class="cls-3" d="M119.25,147.053c0,4.873-8.619,8.823-19.25,8.823s-19.25-3.95-19.25-8.823"/></svg>