<svg id="Layer_2" data-name="Layer 2" xmlns="http://www.w3.org/2000/svg" viewBox="0 0 200 200"><defs><style>.cls-1,.cls-2{fill:#fff;stroke:#000;stroke-width:3px;}.cls-1{stroke-miterlimit:10;}.cls-2{stroke-linejoin:bevel;}</style></defs><title>icons3</title><path class="cls-1" d="M65.767,70.85h68.467a5,5,0,0,1,5,5v45.6a0,0,0,0,1,0,0H60.767a0,0,0,0,1,0,0V75.85A5,5,0,0,1,65.767,70.85Z"/><path class="cls-1" d="M60.267,121.45h79.466a5,5,0,0,1,5,5v2.7a0,0,0,0,1,0,0H55.267a0,0,0,0,1,0,0v-2.7A5,5,0,0,1,60.267,121.45Z" transform="translate(200 250.6) rotate(180)"/><path class="cls-1" d="M96.3,121.45h7.4a.7.7,0,0,1,.7.7v1.5a0,0,0,0,1,0,0H95.6a0,0,0,0,1,0,0v-1.5A.7.7,0,0,1,96.3,121.45Z" transform="translate(200 245.1) rotate(180)"/><rect class="cls-2" x="66.817" y="77.45" width="67.1" height="37.4"/><circle class="cls-1" cx="100" cy="74.013" r="0.137"/></svg>