<svg id="Layer_2" data-name="Layer 2" xmlns="http://www.w3.org/2000/svg" viewBox="0 0 200 200"><defs><style>.cls-1{fill:#fff;}.cls-1,.cls-10,.cls-11,.cls-12,.cls-13,.cls-14,.cls-2,.cls-3,.cls-4,.cls-5,.cls-6,.cls-7,.cls-8,.cls-9{stroke:#000;stroke-linecap:round;stroke-miterlimit:10;}.cls-1,.cls-2{stroke-width:3px;}.cls-10,.cls-11,.cls-12,.cls-13,.cls-14,.cls-2,.cls-3,.cls-4,.cls-5,.cls-6,.cls-7,.cls-8,.cls-9{fill:none;}.cls-10,.cls-11,.cls-12,.cls-13,.cls-14,.cls-3,.cls-4,.cls-5,.cls-6,.cls-7,.cls-8,.cls-9{stroke-width:2px;}.cls-4{stroke-dasharray:2.116 4.232;}.cls-5{stroke-dasharray:1.911 3.822;}.cls-6{stroke-dasharray:1.931 3.862;}.cls-7{stroke-dasharray:2.011 4.021;}.cls-8{stroke-dasharray:1.954 3.908;}.cls-9{stroke-dasharray:1.971 3.942;}.cls-10{stroke-dasharray:2.085 4.169;}.cls-11{stroke-dasharray:1.985 3.971;}.cls-12{stroke-dasharray:1.882 3.763;}.cls-13{stroke-dasharray:1.97 3.939;}.cls-14{stroke-dasharray:2.025 4.051;}</style></defs><title>icons3</title><rect class="cls-1" x="71.95" y="55.92" width="56.1" height="90.36" rx="20" ry="20"/><path class="cls-2" d="M107.7,53.72v5.274a7.7,7.7,0,1,1-15.4,0V53.72"/><line class="cls-3" x1="71.95" y1="123.918" x2="72.657" y2="124.625"/><line class="cls-4" x1="75.65" y1="127.618" x2="92.109" y2="144.077"/><line class="cls-3" x1="93.605" y1="145.573" x2="94.312" y2="146.28"/><line class="cls-3" x1="71.95" y1="112.917" x2="72.657" y2="113.624"/><line class="cls-5" x1="75.36" y1="116.327" x2="102.386" y2="143.353"/><line class="cls-3" x1="103.737" y1="144.704" x2="104.444" y2="145.411"/><line class="cls-3" x1="71.95" y1="90.916" x2="72.657" y2="91.623"/><line class="cls-6" x1="75.388" y1="94.354" x2="119.085" y2="138.051"/><line class="cls-3" x1="120.451" y1="139.417" x2="121.158" y2="140.124"/><line class="cls-3" x1="71.95" y1="101.917" x2="72.657" y2="102.624"/><line class="cls-7" x1="75.5" y1="105.467" x2="112.464" y2="142.431"/><line class="cls-3" x1="113.886" y1="143.852" x2="114.593" y2="144.559"/><line class="cls-3" x1="71.95" y1="79.915" x2="72.657" y2="80.622"/><line class="cls-8" x1="75.421" y1="83.386" x2="123.782" y2="131.748"/><line class="cls-3" x1="125.164" y1="133.129" x2="125.871" y2="133.836"/><line class="cls-3" x1="73.314" y1="70.279" x2="74.022" y2="70.986"/><line class="cls-9" x1="76.809" y1="73.773" x2="125.582" y2="122.547"/><line class="cls-3" x1="126.976" y1="123.94" x2="127.683" y2="124.647"/><line class="cls-3" x1="83.89" y1="58.853" x2="84.597" y2="59.56"/><line class="cls-10" x1="87.545" y1="62.508" x2="125.869" y2="100.832"/><line class="cls-3" x1="127.343" y1="102.306" x2="128.05" y2="103.013"/><line class="cls-3" x1="77.501" y1="63.464" x2="78.208" y2="64.172"/><line class="cls-11" x1="81.016" y1="66.979" x2="125.939" y2="111.903"/><line class="cls-3" x1="127.343" y1="113.307" x2="128.05" y2="114.014"/><line class="cls-3" x1="92.043" y1="56.006" x2="92.75" y2="56.713"/><line class="cls-12" x1="95.411" y1="59.374" x2="126.012" y2="89.975"/><line class="cls-3" x1="127.343" y1="91.305" x2="128.05" y2="92.012"/><line class="cls-3" x1="102.958" y1="55.92" x2="103.665" y2="56.627"/><line class="cls-13" x1="106.451" y1="59.413" x2="125.95" y2="78.912"/><line class="cls-3" x1="127.343" y1="80.305" x2="128.05" y2="81.012"/><line class="cls-3" x1="116.715" y1="58.676" x2="117.422" y2="59.383"/><line class="cls-14" x1="120.287" y1="62.248" x2="123.151" y2="65.112"/><line class="cls-3" x1="124.583" y1="66.544" x2="125.29" y2="67.251"/><line class="cls-3" x1="71.95" y1="78.282" x2="72.657" y2="77.575"/><line class="cls-4" x1="75.65" y1="74.583" x2="92.109" y2="58.123"/><line class="cls-3" x1="93.605" y1="56.627" x2="94.312" y2="55.92"/><line class="cls-3" x1="71.95" y1="89.283" x2="72.657" y2="88.576"/><line class="cls-5" x1="75.36" y1="85.873" x2="102.386" y2="58.847"/><line class="cls-3" x1="103.737" y1="57.496" x2="104.444" y2="56.789"/><line class="cls-3" x1="71.95" y1="111.284" x2="72.657" y2="110.577"/><line class="cls-6" x1="75.388" y1="107.846" x2="119.085" y2="64.149"/><line class="cls-3" x1="120.451" y1="62.783" x2="121.158" y2="62.076"/><line class="cls-3" x1="71.95" y1="100.284" x2="72.657" y2="99.576"/><line class="cls-7" x1="75.5" y1="96.733" x2="112.464" y2="59.77"/><line class="cls-3" x1="113.886" y1="58.348" x2="114.593" y2="57.641"/><line class="cls-3" x1="71.95" y1="122.285" x2="72.657" y2="121.578"/><line class="cls-8" x1="75.421" y1="118.814" x2="123.782" y2="70.453"/><line class="cls-3" x1="125.164" y1="69.071" x2="125.871" y2="68.364"/><line class="cls-3" x1="73.314" y1="131.921" x2="74.022" y2="131.214"/><line class="cls-9" x1="76.809" y1="128.427" x2="125.582" y2="79.653"/><line class="cls-3" x1="126.976" y1="78.26" x2="127.683" y2="77.553"/><line class="cls-3" x1="83.89" y1="143.347" x2="84.597" y2="142.64"/><line class="cls-10" x1="87.545" y1="139.692" x2="125.869" y2="101.368"/><line class="cls-3" x1="127.343" y1="99.894" x2="128.05" y2="99.187"/><line class="cls-3" x1="77.501" y1="138.736" x2="78.208" y2="138.029"/><line class="cls-11" x1="81.016" y1="135.221" x2="125.939" y2="90.297"/><line class="cls-3" x1="127.343" y1="88.893" x2="128.05" y2="88.186"/><line class="cls-3" x1="92.043" y1="146.195" x2="92.75" y2="145.487"/><line class="cls-12" x1="95.411" y1="142.826" x2="126.012" y2="112.225"/><line class="cls-3" x1="127.343" y1="110.895" x2="128.05" y2="110.188"/><line class="cls-3" x1="102.958" y1="146.28" x2="103.665" y2="145.573"/><line class="cls-13" x1="106.451" y1="142.787" x2="125.95" y2="123.288"/><line class="cls-3" x1="127.343" y1="121.896" x2="128.05" y2="121.188"/><line class="cls-3" x1="116.715" y1="143.524" x2="117.422" y2="142.817"/><line class="cls-14" x1="120.287" y1="139.952" x2="123.151" y2="137.088"/><line class="cls-3" x1="124.583" y1="135.656" x2="125.29" y2="134.949"/><line class="cls-2" x1="128.05" y1="77.92" x2="128.05" y2="57.02"/><line class="cls-2" x1="71.95" y1="77.92" x2="71.95" y2="57.02"/><path class="cls-1" d="M84.976,75.157H77.725a1.1,1.1,0,0,1-1.1-1.1l-.771-6.722a22.012,22.012,0,0,1,.093-5.722l.678-4.593a3.3,3.3,0,0,1,3.3-3.3h2.851a3.3,3.3,0,0,1,3.3,3.3L85.4,61.613a22.012,22.012,0,0,0-.093,5.722l.771,6.722A1.1,1.1,0,0,1,84.976,75.157Z"/><path class="cls-1" d="M77.725,75.157h7.251a0,0,0,0,1,0,0v3.959a1,1,0,0,1-1,1H78.725a1,1,0,0,1-1-1V75.157A0,0,0,0,1,77.725,75.157Z"/></svg>