<svg id="Layer_2" data-name="Layer 2" xmlns="http://www.w3.org/2000/svg" viewBox="0 0 200 200"><defs><style>.cls-1{fill:#fff;}.cls-1,.cls-2,.cls-3{stroke:#000;stroke-width:3px;}.cls-1,.cls-3{stroke-miterlimit:10;}.cls-2,.cls-3{fill:none;stroke-linecap:round;}.cls-2{stroke-linejoin:round;}</style></defs><title>icons3</title><path class="cls-1" d="M127.5,86.837c0-14.1-7.871-25.709-21.547-27.3a8.226,8.226,0,0,1-11.906,0c-13.676,1.59-21.547,13.2-21.547,27.3l-2.293,39.9L67,136.337a4.125,4.125,0,0,0,4.125,4.125L100,137.712l28.875,2.75A4.125,4.125,0,0,0,133,136.337l-3.208-9.625Z"/><path class="cls-2" d="M108.25,113.094c0-52.627-8.8-50.982-8.8-50.982s19.8-4.934,19.8,41.114"/><line class="cls-3" x1="108.25" y1="117.197" x2="108.25" y2="117.335"/><line class="cls-3" x1="119.25" y1="107.33" x2="119.25" y2="107.467"/></svg>