<svg id="Layer_2" data-name="Layer 2" xmlns="http://www.w3.org/2000/svg" viewBox="0 0 200 200"><defs><style>.cls-1{fill:#fff;}.cls-1,.cls-10,.cls-11,.cls-12,.cls-13,.cls-14,.cls-2,.cls-3,.cls-4,.cls-5,.cls-6,.cls-7,.cls-8,.cls-9{stroke:#000;stroke-linecap:round;stroke-miterlimit:10;}.cls-1,.cls-2{stroke-width:3px;}.cls-10,.cls-11,.cls-12,.cls-13,.cls-14,.cls-2,.cls-3,.cls-4,.cls-5,.cls-6,.cls-7,.cls-8,.cls-9{fill:none;}.cls-10,.cls-11,.cls-12,.cls-13,.cls-14,.cls-3,.cls-4,.cls-5,.cls-6,.cls-7,.cls-8,.cls-9{stroke-width:2px;}.cls-4{stroke-dasharray:1.911 3.821;}.cls-5{stroke-dasharray:1.989 3.978;}.cls-6{stroke-dasharray:1.915 3.829;}.cls-7{stroke-dasharray:2.032 4.063;}.cls-8{stroke-dasharray:1.924 3.847;}.cls-9{stroke-dasharray:1.94 3.88;}.cls-10{stroke-dasharray:2.107 4.213;}.cls-11{stroke-dasharray:1.968 3.937;}.cls-12{stroke-dasharray:1.926 3.851;}.cls-13{stroke-dasharray:2.161 4.323;}.cls-14{stroke-dasharray:1.805 3.61;}</style></defs><title>laundry-basket</title><rect class="cls-1" x="74.5" y="115.854" width="51" height="82.146" rx="20" ry="20"/><path class="cls-2" d="M107,113.854v4.8a7,7,0,1,1-14,0v-4.8"/><line class="cls-3" x1="74.5" y1="177.671" x2="75.207" y2="178.378"/><line class="cls-4" x1="77.909" y1="181.08" x2="92.771" y2="195.942"/><line class="cls-3" x1="94.122" y1="197.293" x2="94.829" y2="198"/><line class="cls-3" x1="74.5" y1="167.67" x2="75.207" y2="168.377"/><line class="cls-5" x1="78.02" y1="171.19" x2="101.927" y2="195.097"/><line class="cls-3" x1="103.333" y1="196.503" x2="104.04" y2="197.21"/><line class="cls-3" x1="74.5" y1="147.669" x2="75.207" y2="148.376"/><line class="cls-6" x1="77.915" y1="151.083" x2="117.174" y2="190.342"/><line class="cls-3" x1="118.527" y1="191.696" x2="119.234" y2="192.403"/><line class="cls-3" x1="74.5" y1="157.669" x2="75.207" y2="158.377"/><line class="cls-7" x1="78.08" y1="161.25" x2="111.123" y2="194.292"/><line class="cls-3" x1="112.559" y1="195.729" x2="113.266" y2="196.436"/><line class="cls-3" x1="74.5" y1="137.668" x2="75.207" y2="138.375"/><line class="cls-8" x1="77.927" y1="141.096" x2="121.452" y2="184.62"/><line class="cls-3" x1="122.812" y1="185.98" x2="123.519" y2="186.687"/><line class="cls-3" x1="75.74" y1="128.908" x2="76.448" y2="129.615"/><line class="cls-9" x1="79.191" y1="132.359" x2="123.087" y2="176.255"/><line class="cls-3" x1="124.459" y1="177.627" x2="125.166" y2="178.334"/><line class="cls-3" x1="85.354" y1="118.521" x2="86.061" y2="119.228"/><line class="cls-10" x1="89.041" y1="122.207" x2="123.303" y2="156.469"/><line class="cls-3" x1="124.793" y1="157.959" x2="125.5" y2="158.666"/><line class="cls-3" x1="79.546" y1="122.713" x2="80.253" y2="123.42"/><line class="cls-11" x1="83.037" y1="126.204" x2="123.401" y2="166.568"/><line class="cls-3" x1="124.793" y1="167.96" x2="125.5" y2="168.667"/><line class="cls-3" x1="92.767" y1="115.932" x2="93.474" y2="116.639"/><line class="cls-12" x1="96.197" y1="119.363" x2="123.431" y2="146.597"/><line class="cls-3" x1="124.793" y1="147.959" x2="125.5" y2="148.666"/><line class="cls-3" x1="102.689" y1="115.854" x2="103.396" y2="116.561"/><line class="cls-13" x1="106.453" y1="119.618" x2="123.265" y2="136.43"/><line class="cls-3" x1="124.793" y1="137.958" x2="125.5" y2="138.665"/><line class="cls-3" x1="115.196" y1="118.36" x2="115.903" y2="119.067"/><line class="cls-14" x1="118.455" y1="121.62" x2="121.008" y2="124.172"/><line class="cls-3" x1="122.284" y1="125.448" x2="122.991" y2="126.155"/><line class="cls-3" x1="74.5" y1="136.184" x2="75.207" y2="135.477"/><line class="cls-4" x1="77.909" y1="132.774" x2="92.771" y2="117.912"/><line class="cls-3" x1="94.122" y1="116.561" x2="94.829" y2="115.854"/><line class="cls-3" x1="74.5" y1="146.184" x2="75.207" y2="145.477"/><line class="cls-5" x1="78.02" y1="142.665" x2="101.927" y2="118.758"/><line class="cls-3" x1="103.333" y1="117.351" x2="104.04" y2="116.644"/><line class="cls-3" x1="74.5" y1="166.186" x2="75.207" y2="165.478"/><line class="cls-6" x1="77.915" y1="162.771" x2="117.174" y2="123.512"/><line class="cls-3" x1="118.527" y1="122.158" x2="119.234" y2="121.451"/><line class="cls-3" x1="74.5" y1="156.185" x2="75.207" y2="155.478"/><line class="cls-7" x1="78.08" y1="152.605" x2="111.123" y2="119.562"/><line class="cls-3" x1="112.559" y1="118.126" x2="113.266" y2="117.419"/><line class="cls-3" x1="74.5" y1="176.186" x2="75.207" y2="175.479"/><line class="cls-8" x1="77.927" y1="172.759" x2="121.452" y2="129.234"/><line class="cls-3" x1="122.812" y1="127.874" x2="123.519" y2="127.167"/><line class="cls-3" x1="75.74" y1="184.946" x2="76.448" y2="184.239"/><line class="cls-9" x1="79.191" y1="181.496" x2="123.087" y2="137.599"/><line class="cls-3" x1="124.459" y1="136.228" x2="125.166" y2="135.521"/><line class="cls-3" x1="85.354" y1="195.334" x2="86.061" y2="194.627"/><line class="cls-10" x1="89.041" y1="191.647" x2="123.303" y2="157.385"/><line class="cls-3" x1="124.793" y1="155.895" x2="125.5" y2="155.188"/><line class="cls-3" x1="79.546" y1="191.141" x2="80.253" y2="190.434"/><line class="cls-11" x1="83.037" y1="187.651" x2="123.401" y2="147.286"/><line class="cls-3" x1="124.793" y1="145.895" x2="125.5" y2="145.187"/><line class="cls-3" x1="92.767" y1="197.922" x2="93.474" y2="197.215"/><line class="cls-12" x1="96.197" y1="194.492" x2="123.431" y2="167.257"/><line class="cls-3" x1="124.793" y1="165.896" x2="125.5" y2="165.189"/><line class="cls-3" x1="102.689" y1="198" x2="103.396" y2="197.293"/><line class="cls-13" x1="106.453" y1="194.236" x2="123.265" y2="177.425"/><line class="cls-3" x1="124.793" y1="175.896" x2="125.5" y2="175.189"/><line class="cls-3" x1="115.196" y1="195.494" x2="115.903" y2="194.787"/><line class="cls-14" x1="118.455" y1="192.235" x2="121.008" y2="189.682"/><line class="cls-3" x1="122.284" y1="188.406" x2="122.991" y2="187.699"/><line class="cls-2" x1="125.5" y1="135.854" x2="125.5" y2="116.854"/><line class="cls-2" x1="74.5" y1="135.854" x2="74.5" y2="116.854"/><path class="cls-1" d="M86.342,133.342H79.75a1,1,0,0,1-1-1l-.7-6.111a19.992,19.992,0,0,1,.084-5.2l.617-4.176a3,3,0,0,1,3-3h2.592a3,3,0,0,1,3,3l-.617,4.176a20.036,20.036,0,0,0-.084,5.2l.7,6.111A1,1,0,0,1,86.342,133.342Z"/><path class="cls-1" d="M79.75,133.342h6.592a0,0,0,0,1,0,0v3.508a1,1,0,0,1-1,1H80.75a1,1,0,0,1-1-1v-3.508A0,0,0,0,1,79.75,133.342Z"/></svg>