<svg id="Layer_2" data-name="Layer 2" xmlns="http://www.w3.org/2000/svg" viewBox="0 0 200 200"><defs><style>.cls-1{fill:#fff;}.cls-1,.cls-2,.cls-3{stroke:#000;stroke-miterlimit:10;stroke-width:3px;}.cls-2,.cls-3{fill:none;}.cls-3{stroke-linecap:round;}</style></defs><title>icons3</title><path class="cls-1" d="M48.369,7.669h114.4a0,0,0,0,1,0,0v6a5,5,0,0,1-5,5H53.369a5,5,0,0,1-5-5v-6A0,0,0,0,1,48.369,7.669Z"/><line class="cls-2" x1="59.369" y1="7.669" x2="59.369" y2="18.669"/><line class="cls-2" x1="151.769" y1="7.669" x2="151.769" y2="18.669"/><line class="cls-3" x1="105.55" y1="30.516" x2="105.55" y2="39.316"/><line class="cls-3" x1="89.05" y1="30.516" x2="83.877" y2="38.785"/><line class="cls-3" x1="138.587" y1="30.516" x2="146.86" y2="38.661"/><line class="cls-3" x1="122.05" y1="30.516" x2="127.223" y2="38.785"/><line class="cls-3" x1="72.55" y1="30.516" x2="64.278" y2="38.661"/><path class="cls-1" d="M62.669,185.731a3.3,3.3,0,1,0,0,6.6h5.5v-6.6Z"/><line class="cls-3" x1="68.169" y1="186.831" x2="72.981" y2="186.831"/><line class="cls-3" x1="68.169" y1="191.231" x2="72.981" y2="191.231"/><path class="cls-2" d="M59.369,189.031H42.319a5.088,5.088,0,0,1-5.088-5.087V18.256a5.088,5.088,0,0,1,5.088-5.087h6.05"/></svg>