<svg id="Layer_2" data-name="Layer 2" xmlns="http://www.w3.org/2000/svg" viewBox="0 0 200 200"><defs><style>.cls-1{fill:#fff;}.cls-1,.cls-2{stroke:#000;stroke-miterlimit:10;stroke-width:3px;}.cls-2{fill:none;}</style></defs><title>icons3</title><path class="cls-1" d="M140.59,120.181H108.423a9.9,9.9,0,0,0-6.185,2.17L100,124.142l-2.238-1.791a9.9,9.9,0,0,0-6.185-2.17H59.41V68.7H91.577a9.9,9.9,0,0,1,6.185,2.17L100,72.662l2.238-1.791a9.9,9.9,0,0,1,6.185-2.17H140.59Z"/><line class="cls-2" x1="104.95" y1="76.869" x2="135.145" y2="76.869"/><line class="cls-2" x1="104.95" y1="83.056" x2="135.145" y2="83.056"/><line class="cls-2" x1="104.95" y1="89.244" x2="135.145" y2="89.244"/><line class="cls-2" x1="104.95" y1="95.431" x2="118.314" y2="95.431"/><polygon points="89.847 103.687 85.571 105.631 62.236 128.965 64.569 131.299 87.904 107.964 89.847 103.687"/></svg>