<svg id="Layer_2" data-name="Layer 2" xmlns="http://www.w3.org/2000/svg" viewBox="0 0 200 200"><defs><style>.cls-1{fill:#fff;stroke:#000;stroke-miterlimit:10;stroke-width:3px;}</style></defs><title>icons3</title><rect class="cls-1" x="54.669" y="71.1" width="77" height="38.5"/><rect class="cls-1" x="59.735" y="101.625" width="66.868" height="2.2"/><circle class="cls-1" cx="62.919" cy="93.346" r="3.238"/><rect class="cls-1" x="59.681" y="76.967" width="6.475" height="8.028" rx="1" ry="1"/><circle class="cls-1" cx="75.019" cy="93.346" r="3.238"/><rect class="cls-1" x="71.781" y="76.967" width="6.475" height="8.028" rx="1" ry="1"/><circle class="cls-1" cx="87.119" cy="93.346" r="3.238"/><rect class="cls-1" x="83.881" y="76.967" width="6.475" height="8.028" rx="1" ry="1"/><circle class="cls-1" cx="99.219" cy="93.346" r="3.238"/><rect class="cls-1" x="95.981" y="76.967" width="6.475" height="8.028" rx="1" ry="1"/><circle class="cls-1" cx="111.319" cy="93.346" r="3.238"/><rect class="cls-1" x="108.081" y="76.967" width="6.475" height="8.028" rx="1" ry="1"/><circle class="cls-1" cx="123.419" cy="93.346" r="3.238"/><rect class="cls-1" x="120.181" y="76.967" width="6.475" height="8.028" rx="1" ry="1"/><polygon points="139.112 99.551 111.319 126.566 113.652 128.9 140.668 101.107 139.112 99.551"/><path d="M143,99.479c-.624.623-2.413,1.4-3.036.777s.154-2.412.778-3.035a31.851,31.851,0,0,1,4.591-2.334A31.987,31.987,0,0,1,143,99.479Z"/></svg>