<svg id="Layer_2" data-name="Layer 2" xmlns="http://www.w3.org/2000/svg" viewBox="0 0 200 200"><defs><style>.cls-1{fill:#fff;}.cls-1,.cls-2,.cls-3,.cls-4{stroke:#000;stroke-miterlimit:10;stroke-width:3px;}.cls-2,.cls-3,.cls-4{fill:none;}.cls-3{stroke-dasharray:2.022 1.011;}.cls-4{stroke-linecap:round;}</style></defs><title>icons3</title><polygon points="110.956 75.859 107.007 77.654 85.458 99.202 87.613 101.357 109.161 79.808 110.956 75.859"/><polygon points="129.745 76.267 125.466 76.978 99.075 92.215 100.599 94.854 126.99 79.617 129.745 76.267"/><path class="cls-1" d="M124.756,124.141H69.626a8.127,8.127,0,0,1-8.124-8.324l.814-28.354h69.751l.813,28.354A8.126,8.126,0,0,1,124.756,124.141Z"/><line class="cls-2" x1="62.316" y1="90.51" x2="63.316" y2="90.51"/><line class="cls-3" x1="64.327" y1="90.51" x2="130.561" y2="90.51"/><line class="cls-2" x1="131.067" y1="90.51" x2="132.067" y2="90.51"/><line class="cls-4" x1="132.067" y1="87.463" x2="138.5" y2="93.329"/></svg>