<svg id="Layer_2" data-name="Layer 2" xmlns="http://www.w3.org/2000/svg" viewBox="0 0 200 200"><defs><style>.cls-1{fill:#fff;}.cls-1,.cls-2,.cls-3,.cls-4{stroke:#000;stroke-miterlimit:10;stroke-width:3px;}.cls-2,.cls-3,.cls-4{fill:none;}.cls-3{stroke-dasharray:2.013 1.007;}.cls-4{stroke-linecap:round;}</style></defs><title>icons</title><polygon points="109.96 78.054 106.37 79.685 86.78 99.274 88.739 101.233 108.328 81.644 109.96 78.054"/><polygon points="127.041 78.424 123.151 79.071 99.159 92.923 100.544 95.322 124.536 81.47 127.041 78.424"/><path class="cls-1" d="M122.506,121.946H72.388A7.388,7.388,0,0,1,65,114.379l.74-25.777h63.41l.739,25.777A7.387,7.387,0,0,1,122.506,121.946Z"/><line class="cls-2" x1="65.742" y1="91.373" x2="66.742" y2="91.373"/><line class="cls-3" x1="67.748" y1="91.373" x2="127.648" y2="91.373"/><line class="cls-2" x1="128.152" y1="91.373" x2="129.152" y2="91.373"/><line class="cls-4" x1="129.152" y1="88.602" x2="135" y2="93.935"/></svg>