<svg id="Layer_2" data-name="Layer 2" xmlns="http://www.w3.org/2000/svg" viewBox="0 0 200 200"><defs><style>.cls-1{fill:#fff;}.cls-1,.cls-2{stroke:#000;stroke-miterlimit:10;stroke-width:3px;}.cls-2{fill:none;stroke-linecap:round;}</style></defs><title>icons3</title><path class="cls-1" d="M127.592,157.337l-.092-33.275c0-14.1-20.9-26.675-21.547-27.3l6.5-15.049a1.1,1.1,0,0,0-1.27-1.469l-10.94,2.236a1.116,1.116,0,0,1-.488,0l-10.94-2.236a1.1,1.1,0,0,0-1.27,1.469l6.5,15.049c-.647.623-21.547,13.2-21.547,27.3l-.093,33.3L67,173.562a4.125,4.125,0,0,0,4.125,4.125L100,174.937l28.875,2.75A4.125,4.125,0,0,0,133,173.562Z"/><path class="cls-1" d="M94.047,96.764l4.046,1.5a5.5,5.5,0,0,0,3.814,0l4.046-1.5"/><path class="cls-2" d="M87,22c6,10-1,20-3,30a19.3,19.3,0,0,0,3,10"/><path class="cls-2" d="M100,22a20.158,20.158,0,0,1,3,11c-2,10-10,19-3,29"/><path class="cls-2" d="M113,22a20.158,20.158,0,0,1,3,11c-2,10-9,19-3,29"/></svg>