<svg id="Layer_2" data-name="Layer 2" xmlns="http://www.w3.org/2000/svg" viewBox="0 0 200 200"><defs><style>.cls-1{fill:#fff;}.cls-1,.cls-2{stroke:#000;stroke-linecap:round;stroke-miterlimit:10;stroke-width:3px;}.cls-2{fill:none;}</style></defs><title>icons3</title><path class="cls-1" d="M69.75,67h60.5a0,0,0,0,1,0,0v69a8,8,0,0,1-8,8H77.75a8,8,0,0,1-8-8V67A0,0,0,0,1,69.75,67Z"/><line class="cls-2" x1="62.6" y1="67" x2="137.4" y2="67"/><line class="cls-2" x1="100" y1="81.3" x2="100" y2="135.2"/><line class="cls-2" x1="114.3" y1="81.3" x2="114.3" y2="135.2"/><line class="cls-2" x1="85.7" y1="81.3" x2="85.7" y2="135.2"/><path class="cls-2" d="M114.3,67V61.5a5.5,5.5,0,0,0-5.5-5.5H91.2a5.5,5.5,0,0,0-5.5,5.5V67"/></svg>