<svg id="Layer_2" data-name="Layer 2" xmlns="http://www.w3.org/2000/svg" viewBox="0 0 200 200"><defs><style>.cls-1,.cls-2{fill:#fff;}.cls-1,.cls-2,.cls-3,.cls-4{stroke:#000;stroke-width:3px;}.cls-1,.cls-4{stroke-miterlimit:10;}.cls-2,.cls-3,.cls-4{stroke-linecap:round;}.cls-2,.cls-3{stroke-linejoin:round;}.cls-3,.cls-4{fill:none;}</style></defs><title>icons3</title><path class="cls-1" d="M38.813,86.8h63.8a0,0,0,0,1,0,0v27.4a10,10,0,0,1-10,10h-43.8a10,10,0,0,1-10-10V86.8A0,0,0,0,1,38.813,86.8Z"/><rect class="cls-2" x="125.987" y="86.8" width="35.2" height="2.2"/><path class="cls-3" d="M102.613,93.4l9.685-5.235a2.2,2.2,0,0,1,1.046-.265h12.643"/><line class="cls-3" x1="38.813" y1="81.3" x2="102.613" y2="81.3"/><path class="cls-4" d="M68.579,75.8h4.267a3,3,0,0,1,3,3v2.5a0,0,0,0,1,0,0H65.579a0,0,0,0,1,0,0V78.8A3,3,0,0,1,68.579,75.8Z"/></svg>