<svg id="Layer_2" data-name="Layer 2" xmlns="http://www.w3.org/2000/svg" viewBox="0 0 200 200"><defs><style>.cls-1{fill:#fff;stroke:#000;stroke-miterlimit:10;stroke-width:3px;}</style></defs><title>icons3</title><path class="cls-1" d="M127.071,119.954l2.2-34.683c0-9.258-7.884-15.675-14.575-15.675-7.442,0-11.734,7.792-11.275,15.675l3.85,34.683c.825,6.017,3.578,10.45,9.35,10.45A10.45,10.45,0,0,0,127.071,119.954Z"/><path class="cls-1" d="M105.681,105.635s9-23.728,22.3,0"/><path class="cls-1" d="M72.929,119.954l-2.2-34.683c0-9.258,7.884-15.675,14.575-15.675,7.442,0,11.734,7.792,11.275,15.675l-3.85,34.683c-.825,6.017-3.578,10.45-9.35,10.45A10.45,10.45,0,0,1,72.929,119.954Z"/><path class="cls-1" d="M94.319,105.635s-9-23.728-22.3,0"/></svg>