<svg id="Layer_2" data-name="Layer 2" xmlns="http://www.w3.org/2000/svg" viewBox="0 0 200 200"><defs><style>.cls-1,.cls-4{fill:#fff;}.cls-1,.cls-2,.cls-3,.cls-4{stroke:#000;stroke-miterlimit:10;stroke-width:3px;}.cls-1{stroke-linecap:round;}.cls-2,.cls-3{fill:none;}.cls-3{stroke-dasharray:2.05 1.025;}</style></defs><title>icons3</title><rect class="cls-1" x="67" y="78.193" width="66" height="88" rx="8" ry="8"/><rect class="cls-1" x="73.6" y="90.294" width="52.8" height="70.4" rx="8" ry="8"/><path class="cls-2" d="M116.5,78.193v-41.9c0-5.283-5.139-9.565-11.478-9.565H94.978c-6.339,0-11.478,4.282-11.478,9.565v41.9"/><line class="cls-2" x1="81.575" y1="103.494" x2="82.575" y2="103.494"/><line class="cls-3" x1="83.6" y1="103.494" x2="116.913" y2="103.494"/><line class="cls-2" x1="117.425" y1="103.494" x2="118.425" y2="103.494"/><rect class="cls-4" x="90.1" y="25.007" width="19.8" height="3.3" rx="1" ry="1"/><path class="cls-4" d="M73.6,166.175h3.3a0,0,0,0,1,0,0v7.318a1.5,1.5,0,0,1-1.5,1.5h-.3a1.5,1.5,0,0,1-1.5-1.5v-7.318A0,0,0,0,1,73.6,166.175Z"/><path class="cls-4" d="M123.1,166.175h3.3a0,0,0,0,1,0,0v7.318a1.5,1.5,0,0,1-1.5,1.5h-.3a1.5,1.5,0,0,1-1.5-1.5v-7.318A0,0,0,0,1,123.1,166.175Z"/></svg>