<svg id="Layer_2" data-name="Layer 2" xmlns="http://www.w3.org/2000/svg" viewBox="0 0 200 200"><defs><style>.cls-1,.cls-2{fill:#fff;}.cls-1,.cls-2,.cls-3,.cls-4,.cls-5,.cls-6{stroke:#000;stroke-width:3px;}.cls-1,.cls-4{stroke-miterlimit:10;}.cls-2,.cls-3,.cls-5,.cls-6{stroke-linejoin:round;}.cls-3,.cls-4,.cls-5,.cls-6{fill:none;}.cls-3{stroke-dasharray:2 1;}.cls-6{stroke-linecap:round;}</style></defs><title>icons3</title><path class="cls-1" d="M81.817,87.814h42a12,12,0,0,1,12,12v20.4a5,5,0,0,1-5,5h-56a5,5,0,0,1-5-5v-20.4A12,12,0,0,1,81.817,87.814Z"/><rect class="cls-2" x="135.817" y="114.214" width="3.3" height="5.5"/><line class="cls-3" x1="80.817" y1="99.914" x2="125.917" y2="99.914"/><line class="cls-4" x1="122.617" y1="99.914" x2="129.217" y2="106.514"/><line class="cls-5" x1="65.417" y1="105.524" x2="69.817" y2="105.524"/><path class="cls-2" d="M68.717,105.524a3.3,3.3,0,0,0-3.3,3.3v9.545a2.2,2.2,0,0,1-2.2,2.2h-.134a2.2,2.2,0,0,1-2.2-2.2v-9.545a3.3,3.3,0,0,1,3.3-3.3h4.534Z"/><line class="cls-6" x1="101.46" y1="87.469" x2="78.581" y2="78.625"/><line class="cls-6" x1="79.821" y1="79.104" x2="81.49" y2="74.786"/><line class="cls-6" x1="82.899" y1="80.294" x2="84.568" y2="75.976"/><line class="cls-6" x1="85.977" y1="81.484" x2="87.647" y2="77.166"/></svg>