<svg id="Layer_2" data-name="Layer 2" xmlns="http://www.w3.org/2000/svg" viewBox="0 0 200 200"><defs><style>.cls-1{fill:#fff;}.cls-1,.cls-2,.cls-3{stroke:#000;stroke-miterlimit:10;stroke-width:3px;}.cls-2,.cls-3{fill:none;}.cls-3{stroke-dasharray:2 1;}</style></defs><title>icons3</title><path class="cls-1" d="M78.49,104.64h55a0,0,0,0,1,0,0v31a2,2,0,0,1-2,2h-51a2,2,0,0,1-2-2v-31A0,0,0,0,1,78.49,104.64Z"/><path class="cls-1" d="M78.49,65.04h55a0,0,0,0,1,0,0v31a2,2,0,0,1-2,2h-51a2,2,0,0,1-2-2v-31A0,0,0,0,1,78.49,65.04Z" transform="translate(211.98 163.081) rotate(180)"/><rect class="cls-1" x="83.99" y="110.14" width="44" height="22"/><rect class="cls-1" x="78.49" y="98.04" width="55" height="6.6"/><path class="cls-1" d="M98.909,62.36h14.162a0,0,0,0,1,0,0v9.962a2,2,0,0,1-2,2H100.909a2,2,0,0,1-2-2V62.36A0,0,0,0,1,98.909,62.36Z"/><line class="cls-2" x1="85.09" y1="65.04" x2="85.09" y2="98.04"/><line class="cls-2" x1="91.69" y1="65.04" x2="91.69" y2="98.04"/><line class="cls-2" x1="98.29" y1="65.04" x2="98.29" y2="98.04"/><path class="cls-1" d="M68.51,109.029h10.1a0,0,0,0,1,0,0v24.2a0,0,0,0,1,0,0H68.51a2,2,0,0,1-2-2v-20.2A2,2,0,0,1,68.51,109.029Z"/><line class="cls-3" x1="71.46" y1="126.629" x2="78.61" y2="126.629"/><line class="cls-2" x1="71.46" y1="115.629" x2="78.61" y2="115.629"/></svg>