<svg id="Layer_2" data-name="Layer 2" xmlns="http://www.w3.org/2000/svg" viewBox="0 0 200 200"><defs><style>.cls-1{fill:#fff;}.cls-1,.cls-2,.cls-3{stroke:#000;stroke-miterlimit:10;stroke-width:3px;}.cls-2,.cls-3{fill:none;}.cls-3{stroke-dasharray:2 1;}</style></defs><title>icons</title><path class="cls-1" d="M75,104.219h50a0,0,0,0,1,0,0v28a2,2,0,0,1-2,2H77a2,2,0,0,1-2-2v-28A0,0,0,0,1,75,104.219Z"/><path class="cls-1" d="M75,68.219h50a0,0,0,0,1,0,0v28a2,2,0,0,1-2,2H77a2,2,0,0,1-2-2v-28A0,0,0,0,1,75,68.219Z" transform="translate(200 166.437) rotate(180)"/><rect class="cls-1" x="80" y="109.219" width="40" height="20"/><rect class="cls-1" x="75" y="98.219" width="50" height="6"/><path class="cls-1" d="M93.563,65.781h12.875a0,0,0,0,1,0,0v8.875a2,2,0,0,1-2,2H95.563a2,2,0,0,1-2-2V65.781A0,0,0,0,1,93.563,65.781Z"/><line class="cls-2" x1="81" y1="68.219" x2="81" y2="98.219"/><line class="cls-2" x1="87" y1="68.219" x2="87" y2="98.219"/><line class="cls-2" x1="93" y1="68.219" x2="93" y2="98.219"/><path class="cls-1" d="M66.109,108.208h9a0,0,0,0,1,0,0v22a0,0,0,0,1,0,0h-9a2,2,0,0,1-2-2v-18A2,2,0,0,1,66.109,108.208Z"/><line class="cls-3" x1="68.609" y1="124.209" x2="75.109" y2="124.209"/><line class="cls-2" x1="68.609" y1="114.208" x2="75.109" y2="114.208"/></svg>